<?xml version="1.0" encoding="UTF-8"?>
<svg id="Layer_1" xmlns="http://www.w3.org/2000/svg" version="1.1" viewBox="0 0 595.28 841.89">
  <!-- Generator: Adobe Illustrator 29.0.1, SVG Export Plug-In . SVG Version: 2.1.0 Build 192)  -->
  <defs>
    <style>
      .st0 {
        fill: #fbfbfb;
      }

      .st0, .st1, .st2, .st3, .st4, .st5, .st6 {
        fill-rule: evenodd;
      }

      .st7 {
        stroke: #fc4114;
        stroke-miterlimit: 22.93;
        stroke-width: 1.92px;
      }

      .st7, .st8 {
        fill: none;
      }

      .st9, .st1 {
        fill: #fff;
      }

      .st2 {
        fill: #fd3813;
      }

      .st3 {
        fill: #ebebeb;
      }

      .st10, .st5 {
        fill: #fc4114;
      }

      .st4 {
        fill: #f9981c;
      }

      .st6 {
        fill: #1b1b1b;
      }

      .st8 {
        stroke: #f9981c;
        stroke-linecap: round;
        stroke-miterlimit: 10;
        stroke-width: 1.44px;
      }
    </style>
  </defs>
  <rect class="st9" x="98.01" y="175.16" width="384.92" height="342.26" rx="19.28" ry="19.28"/>
  <rect class="st7" x="98.01" y="175.16" width="384.92" height="342.26" rx="19.28" ry="19.28"/>
  <g>
    <path class="st1" d="M358.51,276.45l.04,66.3-8.83-.27.17-66.08c1.46-.59,7.2-.8,8.62.05"/>
    <path class="st5" d="M372.38,350.88l26.92.06.14,48.73-217.72.03-.19-48.68c63.62-.39,127.24-.07,190.86-.15M404.04,345.33l-.15,59.97-226.49.04c.09-4.29-.28-52.66-.34-59.72,75.6-.19,151.43.19,226.98-.28Z"/>
    <path class="st0" d="M238.32,415.65c1.67,9.11,13.75,23.51,20.51,29.65,5.46,4.96,25.31,18.61,31.39,18.88,6.28.28,26.16-13.9,31.62-18.58,5.7-4.89,19.37-20.98,20.76-29.95l-11.96-2.71c-1.71-.32-2.71-.38-4.14-1.36l25.07-.18c-2.96,13.94-16.25,30.46-23.19,37.3-7.35,7.24-29.43,22.58-37.67,23.02-3.52.19-17.95-7.8-20.77-9.55-6.34-3.92-12.55-8.63-17.06-13.24-8.77-8.96-20.87-24.41-23.48-37.54l24.6.03c-1.18,1.04-1.25,1.06-3.65,1.53l-12.03,2.7Z"/>
    <path class="st4" d="M236.78,443.96c13.56,16.39,30.76,28.53,51.49,37.18,2.83,1.07,3.26,1.15,8.02-.95l19.49-10.33c32.06-19.7,42.34-47.32,43.56-48.46l2.88-7.75h49.8s-.07-76.8-.07-76.8c-18.74.73-44.98,2.62-63.92,4.56l59.34.11v67.47c-6.75.05-46.43-.15-48.48.03-1.88,1.56-8.58,40.09-59.89,64.58-1.64.78-3.04,1.61-4.43,2.2-2.08.89-4.13,1.23-6.89.06-10.44-4.43-20.37-10.35-29.05-17.23-8.8-6.98-16.04-14.39-22.63-23.61-5.38-7.54-10.15-17.18-12.87-25.98l-49.61-.1.2-67.41,58.55-.31c-20.89-1.32-42.08-3.27-63.39-4.36l.04,76.76,50.76.04c5.03,11.41,8.81,20.29,17.07,30.29"/>
    <path class="st5" d="M250.35,412.95c2.41-.46,2.47-.49,3.65-1.53l-24.6-.03c2.62,13.13,14.71,28.58,23.48,37.54,6.71,6.86,28.84,22.23,38.12,22.76,8.24-.44,30.04-15.76,37.39-23,6.94-6.84,20.23-23.36,23.19-37.3l-25.07.18c1.42.98,2.43,1.04,4.14,1.36l11.96,2.71c-1.39,8.97-15.06,25.06-20.76,29.95-5.47,4.69-25.33,18.83-30.85,18.55-6.08-.27-22.51-10.17-32.16-18.85-6.76-6.14-18.84-20.54-20.51-29.65l12.03-2.7Z"/>
    <path class="st0" d="M317.86,421.82l.09,1.85c1.42-.31.86.02,1.61-.8,1.07.71.79-.11,1.45,1.28.85,1.79.31.8.56,2.71-1.72-.09-3.84-.49-4.01-.57-1.09-1.2-.55.02-.86-2.26,0-.03.09-1.7.09-1.74-1.5-2.7-.05-.45-1.68-1.53l-.26,5.64-1.18-.19c-2.36-1.03-3.98-3.34-4.65-5.63,2.77.39,1.72-.22,3.39,1.26.52.46.99,1.2,1.43,1.95l-.45-3.08c3.46.41,5.59-.84,7.58,1.01-1.4.62-1.28.39-3.1.09"/>
    <path class="st0" d="M274.86,421.11c1.44.53.42-.33,1.36,1.48.04.08.1.29.13.35.03.06.06.24.12.34l1.28-2.23c1.02,3.3-1.02.55.9,5.11-1.72-.53-1.37-.48-2.16-2.2l-1.65,2.31.03-5.17Z"/>
    <path class="st0" d="M306.37,425.72c.56-2.28-.48-2.93.94-4.69l.57,5.02c-1.69.23-.82.1-1.5-.33"/>
    <g>
      <path class="st10" d="M254.6,416.89c2.24,0,3.36,1.1,3.36,3.31,0,.76-.12,1.44-.37,2.04-.26.61-.63,1.09-1.11,1.44-.47.33-1.05.51-1.75.53-.44,0-.88-.1-1.33-.29v1.45c0,.45.02.79.07,1.01.05.23.14.39.27.48.12.08.34.14.66.16.11.12.16.29.16.53,0,.09-.01.18-.04.27-.03.1-.07.17-.12.22h-4.05c-.1-.1-.14-.26-.14-.48,0-.26.05-.44.14-.55.32-.02.54-.08.66-.16.13-.1.22-.26.27-.48.05-.22.07-.56.07-1.01v-.51h.02v-2.07c-.55-.25-.82-.43-.82-.55,0-.11.27-.24.82-.4v-2.31c0-.18,0-.36-.02-.55,0-.03,0-.05-.02-.06-.01-.11-.02-.2-.03-.27v-.03s0-.02,0-.04c0-.02,0-.03,0-.04-.05-.2-.14-.35-.26-.45-.04-.03-.1-.06-.16-.1-.01,0-.02,0-.03-.02-.14-.03-.29-.06-.47-.08-.1-.1-.14-.27-.14-.53,0-.22.05-.39.14-.48.78.03,1.46.05,2.02.05l1.38-.02c.22-.01.43-.02.63-.02h.21ZM252.37,427.06c.1-2.47.14-4,.14-4.58s-.05-2.11-.14-4.57c-.1,2.46-.14,3.98-.14,4.57s.05,2.11.14,4.58ZM255.4,422.55c.28-.39.42-1.01.42-1.86s-.15-1.53-.45-2.02c-.28-.47-.7-.72-1.25-.74-.18.03-.31.08-.39.13-.13.1-.22.26-.27.48-.04.23-.06.56-.06,1v3.39c.41.14.72.21.95.21.44-.01.79-.2,1.06-.58Z"/>
      <path class="st10" d="M267.76,426.98c.15.03.26.1.33.22.07.11.1.23.09.34-.01.12-.06.22-.16.31-.1.09-.21.14-.35.14h-.35c-.25.01-.43.01-.55,0-.12,0-.27-.01-.47-.02-.19,0-.34-.03-.43-.06-.1-.03-.22-.08-.36-.14s-.26-.13-.35-.22c-.09-.09-.18-.2-.3-.33-.11-.13-.21-.28-.3-.46-.09-.18-.18-.38-.28-.62l-.16-.4c-.19-.57-.38-1.02-.56-1.36-.04-.06-.09-.14-.13-.22-.1-.08-.19-.14-.29-.21s-.21-.12-.35-.16c-.14-.04-.27,0-.39.1s-.2.3-.26.55v.92c0,.45.03.79.08,1.01.05.23.14.39.26.48.12.08.34.14.66.16.12.12.18.29.18.53s-.06.39-.18.5h-4.03c-.1-.1-.14-.26-.14-.48,0-.26.05-.44.14-.55.32-.02.54-.08.66-.16.13-.1.22-.26.27-.48.05-.22.07-.56.07-1.01v-2.63c-.46-.23-.7-.39-.71-.5,0-.11.24-.23.71-.37v-2.36c0-.45-.02-.78-.06-1-.05-.21-.14-.37-.27-.47-.02-.02-.05-.04-.1-.05-.24-.01-.41,0-.53.02h-.02v-.02c-.13-.12-.19-.3-.19-.55v-.03c0-.24.06-.41.18-.53v-.02c.85.03,1.51.05,1.99.05.15,0,.45-.01.9-.03h.1c.1-.01.17-.02.22-.02.47-.01.92-.02,1.33-.02,1.04,0,1.82.27,2.36.82s.8,1.25.8,2.12-.19,1.55-.56,2.1c-.38.56-.88.93-1.53,1.12.32.26.58.55.79.88.2.34.49.93.85,1.77.25.51.45.85.62,1.02.17.17.43.26.78.3ZM261.15,427.06c.1-2.47.14-4,.14-4.58s-.05-2.11-.14-4.57c-.1,2.46-.14,3.98-.14,4.57s.05,2.11.14,4.58ZM262.14,421.86c.11.3.29.47.56.51.55-.01,1.01-.21,1.38-.59.39-.39.58-.95.58-1.7,0-.7-.15-1.24-.45-1.62-.29-.4-.72-.59-1.3-.59-.12,0-.24.01-.37.03-.2.1-.34.28-.4.55v3.42ZM266.74,427.42c.11.03.2.04.27.03-.15-.01-.32-.07-.5-.18-.02-.02-.05-.04-.1-.06-.01-.01-.03-.03-.05-.05-.02-.01-.03-.02-.03-.03-.02-.01-.08-.06-.16-.14-.01,0-.03-.01-.05-.03,0-.01,0-.02-.02-.02-.01,0-.02-.01-.02-.02,0,0,0-.02-.02-.04-.02-.02-.03-.03-.04-.03-.02-.02-.06-.07-.11-.16-.03-.03-.1-.13-.19-.29-.02-.01-.05-.05-.08-.13-.01,0-.02-.03-.04-.06-.02-.03-.02-.05-.02-.06l-.02-.02-.03-.05s0-.04-.02-.06-.03-.06-.06-.11c-.01-.02-.02-.04-.03-.06-.01-.02-.02-.04-.03-.05,0-.02,0-.04-.02-.07-.01-.03-.02-.04-.03-.06-.03-.08-.06-.15-.1-.23-.17-.38-.34-.71-.51-.98-.19-.26-.35-.46-.48-.61-.1-.09-.16-.13-.18-.14-.1-.09-.16-.14-.18-.16-.02-.01-.04-.02-.06-.04-.02-.02-.04-.03-.05-.04l-.06-.03s-.04-.02-.05-.03c-.11-.05-.2-.09-.27-.1.07.02.15.06.24.13.01.01.03.02.06.03,0,.01.02.03.05.05.02.02.04.04.05.05.02.01.04.02.05.03.02.02.07.08.16.18.01.01.06.07.14.18.1.14.23.35.39.63.01.02.03.06.06.13s.05.11.06.14c.05.12.09.2.11.26.01.02.02.05.03.07.01.03.02.06.04.09s.02.05.02.06c.04.1.08.18.11.24.03.08.06.15.1.22l.06.11s.03.06.06.13c.04.06.06.1.06.11.02.03.03.05.03.06.01.01.03.03.05.06s.05.08.08.13c.05.06.09.11.11.13.11.14.18.23.22.27.07.08.12.12.14.14.03.03.06.06.08.08.02.01.03.02.03.03.02.01.04.02.05.03.1.08.16.12.19.13l.05.03.05.03s.07.03.11.06c.02,0,.04,0,.05,0,.01,0,.02.01.04.02.02,0,.03.01.04.02.01,0,.02,0,.04,0,.02,0,.03.01.05.02.02,0,.03,0,.04,0ZM264.44,417.56c-.12-.03-.22-.05-.32-.05.1.01.2.04.3.08.09.04.17.09.26.14.01.01.05.04.11.08l.11.08s.04.03.05.03l.05.05.08.1c.1.11.18.22.26.35.06.12.12.24.16.35.06.19.11.4.14.63,0,.02,0,.05.02.08v.06s0,.07.02.14c0,.01,0,.05,0,.12,0,.07,0,.12,0,.15v.42s-.02.05-.02.06v.08c-.03.23-.08.43-.14.63-.11.27-.25.5-.43.69-.13.13-.26.24-.4.34-.09.05-.17.1-.26.14-.11.05-.21.09-.31.11.1-.01.2-.04.32-.08.09-.03.18-.07.27-.11.16-.08.31-.19.45-.3.22-.19.41-.43.55-.71.11-.21.18-.44.22-.67,0-.01,0-.04.02-.08v-.08l.02-.06v-.37s0-.14-.02-.31c0-.01,0-.06-.02-.14-.01-.04-.02-.07-.02-.08-.01-.03-.02-.06-.02-.08-.04-.24-.11-.45-.21-.66-.06-.12-.14-.24-.23-.37-.09-.13-.19-.25-.32-.35-.05-.05-.09-.08-.1-.08-.03-.02-.05-.04-.05-.05-.01-.01-.03-.02-.06-.03,0-.01-.04-.04-.11-.08-.06-.03-.11-.05-.13-.06-.09-.04-.18-.08-.27-.11Z"/>
      <path class="st10" d="M272.68,426.86c.12.08.34.14.66.16.1.11.14.29.14.55,0,.22-.05.38-.14.48h-4.03c-.11-.11-.16-.27-.16-.5s.05-.41.16-.53c.32-.02.54-.08.66-.16.13-.1.22-.26.27-.48.05-.22.07-.56.07-1.01v-2.6c-.52-.24-.79-.41-.79-.53,0-.11.26-.24.79-.39v-1.8h-.02v-.51c0-.44-.02-.77-.07-1-.05-.22-.14-.39-.27-.48-.12-.09-.34-.14-.66-.18-.1-.1-.14-.27-.14-.53,0-.22.05-.39.14-.48h4.03c.11.11.16.27.16.5,0,.24-.05.41-.16.51-.32.03-.54.09-.66.18-.13.1-.22.26-.26.48-.05.23-.07.56-.07,1v.5h.02v1.81c.51.15.77.28.77.39,0,.12-.26.29-.77.53v2.6c0,.45.02.79.07,1.01.05.23.14.39.27.48ZM271.31,427.06c.1-2.47.14-4,.14-4.58s-.05-2.11-.14-4.57c-.1,2.46-.14,3.98-.14,4.57s.05,2.11.14,4.58Z"/>
      <path class="st10" d="M282.16,418.01c.91.75,1.36,2.14,1.36,4.17,0,1.62-.29,2.85-.88,3.71-.29.43-.6.78-.92,1.07-.33.28-.68.5-1.05.63-.69.25-1.34.38-1.97.4h-.16c-1.22,0-2.5.02-3.85.06h-.06c-.1-.11-.14-.27-.14-.5v-.05c0-.23.05-.39.14-.48h.14c.26-.02.45-.08.58-.18.13-.09.22-.25.27-.48.04-.25.06-.6.06-1.08v-2.54c-.51-.24-.78-.41-.79-.53,0-.11.26-.24.79-.39v-2.33c0-.44-.02-.77-.06-1-.03-.1-.06-.18-.1-.24-.03-.06-.13-.14-.28-.22-.16-.09-.36-.14-.62-.18-.1-.1-.14-.26-.14-.48v-.05c0-.22.05-.39.14-.48h.06c.87.02,1.8.04,2.81.05.1-.01.18-.02.24-.02l.83-.02c1.5,0,2.7.37,3.6,1.12ZM276.71,427.06c.1-2.47.14-4,.14-4.58s-.05-2.11-.14-4.57c-.11,2.46-.16,3.98-.16,4.57s.05,2.11.16,4.58ZM278.17,426.84c.15.1.38.14.69.14.73,0,1.33-.32,1.81-.96.48-.63.72-1.82.72-3.56,0-1.63-.27-2.8-.82-3.52-.55-.73-1.25-1.09-2.1-1.09-.31,0-.56.05-.74.14v3.85c.52.15.79.28.79.39,0,.12-.26.29-.79.53v2.49c0,.47.03.83.1,1.08.06.25.18.42.34.51ZM282.58,422.5v-.3c-.01-.11-.02-.21-.02-.31l-.02-.3s0-.05,0-.09c0-.04,0-.06,0-.07,0-.02,0-.05-.02-.08v-.08s-.02-.08-.02-.15c0-.07-.01-.13-.02-.17-.01-.09-.03-.2-.06-.34,0-.03-.01-.09-.03-.16-.01-.05-.03-.11-.05-.18,0-.02,0-.05-.02-.1l-.03-.08c-.02-.06-.04-.12-.06-.18-.01-.05-.02-.09-.02-.1s-.01-.03-.02-.05-.01-.04-.02-.05c-.01-.03-.03-.09-.06-.18-.01-.02-.02-.04-.03-.06-.01-.02-.02-.05-.03-.07-.01-.03-.02-.05-.03-.06-.04-.1-.07-.16-.1-.19-.06-.12-.1-.18-.11-.19-.05-.09-.1-.15-.13-.19-.19-.29-.42-.54-.67-.74-.02-.01-.06-.04-.11-.08-.01,0-.02,0-.04-.02s-.03-.02-.04-.03l-.03-.03s-.09-.04-.13-.06c0-.01,0-.02-.02-.02-.02,0-.03-.01-.03-.02s-.02-.01-.03-.02c-.02,0-.02-.01-.02-.02-.16-.07-.34-.15-.55-.22-.2-.06-.41-.11-.63-.13-.25-.02-.47-.02-.67,0,.2-.01.43,0,.67.03.2.04.4.1.59.16.2.07.38.16.53.26l.03.02.02.02s.04.02.06.03c.05.04.09.07.11.08.05.04.09.07.1.08.05.04.09.07.11.08.24.21.44.46.61.74.07.12.11.18.11.19.03.06.06.12.1.18.02.03.05.1.08.19.01.01.02.04.04.08.02.04.03.08.04.11.15.4.26.85.32,1.36.01.02.02.12.03.31.01.02.02.05.02.08v.08s0,.08.02.14c0,.02,0,.07,0,.14,0,.07,0,.13,0,.17v.29l.02.14s0,.05,0,.09c0,.04,0,.06,0,.07v.45c0,.05,0,.1-.02.14-.01.18-.02.29-.02.32-.01.14-.02.25-.03.32,0,.03,0,.09-.02.17-.01.08-.02.14-.03.18v.08l-.02.08s-.02.11-.03.19l-.05.18s0,.05-.02.1c-.01.04-.02.08-.03.1-.1.34-.19.6-.27.79-.14.31-.31.58-.51.82-.01.01-.07.07-.18.19-.01.01-.03.03-.05.05l-.05.03c-.05.05-.09.09-.1.1-.01.01-.02.02-.04.03s-.03.02-.04.03-.02.02-.03.02c-.05.03-.1.06-.13.08l-.03.03-.03.02s-.05.03-.06.03c-.03.02-.05.03-.06.03-.02.02-.04.03-.06.03-.18.1-.37.17-.58.21-.02.01-.05.02-.08.02-.01,0-.02,0-.04,0-.02,0-.03,0-.04,0-.09.01-.14.02-.18.02-.13.01-.24.01-.34,0,.1.02.21.03.34.02h.18l.08-.02s.06,0,.08-.02c.21-.03.42-.09.61-.18.01,0,.02,0,.04,0,.02,0,.03-.01.03-.02,0,0,.02-.01.03-.02s.03-.02.04-.02c.02-.01.04-.02.06-.03l.03-.02.03-.02s.07-.05.13-.08c.01,0,.03-.01.06-.03s.05-.04.06-.05c.02-.01.06-.04.11-.08l.03-.03s.02-.02.03-.02c.02-.02.04-.04.05-.05.12-.11.18-.17.19-.19.21-.22.41-.5.58-.82.1-.19.2-.46.32-.8.03-.1.05-.16.06-.19l.05-.19s.02-.09.05-.19c0-.01,0-.04.02-.08v-.05l.02-.05s0-.07.02-.11c.01-.04.02-.09.02-.13,0-.04.01-.08.02-.11,0-.01.01-.12.03-.32.01-.05.02-.16.03-.32,0-.05,0-.11.02-.16v-.31c0-.07,0-.12.02-.15Z"/>
    </g>
    <g>
      <path class="st10" d="M290.74,425.86c.28,0,.49.05.63.16-.11.57-.19,1.24-.26,2.02-.1-.01-.26-.02-.48-.02-.22,0-.4,0-.53,0-.85-.01-1.55-.02-2.1-.02-.73,0-1.37,0-1.93.02-.64.01-1.28.03-1.91.05h-.06s-.04-.05-.05-.06c-.06-.1-.1-.24-.1-.43v-.05c0-.23.05-.39.14-.48h.03c.25-.02.43-.08.56-.18.14-.09.23-.25.27-.48.05-.25.08-.6.08-1.08v-2.58c-.45-.21-.68-.37-.69-.48,0-.1.23-.21.69-.35v-2.36c0-.44-.03-.77-.08-.98-.05-.21-.14-.37-.27-.47s-.31-.16-.57-.19h-.05c-.1-.1-.14-.26-.14-.48,0-.13.02-.24.06-.33s.07-.15.1-.17l.05-.03c1.1.02,2.22.04,3.36.05,1,0,1.79,0,2.39-.02.05,0,.12,0,.19,0s.14,0,.2,0h.17c.11,0,.18.03.23.08.05.05.08.11.09.18.01.36.04.77.08,1.2.01.06,0,.14,0,.22-.02.09-.07.17-.17.27s-.22.14-.39.14h-.03c-.09,0-.17-.02-.25-.05-.08-.03-.15-.07-.22-.13-.06-.05-.12-.1-.15-.15s-.09-.13-.17-.23c-.29-.35-.78-.53-1.48-.53h-.29c-.29.05-.5.28-.63.67v2.81c.06.33.24.52.51.58.42-.01.7-.09.85-.24.14-.13.22-.36.26-.69v-.02l.02-.02c.1-.1.25-.14.47-.14h.03c.2,0,.36.05.47.14v.02c-.01.12-.02.24-.03.35v.24c-.01.33-.02.61-.02.83,0,.33.01.77.03,1.3h-.02v.02c-.11.1-.26.14-.47.14h-.03c-.2,0-.36-.05-.47-.14l-.02-.02v-.02c-.05-.22-.13-.39-.24-.5-.16-.16-.46-.25-.88-.26-.26.06-.41.25-.47.56v1.73c0,.47.03.83.1,1.08.06.25.18.42.34.51.15.1.38.14.69.14h.16c.45,0,.81-.07,1.08-.22.27-.15.48-.37.63-.66,0-.01,0-.02.02-.03.01-.02.02-.04.02-.05.14-.11.34-.16.61-.16h.03ZM286,427.06c.1-2.47.14-4,.14-4.58s-.05-2.11-.14-4.57c-.1,2.46-.14,3.98-.14,4.57s.05,2.11.14,4.58Z"/>
      <path class="st10" d="M304.71,426.33c.06.15.07.29.03.43-.44.44-.93.78-1.46,1.03-.52.25-1.12.37-1.8.37-.87,0-1.64-.24-2.31-.73-.67-.49-1.2-1.16-1.57-2.03-.33-.78-.52-1.68-.56-2.68-.45-.21-.67-.37-.67-.48s.23-.22.69-.35c.05-.97.26-1.82.61-2.54.43-.86.98-1.5,1.67-1.93.7-.43,1.45-.64,2.26-.64.93,0,1.64.24,2.12.71s.72,1.04.71,1.69v.05c-.12.21-.32.32-.59.31-.28,0-.48-.11-.6-.31v-.05c-.07-.34-.19-.62-.34-.82-.29-.4-.7-.59-1.24-.59-.84,0-1.46.4-1.86,1.2-.38.76-.58,1.71-.59,2.86.55.15.82.28.82.4,0,.12-.28.3-.8.55.08,1.08.33,1.99.74,2.71.51.91,1.26,1.37,2.23,1.37.35,0,.72-.07,1.11-.21.38-.14.76-.34,1.14-.61.13.05.22.15.27.29ZM301.09,427.35c.13.01.24.01.34,0-.1.01-.21,0-.34-.02-.02-.01-.07-.02-.16-.03-.07-.02-.12-.04-.14-.05-.19-.05-.38-.13-.55-.23-.18-.1-.33-.2-.46-.32,0-.01-.03-.02-.05-.03,0-.01,0-.02-.02-.03,0-.01-.02-.02-.03-.02-.02-.02-.05-.05-.1-.1-.01-.01-.04-.04-.08-.09-.04-.05-.07-.08-.08-.09-.19-.22-.36-.48-.51-.77-.03-.06-.06-.13-.08-.19,0-.01-.02-.03-.03-.05,0-.01,0-.03-.02-.05,0-.01,0-.03-.02-.05l-.02-.05s-.06-.17-.13-.37c-.13-.38-.22-.82-.29-1.32,0-.02,0-.05,0-.08s0-.06,0-.08v-.04s0-.04,0-.06,0-.04,0-.05c0-.02,0-.07,0-.14s-.01-.12-.02-.15c-.01-.17-.02-.27-.02-.29,0-.16-.02-.26-.02-.29v-.71s0-.05,0-.08,0-.06,0-.08c0-.17,0-.27.02-.29.03-.48.11-.93.24-1.33.09-.28.18-.52.29-.74.15-.29.33-.54.53-.75.1-.11.15-.17.18-.18.05-.04.09-.07.1-.08,0-.01.03-.03.05-.05s.04-.04.05-.05c.16-.12.32-.21.46-.29.18-.1.37-.18.56-.24.22-.06.44-.1.64-.11-.2,0-.42.03-.66.08-.19.05-.38.12-.56.21-.17.08-.34.17-.5.27,0,.01-.03.03-.05.05-.03.02-.05.03-.06.04-.01,0-.02.01-.03.02,0,.01-.02.02-.04.03s-.03.02-.04.03c0,.01-.07.06-.19.16-.21.21-.41.47-.58.77-.14.21-.26.47-.35.75-.15.42-.25.87-.3,1.36-.01.03-.02.13-.03.31,0,.09,0,.14-.02.16v.74s0,.14.02.29c.01.18.02.28.03.29,0,.04,0,.1.02.18,0,.08.02.12.02.13.01.08.02.14.02.16,0,.01,0,.03,0,.06,0,.03,0,.06,0,.08.08.5.2.96.35,1.36.07.19.12.32.14.37.01.01.02.03.03.05,0,.02.02.04.02.05s.01.03.03.05l.02.05s.02.03.03.06c.03.05.05.1.06.13.17.29.36.55.58.77,0,.02.04.05.08.1.01.01.03.02.05.04.02.02.04.03.05.04.02.02.06.05.11.1l.03.03s.02,0,.02.02c.02.01.04.02.05.03.14.11.3.21.49.3s.38.16.57.2c.03.01.07.02.11.03h.05c.09.02.14.03.16.03Z"/>
      <path class="st10" d="M312.6,425.54c.06,0,.13,0,.19.02.06.02.12.04.17.06.05.02.09.04.13.06.04.02.06.04.07.06l.03.02s-.02.12-.05.28c-.03.17-.06.28-.07.35-.02.07-.06.19-.14.35-.08.17-.16.29-.25.38-.09.09-.22.2-.39.33-.17.13-.37.22-.59.29s-.5.12-.83.17c-.33.05-.7.07-1.11.07-1.31,0-2.59.02-3.85.05-.14-.08-.2-.25-.19-.49.01-.24.1-.42.27-.52.26-.02.45-.08.58-.17.13-.09.22-.25.26-.49.05-.24.07-.59.07-1.08v-2.52c-.54-.25-.8-.43-.8-.55,0-.11.27-.24.8-.4v-1.8h.02v-.5c0-.44-.02-.77-.07-1-.05-.22-.14-.39-.26-.48-.12-.09-.34-.14-.66-.18-.1-.1-.14-.27-.14-.53,0-.22.05-.39.14-.48h4.03c.11.11.16.27.16.5,0,.24-.05.41-.16.51-.32.03-.54.09-.66.18-.13.1-.22.26-.26.48-.05.23-.07.56-.07,1v2.31c.5.15.75.28.75.39-.01.11-.26.28-.75.51v2.5c0,.47.03.83.1,1.08.06.25.17.42.33.51.15.1.39.14.7.14h.16c.57,0,1-.16,1.28-.48.16-.17.31-.42.43-.74.05-.15.26-.23.63-.23ZM307.98,427.06c.11-2.47.16-4,.16-4.58s-.05-2.11-.16-4.57c-.1,2.46-.14,3.98-.14,4.57s.05,2.11.14,4.58Z"/>
    </g>
    <g>
      <path class="st10" d="M321.66,417.37v.02c0,.22-.05.39-.14.5h-.02v.02s-.06-.02-.1-.02c-.22.04-.4.13-.51.26-.12.13-.2.33-.25.61-.05.28-.07.68-.07,1.2v1.88c.55.15.82.28.82.4s-.27.3-.82.55v.75c0,.98-.05,1.76-.16,2.33s-.31,1.03-.61,1.38c-.52.61-1.29.92-2.3.92-.86,0-1.54-.14-2.04-.43-.5-.28-.86-.71-1.08-1.3-.21-.58-.32-1.34-.32-2.28v-1.36c-.52-.25-.79-.43-.79-.55-.01-.11.25-.24.79-.39v-2.25c0-.45-.03-.79-.08-1.01s-.14-.39-.26-.48c-.12-.09-.34-.14-.67-.16-.11-.12-.16-.29-.16-.53s.05-.39.16-.5h4.06c.1.1.14.26.14.48,0,.26-.05.44-.14.55-.32.02-.54.07-.66.16-.13.1-.22.26-.26.48-.05.22-.07.56-.07,1.01v4.29c0,1.03.14,1.81.43,2.34.29.53.76.79,1.41.79.22,0,.46-.05.71-.16.22-.11.42-.27.58-.5.16-.25.28-.58.35-1.01.08-.42.11-1.03.11-1.85v-3.47c0-.56-.03-.97-.08-1.25-.05-.29-.14-.5-.27-.63-.12-.13-.3-.21-.54-.26h-.1c-.11-.11-.16-.27-.16-.5v-.02c0-.22.05-.39.14-.5v-.02h.03c.12.01.2.02.26.02h.05c.32.02.68.03,1.09.03.56,0,1.01-.02,1.35-.05h.02c.11.11.16.27.16.5ZM316.75,427.5c.17.04.35.06.53.06-.18-.01-.35-.04-.51-.1-.14-.05-.28-.14-.42-.26-.2-.16-.38-.38-.51-.67-.11-.2-.2-.43-.27-.69-.06-.19-.12-.41-.16-.64-.05-.32-.1-.68-.13-1.09-.02-.29-.04-.6-.05-.95v-.95c0-.32,0-.7-.02-1.12-.01-.26-.05-1.36-.11-3.32-.07,1.99-.11,3.1-.11,3.32-.01.42-.02.79-.03,1.12v.24c-.01.08-.02.16-.02.24v.48c0,.33.02.65.06.96.04.4.11.77.19,1.11.05.24.12.46.19.66.1.26.21.49.34.69.07.14.15.26.24.35.11.13.22.24.35.32.14.11.28.18.43.22Z"/>
      <path class="st10" d="M328.15,421.96c1.75.12,2.63,1.07,2.63,2.84,0,.99-.3,1.76-.92,2.34-.61.57-1.57.86-2.87.86h-.58c-1.19.01-2.38.03-3.56.06h-.06c-.1-.11-.14-.27-.14-.5v-.05c0-.23.05-.39.14-.48h.14c.25-.02.44-.08.57-.17s.22-.25.27-.49c.05-.24.07-.59.07-1.08v-2.55c-.49-.24-.74-.41-.74-.51s.25-.23.74-.37v-2.34c0-.44-.02-.77-.07-.98-.05-.21-.14-.37-.26-.47-.13-.1-.32-.16-.58-.19v-.02l-.14.02c-.1-.1-.14-.26-.14-.48v-.05c0-.22.05-.39.14-.48h.06c.73.02,1.52.03,2.38.03h.3l1.3-.02c1.17,0,2.02.19,2.56.58.54.39.81,1.02.81,1.89,0,.69-.18,1.26-.55,1.73-.36.47-.87.76-1.51.87ZM324.81,427.06c.1-2.47.14-4,.14-4.58s-.05-2.11-.14-4.57c-.1,2.46-.14,3.98-.14,4.57s.05,2.11.14,4.58ZM325.9,418.25v2.97c.06.35.28.53.64.53.51-.03.89-.2,1.14-.5.28-.35.42-.83.42-1.43,0-.63-.16-1.11-.47-1.44-.32-.33-.69-.49-1.13-.49-.01,0-.03,0-.06.02-.3,0-.48.11-.53.34ZM326.98,427.02c.47,0,.84-.18,1.11-.53.27-.35.4-.84.4-1.48,0-.82-.2-1.4-.61-1.73-.36-.3-.86-.46-1.49-.5-.17,0-.29.03-.37.1-.08.06-.11.2-.11.42v2.09c0,.46.04.81.11,1.04.07.24.19.39.34.47.16.08.36.12.62.12ZM327.84,417.53c-.1-.02-.19-.03-.27-.02.08,0,.17.02.27.05.08.03.17.07.24.1s.14.08.21.12c.01.01.03.03.05.05.02.01.04.02.04.02,0,0,.01.01.02.02.02.02.04.04.05.05.17.17.31.37.4.61.05.16.1.35.13.56,0,.02,0,.1.02.24v.24c.01.17,0,.34-.02.5-.03.19-.08.37-.14.55-.1.24-.23.44-.4.61-.1.11-.21.2-.35.29-.17.11-.34.18-.5.22.17-.02.35-.07.53-.16.15-.08.29-.16.42-.26.11-.09.21-.18.3-.29.06-.09.13-.19.19-.32.1-.18.17-.38.22-.59.03-.18.05-.36.05-.55,0-.04,0-.13-.02-.26-.01-.13-.02-.22-.03-.27-.04-.21-.11-.42-.21-.61-.13-.25-.3-.45-.51-.61l-.1-.06c-.05-.03-.09-.05-.1-.06-.06-.03-.14-.06-.22-.1-.09-.03-.18-.06-.27-.08ZM329.75,425.02c.01-.2,0-.4-.03-.58-.03-.24-.09-.46-.16-.66-.05-.12-.12-.24-.19-.35-.09-.13-.19-.25-.31-.35-.04-.04-.11-.1-.19-.16-.08-.05-.15-.1-.22-.14-.09-.04-.18-.08-.27-.11-.11-.03-.2-.05-.29-.06.09.02.18.05.27.1.08.04.17.09.24.14.08.05.14.11.21.16.08.06.13.12.16.18.1.11.18.22.24.35.06.12.11.23.14.34.05.17.09.38.1.61.01.15.02.33.02.53-.01.17-.03.35-.06.53-.04.23-.1.42-.16.59-.11.26-.25.48-.42.67-.04.05-.1.11-.18.18-.06.05-.13.1-.21.14-.08.05-.16.1-.24.14-.05.02-.1.04-.14.05-.05.02-.1.03-.14.03.04.01.1.01.16,0,.03-.01.08-.03.14-.05.08-.03.17-.07.26-.11.08-.04.17-.09.24-.14.08-.05.14-.1.19-.14.21-.19.39-.42.53-.67.1-.19.18-.41.24-.64.04-.19.07-.38.08-.56Z"/>
    </g>
    <path class="st4" d="M289.51,445.42c-.49,1.37-.83,3.02-1.17,4.27.78-.57,2.4-1.65,3.55-2.43,1.09.73,2.54,1.8,3.55,2.4-.44-1.36-.83-2.97-1.13-4.21.97-.86,1.94-1.71,3.09-2.74-1.04,0-2.81,0-4.06,0l-1.51-3.97c-.47,1.32-.85,2.7-1.39,3.98-1.53,0-3.05-.02-4.58,0,1.44,1.11,2.43,1.83,3.66,2.72"/>
    <path class="st4" d="M273.25,445.51c-.49,1.37-.83,3.02-1.17,4.27.78-.57,2.4-1.64,3.55-2.43,1.09.73,2.54,1.8,3.55,2.4-.44-1.36-.83-2.97-1.13-4.21.97-.86,1.94-1.71,3.09-2.74-1.04,0-2.81,0-4.06,0l-1.51-3.97c-.47,1.32-.85,2.7-1.39,3.98-1.53,0-3.05-.02-4.58-.01,1.44,1.11,2.43,1.83,3.66,2.72"/>
    <path class="st4" d="M305.87,445.42c-.49,1.37-.83,3.02-1.17,4.27.78-.57,2.4-1.65,3.55-2.43,1.09.73,2.54,1.8,3.55,2.4-.44-1.36-.83-2.97-1.13-4.21.97-.86,1.94-1.71,3.09-2.74-1.04,0-2.81,0-4.06,0l-1.51-3.97c-.47,1.32-.85,2.7-1.39,3.98-1.53,0-3.05-.02-4.58,0,1.44,1.11,2.43,1.83,3.66,2.72"/>
    <path class="st5" d="M257.8,432.67c11.18-.4,22.24-.53,33.39-.53,3.71,0,31.93.33,31.99.53-10.8.43-21.25.52-31.96.53-11.02-.07-24.18-.13-33.41-.52"/>
    <line class="st8" x1="396.9" y1="330.66" x2="407.88" y2="321.72"/>
    <line class="st8" x1="379.3" y1="330.66" x2="400.27" y2="310.19"/>
    <line class="st8" x1="365.02" y1="330.66" x2="391.83" y2="299.48"/>
    <line class="st8" x1="353.04" y1="330.66" x2="382.62" y2="289.67"/>
    <line class="st8" x1="342.69" y1="330.66" x2="372.71" y2="280.83"/>
    <line class="st8" x1="333.54" y1="330.66" x2="362.17" y2="273.02"/>
    <line class="st8" x1="325.28" y1="330.66" x2="351.08" y2="266.31"/>
    <line class="st8" x1="317.66" y1="330.66" x2="339.54" y2="260.75"/>
    <line class="st8" x1="310.51" y1="330.66" x2="327.62" y2="256.39"/>
    <line class="st8" x1="303.68" y1="330.66" x2="315.43" y2="253.24"/>
    <line class="st8" x1="297.07" y1="330.66" x2="303.04" y2="251.35"/>
    <line class="st8" x1="290.55" y1="330.66" x2="290.55" y2="250.71"/>
    <line class="st8" x1="284.04" y1="330.66" x2="278.07" y2="251.35"/>
    <line class="st8" x1="277.49" y1="330.82" x2="265.75" y2="253.4"/>
    <line class="st8" x1="270.6" y1="330.66" x2="253.48" y2="256.39"/>
    <line class="st8" x1="263.45" y1="330.66" x2="241.57" y2="260.75"/>
    <line class="st8" x1="255.83" y1="330.66" x2="230.02" y2="266.31"/>
    <line class="st8" x1="247.56" y1="330.66" x2="218.94" y2="273.02"/>
    <line class="st8" x1="238.41" y1="330.66" x2="208.4" y2="280.83"/>
    <line class="st8" x1="228.07" y1="330.66" x2="198.49" y2="289.67"/>
    <line class="st8" x1="216.09" y1="330.66" x2="189.28" y2="299.48"/>
    <line class="st8" x1="201.81" y1="330.66" x2="180.83" y2="310.19"/>
    <line class="st8" x1="184.21" y1="330.66" x2="173.23" y2="321.72"/>
    <path class="st10" d="M202.85,356.3h6.41c1.89,0,3.19.7,3.91,2.1.2.52.3.99.3,1.4v10.52c0,.63-1.37,1.77-4.11,3.41l-.1.4c0,.27,1.14,1.07,3.41,2.4,1.2.83,1.8,1.5,1.8,2v12.22c0,1.77-.83,3.01-2.5,3.71-.57.07-1.04.1-1.4.1h-7.91c-1.4,0-2.54-.23-3.41-.7h-.3c-.99.47-1.69.7-2.1.7h-.5c-.52,0-.85-.17-1-.5v-.5c.33-1.32.5-2.32.5-3.01v-30.35c0-.72-.17-1.69-.5-2.91v-.1c0-.4.2-.67.6-.8,1.14,0,2.17.2,3.11.6,1.07-.47,2.34-.7,3.81-.7ZM202.25,362.91c.07,1.1.1,1.94.1,2.5v.1c0,.7-.03,1.27-.1,1.7.07.48.1,1.09.1,1.8v1.6c0,.1.1.2.3.3.22,0,1.05-.57,2.5-1.7,1.2-.62,1.8-1.19,1.8-1.7v-4.31c0-.37-.17-.63-.5-.8h-3.41c-.32,0-.58.17-.8.5ZM202.35,378.24c.07.57.1,1,.1,1.3,0,.55-.03.85-.1.9.07.68.1,1.22.1,1.6v3.71c0,.53-.03,1.24-.1,2.1,0,.4.47.6,1.4.6h2l.6-.1c.12.07.28.1.5.1h.2c.6-.08.9-.38.9-.9,0-.13-.03-.2-.1-.2.07-.78.1-1.35.1-1.7v-3.11c0-1.24-.43-2-1.3-2.3-2.42-1.6-3.72-2.4-3.91-2.4h-.1c-.1,0-.2.13-.3.4Z"/>
    <path class="st10" d="M224.29,356.1h.2c.28,0,1.22.27,2.81.8,1.54-.53,2.57-.8,3.11-.8h7.01c2.6.22,3.91,1.02,3.91,2.4.2.45.3,1.02.3,1.7v14.23c0,.82-.9,1.55-2.71,2.2-.47.35-.7.65-.7.9.8,2.79,1.7,5.69,2.71,8.72,1.1,3.77,2.14,6.28,3.11,7.51,0,.45-.3.72-.9.8-.68,0-1.69-.27-3.01-.8h-.1l-2.2.7h-.3c-.8,0-1.2-.43-1.2-1.3,0-1.54-.47-3.47-1.4-5.81-1.07-3.72-1.74-5.79-2-6.21,0-.13-.07-.2-.2-.2h-.4c-1.27.67-1.9,1.3-1.9,1.9.07,1.24.1,2.14.1,2.7v5.71c0,.43.2,1.24.6,2.4-.05.53-.32.8-.8.8h-.8c-.15,0-.95-.27-2.4-.8-1.04.53-1.84.8-2.4.8h-.4c-.37,0-.63-.17-.8-.5v-.2c.33-.43.5-2.6.5-6.51v-2.4c0-2.24-.03-5.31-.1-9.22.07-.35.1-.68.1-1-.07-.47-.1-.87-.1-1.2s.03-.83.1-1.5c0-.37-.03-.83-.1-1.4.07-2.22.1-4.16.1-5.81,0-.62-.03-1.49-.1-2.6l.1-.5c-.07-.63-.1-1.27-.1-1.9v-.2c0-.23.03-.53.1-.9l-.5-1.5v-.2c0-.53.27-.8.8-.8ZM230.4,363.01c0,.57.03,1.17.1,1.8-.07.99-.1,1.65-.1,2,.07.94.1,1.54.1,1.8l-.1.7c0,.05.03.25.1.6l-.1,1.6c.07.83.1,1.27.1,1.3-.07.37-.1.73-.1,1.1.12.33.28.5.5.5,2.81-1.69,4.21-2.79,4.21-3.31v-5.01l.1-.6c-.07-.1-.1-.3-.1-.6,0-.38.03-.92.1-1.6,0-.67-.3-1-.9-1-.07,0-.17.03-.3.1-.37-.07-.67-.1-.9-.1-.3,0-.73.03-1.3.1-.27-.07-.5-.1-.7-.1-.47.13-.7.37-.7.7Z"/>
    <path class="st10" d="M256.55,356.1h8.82c1.94,0,3.21.7,3.81,2.1.27.4.4.97.4,1.7v.1c0,15.9-.03,25.21-.1,27.95.07.52.1,1.09.1,1.7l-.1.5c.07.37.1.67.1.9-.52,1.87-1.05,2.81-1.6,2.81,0,.28-.83.52-2.5.7-.69-.07-1.22-.1-1.6-.1h-1.6c-1.09,0-1.89.03-2.4.1-.52-.07-1.32-.1-2.4-.1h-2.4c-2.07-.43-3.11-1.44-3.11-3.01,0-1.22-.03-1.95-.1-2.2.07-1.08.1-2.15.1-3.21l-.1-25.95c0-1.77.83-3.04,2.5-3.81.57-.13,1.3-.2,2.2-.2ZM258.45,363.21v1.4c-.07,12.84-.1,19.92-.1,21.24,0,.03.03.17.1.4-.07.12-.1.28-.1.5v1.1c0,.28.4.45,1.2.5,2.34,0,3.51-.17,3.51-.5l-.1-22.24c0-.67-.03-1.67-.1-3.01l-.3-.2h-2.6c-.23,0-.53-.03-.9-.1-.4,0-.6.3-.6.9Z"/>
    <path class="st10" d="M280.54,356.1h.1l3.01.8c1.2-.53,2.04-.8,2.5-.8.93,0,1.4.77,1.4,2.3,0,.75.5,2.49,1.5,5.21,0,.22.23.99.7,2.3,1.4,4.49,2.34,7.36,2.8,8.62h.1s.13-.07.3-.2c-.07-1-.1-1.74-.1-2.2v-12.52c0-.33-.1-1.24-.3-2.71,0-.53.27-.8.8-.8.25,0,1.22.27,2.9.8.47-.27,1.44-.53,2.91-.8.28.08.48.25.6.5v.4c0,.28-.17.65-.5,1.1.07,1.1.1,1.94.1,2.5v31.16l.5,1.9v.1c0,.53-.33.8-1,.8h-.1c-.35,0-1.22-.23-2.6-.7h-.2c-1.42.47-2.42.7-3.01.7-.53-.17-.8-.37-.8-.6l.1-1c0-.77-.33-2.17-1-4.21-.8-2.5-1.3-4.21-1.5-5.11-.33-.68-1.07-2.92-2.2-6.71-.28-.73-.48-1.14-.6-1.2h-.3c0,.07-.03.17-.1.3,0,.47.03.73.1.8-.07,2.19-.1,3.89-.1,5.11v8.31c0,.67.17,1.84.5,3.51v.3c-.17.33-.43.5-.8.5h-.4c-.43,0-1.17-.33-2.2-1h-.3c-.25,0-.75.3-1.5.9-.37.07-.67.1-.9.1h-.4c-.53,0-.8-.27-.8-.8.4-.99.6-1.95.6-2.91v-31.86l-.6-2.1c.05-.53.32-.8.8-.8Z"/>
    <path class="st10" d="M314.15,356.3h9.12c1.95,0,3.22.53,3.81,1.6.33,1.02.5,1.92.5,2.71v2.6c0,.75.17,1.89.5,3.41,0,.35-.33.55-1,.6h-.5c-.48,0-1.15-.2-2-.6-.07,0-.17-.03-.3-.1-1.22.47-1.92.7-2.1.7h-.2c-.6-.08-.9-.38-.9-.9v-2.5c0-.87-.27-1.3-.8-1.3h-3.11c-.43,0-.7.3-.8.9.07,1,.1,1.74.1,2.2v20.64c0,.07-.03.1-.1.1l.1.2v.4c0,.15-.03.28-.1.4.05.8.35,1.2.9,1.2h2.9c.6,0,.9-.4.9-1.2v-3.81c0-.73.3-1.1.9-1.1h.2c.17,0,.77.2,1.8.6h.5c1.02-.4,1.85-.6,2.5-.6.52,0,.85.17,1,.5v.1c-.27,1.62-.4,2.65-.4,3.11v4.11c0,2.24-.83,3.64-2.5,4.21-.25.07-.52.1-.8.1h-11.42c-1,0-1.9-.77-2.71-2.3-.15-.28-.25-1.22-.3-2.8,0-.4.03-.6.1-.6-.07-.9-.1-1.57-.1-2v-19.94c0-1,.03-2.17.1-3.51-.07-.17-.1-.7-.1-1.6,0-2.79.5-4.42,1.5-4.91,0-.27.93-.47,2.8-.6Z"/>
    <path class="st10" d="M341.9,356.1h8.82c1.94,0,3.21.7,3.81,2.1.27.4.4.97.4,1.7v.1c0,15.9-.03,25.21-.1,27.95.07.52.1,1.09.1,1.7l-.1.5c.07.37.1.67.1.9-.52,1.87-1.05,2.81-1.6,2.81,0,.28-.83.52-2.5.7-.68-.07-1.22-.1-1.6-.1h-1.6c-1.08,0-1.89.03-2.4.1-.52-.07-1.32-.1-2.4-.1h-2.4c-2.07-.43-3.11-1.44-3.11-3.01,0-1.22-.03-1.95-.1-2.2.07-1.08.1-2.15.1-3.21l-.1-25.95c0-1.77.83-3.04,2.5-3.81.57-.13,1.3-.2,2.2-.2ZM343.81,363.21v1.4c-.07,12.84-.1,19.92-.1,21.24,0,.03.03.17.1.4-.07.12-.1.28-.1.5v1.1c0,.28.4.45,1.2.5,2.34,0,3.51-.17,3.51-.5l-.1-22.24c0-.67-.03-1.67-.1-3.01l-.3-.2h-2.6c-.23,0-.54-.03-.9-.1-.4,0-.6.3-.6.9Z"/>
    <path class="st10" d="M365.34,355.99v6.4l-6.4,6.37v-12.76h6.4Z"/>
    <path class="st10" d="M372.25,356.1c1,.07,1.74.1,2.2.1h7.31c1.8.48,2.71.99,2.71,1.5.47.53.7,1.77.7,3.71,0,.32-.03,1.09-.1,2.3.33,1.42.5,2.35.5,2.8,0,.53-.3.8-.9.8-1.74-.53-2.71-.8-2.91-.8-1.37.47-2.14.7-2.3.7-.6-.2-.9-.7-.9-1.5.07-.63.1-1.24.1-1.8,0-.07-.03-.17-.1-.3l.1-.2c0-.6-.23-.9-.7-.9h-2c-.47,0-.7.23-.7.7,0,.32.03.65.1,1-.07,1.2-.1,2-.1,2.4.07,1.49.1,2.29.1,2.4-.07.13-.1.23-.1.3,0,.58,1.1,1.52,3.31,2.81,4.54,3.14,6.81,4.74,6.81,4.81.27.43.4,1.14.4,2.1v11.02c0,1.99-.5,3.32-1.5,4.01-1.1.4-1.74.6-1.9.6h-10.12c-2.05,0-3.39-.9-4.01-2.7-.13-.58-.2-1.05-.2-1.4,0-.13.03-.2.1-.2l-.1-.7v-4.61c0-.3-.13-.94-.4-1.9v-.2c.25-.4.55-.6.9-.6s1.34.27,2.91.8c1.1-.4,1.94-.6,2.5-.6h.1c.4.23.6.53.6.9v1.9c0,.67-.03,1.47-.1,2.4.13.4.4.6.8.6h2.91c.67,0,1-.33,1-1v-6.31c0-.8-.94-1.7-2.81-2.7-4.14-2.87-6.61-4.64-7.41-5.31-.2-.43-.3-.77-.3-1v-10.02c0-.37-.03-.83-.1-1.4,0-2.32,1.04-3.76,3.11-4.31.33-.07.5-.13.5-.2Z"/>
    <path class="st1" d="M236.09,303.91c.01,1.45-3.48,12.69-2.84,14.73.4,1.27-.62,1.55-1.93,2.83-.38.37-.31,1.4-.71,1.98-.51.75-1.5,1.07-2.04,1.5-2.46,1.93-1.13,3.52-1.03,4.45,0,0,.37,4.91,2.36,8.16,2.23,3.64,6.15,5.63,6.95,4.65,1.63-2.03,3.91-2.95,3.99-3.3,1.43-6.74,6.66-8.48,6.66-8.48,0,0-.92-5.25-.34-7.85.58-2.6.42-7.42,3.03-9.26,2.61-1.84,4.93-5.37,8.14-7.17,6.15-3.45,13.52-16.55,14.73-16.64,9.67-.75,33.35-4.35,39.91-7.23,0,0,2.05.36,3.59-.43,1.08-.55,4.01-1.59,6.91-2.96,1.23-.58,3.79-3.12,3.79-3.12l3.8-1.68s1.86-.14,3.39-1.54c1.1-1.01,1.17,2.62-.31,2.9-.84.15-1.45,1.09-2.37,1.21-.96.13-1.93-.02-2.82-.04-.97-.03-1.91-.19-2.51,1.1-1.9,4.11-3.49,7.62-2,10,.21.34,1.85.12,2.23.08.84-.08,1.62-.74,2.51-.73,0,0-.15,3.76.56,4.4.94.84,4.74-.53,6.18-1.29,1.15-.61,2.51-1.16,3.6-2.56,2.3-2.96,5.59-2.14,7.49-6.44,0,0-1.52-10.12-1.64-16.61-.03-1.86-1.11-5.21-5.11-6.69-4.59-1.7-9.56.31-9.56.31.24-9.01,3.21-9.99,3.21-9.99,9.04.13,8.73,4.6,10.98,5.47,7.31,2.81,13.03-3.84,13.03-3.84,0,0,.54-2.1-.04-3.71-1.39-3.86-3.49-6.76-3.68-7.28-.13-.35-2.01-3.68-1.88-4.83.04-.31-1.13-2.64-1.11-2.94l1.91.33c-.23-1.03-.15-1-.85-2.09-.39-.61-1.27-.91-1.08-.93,1.2-.15,2.92-.93,2.92-1.25l-1.12-1.26-3.06-1.24,1.28-5.15-1.31.14-1.16-.43-.55-1.55-6.83.84-5.05-1.88c-2.77-.59-5.93-.22-9.63-.16-2.7.04-5.62.08-7.74-.85,0,0-.18,1.79.77,2.98,0,0-2.1.99-2.63,1.18-2.86,1.02-3.76-.79-3.83-.68-1.08,1.57.45,3.01-.13,2.99-2.52-.08-4.58,2.36-7.88,1.78,0,0,1.28,2.24,2.48,2.67,1.11.39-2.53-.04-4.09-1.75-.08-.09-1.53,1.11-.46,2.23.32.33-1.76-.15-2.06.34,0,0,.11-2.08.37-2.17,1.11-.36,1.38-1.52,1.11-2.7-.13-.58,2.9.19,3.52.07,2.38-.47,1.97-1.79.69-4.69-.54-1.24-3.46-.88-4.18-1.97-.95-1.44-.98-3.31-1.75-4.21-1.32-1.54-6.16-.39-7.5-.67-3.39-.71-3.03-.23-6.48,3.76-.65.75.04,2.29-.64,3.15-1.62,2.03-4.98,3.89-6.1,6.86-.43,1.12,3.71-.35,3.11.63-.33.55-4.46,3.54-4.83,4.04-2.85,3.78-4.71,5.93-8.84,5.4-14.63-1.87,1.89,21.87-2.53,21.75-5.62-.15-15.24,6.82-19.89,9.97.24.73-3.19-2.32-8.54-1.01-5.03,1.23-8.24,3.31-9.77,4.5-6.52,4.11-6.14,15.04-6.51,15.41-2.39,2.41-7.71,5.18-15.74,6.66-5.57,1.02-14.08,1.46-14.24,1.54,0,0,11.07,9.6,20.62,10.03,11.91.54,17.88-3.61,19.78-4.92,1.3-.9,9.17-4.32,11.32-7.39.66-.95-.92,4.18-.73,4.36.78.74-7.29,6.19-7.28,8.19"/>
    <path class="st2" d="M296.74,220.28l-2.75.47c-.15.66-.26,1.82-.4,2.75-.05.36-.65.58.22,1.14.29.18.11.13.59-.09,1.23-.56,2.21-2.82,2.34-4.27M300.31,222.89c-.54-.63-.66-1.63-.68-2-.02-.27-.4-.39-1.99-.39-.35.99-.56,1.82-.96,2.57-.68,1.27-.94,1.01-1.15,2.17,1.04.89,2.04,1.72,3.68,1.67.44-.07.51-.39.2-.83-.23-.32-.74-.7-1.11-1.08.26-.04.67-.12.89-.14.23-.03.7-.03.7-.03.21-.19-.13-.75-.06-1.05.03-.13.97-.19.97-.33,0-.14-.25-.42-.49-.57ZM304.87,235.41l-.58-.39-9.92,2.34c-.66-1.98-1.19-4.24-1.91-6.32-1.01-2.91-1.48-3.15-3.12-4.64,1.13,0,1.55.42,2.26.73-.45-1.34-.24-1.44-1.64-1.5-6.18-.26-6.7,5.77-11.91,9.47l.38,1.06-2.33.26s.04.11.04.13c0,.01.03.1.03.12,0,.01.01.09,0,.1l-.75.55s-.1.09-.13.11c-.03.03-.09.1-.11.12-.74.74-1.89-.18-4.16,1.22-1.28.79-1.93,1.01-3.55,1.34.83,1.82,3.37,3.67,4.93,4.66.8.51.64.48,1.72,1.07.78-.49.95-.79,1.6-1.53-1.16-.5-1.69-.03-2.69-1.29,1.68-.1,3.56.03,4.85-.88-1.48-.57-2.17-.1-3.27-.89,1.8-1.09,5.56.41,9.01-3.29,2.01-2.15-1.12-6.83,2.52-8.69,1.33,5.05,3.89,9.81,6.92,12.45,3.62-.61,9.51-2.83,12.93-4.18-.18-1.26-.06-1.67-1.14-2.12ZM294.85,227.75c-.46-.81-1.66-2.37-2.3-2.74-.92,1.36,1.02,3.36,1.47,3.65.1-.09.21-.3.34-.44,0,0,.14-.23.5-.47ZM295.81,226.74s1.38-.44-1.22-.86c.24.49.2.65.58.94.24.27.63-.08.63-.08ZM342.36,223.25c.46-.72,1.7-1.92,2.42-2.4-4.01,1.04-3.06,1.66-3.95,2.06-1.21.55-1.38-.71-.98,5.29l4.33-2.61c-.9-2.66-1.07-.76-1.83-2.34ZM337.91,232.41l1.21-.76-.42-3.21c-.36,1.08-.72,2.62-.8,3.96ZM293.59,258.41c.45-3.01.49-4.61-3.62-7.03-1.23-.72-8.93-6.44-10.17-6.69-1.28-.27-2.63,1.29-3.79,1.84-2.28,1.08-6.29-2.23-7.6-2.98,1,2.89,3.28,4.22,5.14,5.41,4.82,3.09,6.86,4.46,12.67,7.13,1.83.84,1.93.4,3.96.81,2.08.42,1.83,1.07,3.41,1.52ZM300.33,241.31c-1.64-.97-4.77,1.42-6.98,1.52-1.55.06-3.64-2.91-4.32-4.24-5.65,1.75-5.32,1.6-8.52,5.18,1.48,1.43,3.24,2.3,4.62,3.64,1.03-.56,1.72-1.42,3.27-1.07,1.24.28,1.43.72,2.55,1.38,1.33-1.03,1.21-1.32,3.22-.98,1.37-.09,6.12-5.34,6.16-5.43ZM350.96,239.46c.82-.54.57-.1.11-1.5-1.15-3.55-.28-4.36-1.55-6.55-3.44-5.92-1.51-1.5-4.44-4.73-2.01.63-3.49,1.86-5,3.04.22,2.5.83,5.22,1.65,7.57.9,2.59,2.04,3.77,3.02,5.85l1.54-1.05c-.67-1.47-1.48-3.23-1.68-4.96,1.04.8,1.7,3.1,2.38,4.58l3.08-1.79c-.92-2.29-1.59-2.28-2.94-3.26,1.66-.11,2.5.36,2.05-1.84-.23-1.11-.98-2-1.48-2.61,2.78.05,1.73,5.33,3.26,7.26ZM292.54,268.29c.32.12-.09.62,1.95-.46,4.63-2.44,8.4-4,7.16-9.53-.8-3.59-6.11-11.29-8.72-11.14.75,1.37,6.63,5.6,7.61,11.35.72,4.2-2.06,5.82-5.42,7.74-2.28,1.3-2.29.83-2.58,2.04ZM292.71,266.78c4.06-1.47,8.2-4.78,6.73-9.5-.71-2.3-2.24-3.9-3.66-5.21-1.35-1.25-3.03-2.57-4.43-3.68-.79.38-1.71,1-2.26,1.56,1.46,1.5,6.25,3.06,5.41,7.32-.68,3.47-1.97,3.06-1.81,9.52ZM345.37,243.99c.72,1.69,2.47,4.53,4.02,5.09,1.92.69,1.31,1.74,3.16.6.33-.2,1.77-1.63,1.85-1.76,1.38-2.07-2.1-7.13-2.63-7.25-.26.58.07,1.37.44,2.09.1.2.21.41.36.58.04.05.1.11.15.15.04.04.12.1.16.14l.73.45c-1.46,1.54-.4.81-.84,2.73l-1.2.11c-.39-.78-.55-.84-.27-1.88.21-.76.58-.8.71-1.56-.92-.37-.9-.43-1.32.57-.43,1.02,0,1.94-.4,1.38-.03-.04-.05.16-.09.24-.41-1.1-.28-1.39.32-2.2,1.07-1.45.88-.04.14-2.32l-3,1.64c.47,1.37,1.28,2.43,2.04,3.42-1.31-.23-2.12-1.64-2.77-3.07l-1.57.85ZM265.61,284.55c.88-1.87-.4-4.92.28-6.36,3.02-.43,5.21,1.11,7.71,1.55,1.16.85,5.92,1.75,7.57,1.79,3.03.07,6.04-.2,9.05-.29,4.1-.53,8.31-.42,12.64-1.63-.05-1.39-6.47-10.55-7.6-11.47-5.01,1.79-2.59,3.64-2.41,5.35.06.56-.18,1.82-.18,2.5,1.76,1.37,3.78.85,3.91,3.12l-1.64.35c-2.88-.52-5.33.15-7.13-.96-.06-.03-.13-.08-.18-.12-1.83-1.2.06-.36-4.18-.88-.18-2.47.69-3,1.12-4.83-6.59,2.05-10.57,4.61-13.99-6.01-.81-2.52-1.02-5.16-1.24-5.8-1.11-3.29-14.62,3.9-17.03,5.69-3.61,2.67-8.04,7.65-7.73,13.01.31,5.33,6.54,13.25,4.48,17.43l-4.03,6.51c-2.22,2.78-4.46,1.93-4.06,6.29,1.2.7,3.71,1.54,5.36,1.42,2.75-7.31,5.48-6.88,9.96-12.24,2.09-2.5,9.09-11.54,9.3-14.41ZM347.85,250.09c.28-1.19-1.85-3.34-2.77-4.18.32,1.68.91,3.96,2.77,4.18ZM285.64,266.97c-.12,1.68.15,3.67-.16,5.16-.41,1.96-1.52,2.03-1.3,4.26.59.04,1.3-.04,1.88-.03,2.54.05-.61.57,3.84,1.28,1.95.31,3.96.78,6.17.59-2.53-3.02-10.28.57-5.04-14.08.7-1.95,1.55-3.17,1.95-5.17-1.21-1.59-3.77-2.13-6.16-1.47-.69,2.51-.95,6.48-1.17,9.45ZM245.11,270.39c-2.67-1.81-14.74-2.24-17.62,8.14,1.65-1.19,3.6-5.53,7.59-6.29-.45.95-1.09,1.64-1.7,2.57-2.3,3.47-2.8,4.21-4.03,8.28-2.53,8.37-1.33,5.59-5.86,10.53,5.23-1.68,6.08-8.43,8.13-12.73,1.71-3.58,5.19-9.85,11.74-10.04-3.16,2.07-6,3.35-7.5,6.18-.75,1.42-1.5,2.65-2.17,4.28-2.62,6.31-2.41,9.17-7.02,11.98-2.72,1.66-7.02,3.3-10.32,4.35h2.24c-2.24.98-3.58,1.34-6.19,1.67,4.35,2.28,12.43-.23,16.81-2.75,6.08-3.49,6.34-9.99,8.62-11.98l.72,4.49c2.11-4.32,1.77-13.73,4.94-17.06l1.61-1.62ZM289.99,273.17c1.11-.78,1.09-1.66,1.13-3.09-1.19.37-.98.07-1.21,1.09-.13.59-.03,1.37.08,2ZM290.46,274.02c0,.3.36.81.52.95.9.76-.04.14.96.41l.15-1.69c-.71-.13-1.63-.54-1.63.34ZM244.41,312.4c-1-.66-2.54-1.05-3.94-.84-.84,1.77-1.7,9.28-1.37,11.6.88.51,2.04.92,3.45.46-2.26-1.36-1.91-1.93-1.8-4.99.08-2.11.47-4.19.85-5.97l2.82-.26ZM242.79,325.52c-1.32-.04-2.21-.47-3.39-.27-1.79,2.71.08,1.31-1.44,2.28-2.23,1.41-.91-.5-1.1,2.48l-1.67,1.26c.74,1.32,2.14,2.7,3.24,3.32.89-1.84.83-3.2,2.13-4.54,1.72-1.77,2.76-1.29,2.24-4.52ZM326.35,242.06c1.77.66,2.26.16,3.82-1.11l4.78-4.49c.63-.63.86-.99,1.17-1.37l2.44-12.2c-6.01,1.13-9.73,3.29-14.37,6.14l-8.65,5.83c-1.01.54-2.37.87-3.07,1.57,1.08.73,2.53,1.27,3.78,1.75,1.31-.65,2.84-2.27,4.19-3.19,3.28-2.25,11.68-7.33,15.23-7.47-.96.72-3.64,1.89-4.9,2.55-1.61.85-3.12,1.7-4.6,2.6-2.62,1.6-6.42,4.16-8.18,6.17,2.96,1.37,5.34,2.11,8.35,3.23ZM326.71,269.82c.63-.91,6.79-4.72,9.83-4.72,1.4,0,1.65.5,2.26,1.14.16.18.34.37.51.54l3.5-1.26c-.03-1.65-1.05-3.36-2.03-4.38-1.2-1.24-2.79-.91-4.71-.72-4.5.45-7.35,1.8-11.39,2.49.56-2.35,3.34-5.28,1.72-10.82-.87-2.96-2.42-4.85-4.62-6.35-.4-.27-.51-.38-.99-.72-.15-.1-.43-.3-.54-.38-.44-.32-.18-.07-.58-.4l6.29-.83c-1.84-.82-7.57-3.36-9.1-3.43l-1.17,1.64-2.44-.57c.6-1,1.09-.91,1.85-1.85l-1.33-.76c-1.74-.77-2.52-1.4-3.95-.81-10.46,4.29-9.72,6.75-13.52,10.02,1.65,2.51,4.49,5.59,5.81,9.5,2.31,6.87-2.66,7.97-3.85,9.49.8,1.5,6.62,11.78,7.34,12.32,7.27-4.79-.46-7.16.69-12.51.84.66,2.49,3.64,3.66,4.79,7.66,7.51,13.56-.14,16.8-1.43ZM327.23,269.85s0,0,0,0c0,0,0,0,0,0ZM327.21,269.84s0,0,.01,0c0,0,0,0-.01,0ZM332.07,245.64c.08,1.62-2.8,4.56-3.24,6.2-.36,1.33.28,3.04.27,4.46,0,1.46-.37,2.63-.48,3.94,5.35-.27,10.8-2.47,13.21.5,3,3.71,2.28,7.84,2.62,12.69.17,2.47.82,4.78.38,7.06-.51,2.64-2.17,2.03-4.2,3.64-.98.77-1.18,1.36-1.95,2.17-1.57,1.63-6.19,4.3-7.72,4.31-.86-1.55-.65-3.45-.7-5.26-1.94.48-2.75,1.12-4.68,1.09-.85-2.67.9-5.08.8-6.79.72-.81.94-1.5,1.5-2.3,1.22-.02,2.3.3,3.36.55,1.37.32,2.16.82,2.77-.69,1.18-.45,1.97-1.83,2.38-3.07.49-1.46,0-3.23-.32-4.91l-6.72,3.34-1.36.62-2.75,1.2-1.64.82c-1.09.52-2.75,1.25-3.41,2.14l-1.46.48c-4.55.99-2-2.14-6.83.74-2.21,1.31-4.79,2.2-7.2,3.13-5.68,1.16-9.38,1.72-14.86,2.27-1.32-.35-13.38.13-16.58.37l-1.33.09-2.7.58-3.69,7.02c-.36.71-11.81,13.12-13.71,14.65-6.71,5.41-5.6,7.67-7.76,18.76-.43,2.22.42,2.54-1.32,4.11-1.42,1.28-1.8,1.36-2.49,3.06-.64,1.59-1.02,5.49-5.02,6.23-1.01-1.57-1.29-2.97-2.04-4.86l-1.95.52c-.79-1.61-1.55-3.62-1.64-5.71-.11-2.66.91-2.75,3.15-2.89-.24-2.09-.43-2.33,1.33-3.15,1.59-.74,1.06-1.03,1.5-2.93,1.29-5.54,1.46-8.72,2.61-13.78.93-4.07.62-3.07,4.11-4.96,1.27-.69,3.35-3.91,4.09-4.95,3.37-4.79-1.29-5.77-2.64-14.48-.54-3.47.21-4.62.62-7.33-4.78,2.85.84,16.33-9.36,21.27,1.01-1.3,2.27-3.25,2.68-5.31-2.81,4.85-10.62,10.57-19.36,10.9-5.54.21-11.19-1.84-16.26-3.73-1.68-.63-2.97-1.8-4.22-2.25,1-.05,2.71.61,3.97.79,3.03.44,11.62,1.25,13.83-1.02-1.73-.13-3.25-.93-4.54-1.62,4.91-.84,7.38-1.81,10.85-4.59,2.72-2.17,5.2-4.48,5.34-8.34-.83,1.26-.94,2.72-1.79,4.17-.12-4.33,1.19-10.97,5.6-13.63,1.93-1.16,5.81-2.77,8.21-2.91,3.12-.19,5.21.61,7.77,1.42.69-.55.02.03.6-.62l1.4-1.55c2.31-2.32,4.26-3.47,7.25-5.04,4.61-2.41,8.3-2.83,13.36-4.05l.64-1.6c.41,3.38.91,17.8,7.57,17.21,2.01-.18,5.39-.93,6.75-2.03.5-1.69.26-4.54.41-6.48.15-1.97.07-1.5-.36-3.1-.33-1.23.14-1.68.26-2.88l-2.04,5.09c-.68-.96-.12-1.67.31-2.92.56-1.64.4-1.14-.34-2.41-.88-1.5-1.95-3.93-2.7-5.5-2.75.89-3.9,1.7-6.98.93-2.54-.63-4.6-1.36-4.9-3.52,2.17-.31,4.35,1.04,7.39.79l-3.23-2.02c-1.14-.73-1.89-1.19-3.06-2.13-.85-.68-1.93-1.79-2.23-3.29-.49-2.41.7.43-.97-4.28.04-.07.11-.15.14-.19l1.09-.93c-1.85-.45-1.58-.29-.72-2.21,3.41-.07,5.46,2.45,10.25-2.19l6.67-7.17c1.56-1.93,3.59-2.95,7.54-3.09.41-.01-.95-1.19-.68-1.21-.65-1.4-2.19-2.5-.82-5.64.34-.78.92-1.73,1.43-2.28,2.67-2.8,1.15-1.93,4.87-1.53.92.1,1.9.47,2.65.85,1.79.91,2.34,2.1,3,4.72h-.12c-.54-1.12-.97-2.12-1.69-3.25.28,1.08.73,2.13.83,3.23l-3.78.07c-.75-2.36-1-2.52-1.88-4.27l1.26,4.19-4.24.92c3.33-.5,6.11-1.14,9.57-.89.78.06,1.76.65,2.34,1.16.07.06.11.37.15.6-.58.13-2.38-.08-3.63-.24l.35,1.5.35.37c.13.13.33.36.43.55.04.08.15.55.07.65-.13.15-.71.26-1.13.38,0,0,.15.81.18,1.02,0,0-.14.09-.25.08l.07.58s-.35.15-.52.08c0,0,.37.76.08,1.26-.09.16-.14.2-.29.28-.91.38-2.25-.7-3.02-.69,0,0-.94.14-1.03.51-.06.86.55.9,1,1.69.01.02,0,.05,0,.07.02.16-.17.29-.25.29-1.01.2-1.32-1.38-1.76-.97-.88,1.09-1,4.92-.46,6.96,1.7.05,5.91-1.28,7.52-1.94,2.64-1.07,1.23-2.7,4.36.16,6.45-1.61,7.56-2.65,8-3.5,4.37-1.35,2.19-.89,4.69-2.35.25-.15-.5-1.05-.12-1.23h1.36c1.2-.48.66-.6,1.9-.81,2.25-.39.61-1.6,4.76-2.69h.87c2.72-1.29,2.09-.71,5.02-1.35,2.29-.5,2.46-1.31,5.01-1.51,5.22,1.41,1.36,1.63,4.39.38.94-.38,1.92-.51,3.03-.99.94-.4,1.76-.86,2.73-1.25-.08,1.22-.51,2.07-.9,2.82,1.16-.43,1.46-.86,2.89-.98-.17.69-2.36,4.05-2.83,4.57.54.41,1.91,1.26,2.85,1.64.92.37,2.33.42,3.16.86-1.71.56-1.97.42-3.6.29,1.01,1.73,1.93,1.58,2.94,2.93-1.14-.25-1.54-.6-2.58-.81,1.09,3.21,1.11,2.67,1.51,6.3.41,3.75,4.25,8.99,4.33,11.04.05,1.2-2.02,3.51-2.92,4.02-1.32.75-5.08.82-6.26.34-2.1-.85-1.89-2.49-3.92-3.06-1.77-.49-9.2-2.73-10.36-2.6ZM335.07,240.35c-.59.92-.54,1.43-1.07,2.26-.6.96-.99.87-.83,1.96l7.83,2.18c.66-.61.75-.59,1.15-1.46-1.09-1.02-1.95-1.2-3.08-2.36-1.02-1.05-1.22-1.67-2.19-2.31-.51-.55-.78-.47-1.79-.27ZM337.2,236.14l.12.51c.29,3.25,2.58,5.47,5.04,5.86-1.02-3.56-2.4-6.04-3.11-10.1-.57.54-.96.92-1.28,1.63l-.77,2.11ZM343.41,278.5c-2.39-1.48-1.99-2.51-2.01-5.9-.02-2.86-.72-4.23,1.05-5.9-4.79.74-4.05,2.2-3.99,6.4.06,4.14,1.95,4.71,4.95,5.41ZM326.63,285.35c1.29-.67.25.12.81-3.31.21-1.29.47-1.91.73-3.04-1.13,1.12-1.61,3.1-1.86,4.81-.22,1.48.12,1.28.33,1.54ZM343.67,280.25l-5.31-.66c-1.17,1.17-1.4,2.06-3.96,2.45l.72,5.45c2.51-1.01,2.83-2.29,4.28-3.69,1.5-1.45,2.54-1.51,3.36-2.19.76-.63.79-1.21.91-1.35ZM332.06,282.99c-.75,2.18-.66,4.26-.47,6.78,1.65-.91.74-1.33.63-3.46-.05-1.07-.18-2.46-.17-3.32ZM232.02,333.42c.02-.52-.81-2.46-1.21-3.13-.15.56-.25,3.09,1.21,3.13Z"/>
    <path class="st2" d="M270.33,256.62c.04-.7.08-1.83-.27-2.88.06.01.14,0,.18.08l1.7,1.11c.73.47,1.31.84,2.32,1,2.58.42,3.85-.65,6.07-1.24l.79,1.99c-2.39,1.3-5.95,1.81-8.53.94-.89-.3-1.4-.79-2.26-.99"/>
    <path class="st2" d="M252.94,269.86c-1.58,2.39-3.14,3.27-3.75,6.84-.56,3.27.19,6.68.64,10.11-2.37-3.35-4.5-10.47-.72-14.69.79-.89,2.32-2.68,3.83-2.26"/>
    <path class="st2" d="M319.82,258.43c-.26-4.75,1.7-6.33-1.49-10.56,1.53.44,3.21,2.13,3.56,4.67.36,2.56-.62,4.48-2.07,5.89"/>
    <path class="st2" d="M302.65,236.16l-1.95-1.06-.21-.12-.29-.51c-.43-.44-1.13-.61-1.76-.82l.68-.15c1.92-.14,3.71.96,4.6-.2-1.09-.45-1.79-1.1-2.8-1.65-1.28-.7-1.51-.86-2.16-1.81-.13-.26-.05-.27.01-.34,1.08,1.12,2.84.7,3.4.81,1.32.25,1.87,1.15,3.48.57-.19-.19-1.93-.58-2.75-1.4-.32-.32-.5-.66-1.02-.9-.5-.23-1.13-.29-1.29-.37-.14-.08-.24-.25-.24-.25.63,0,.75-.15,1.3-.32,1-.3,2.42,0,3.39.15-.74-.71-2.04-1.33-1.68-2.44.14.16.17.16.23.31.21.5.52.82,1.15,1.09.51.22,1.2.4,1.76.48,1.78.27,2.06-.51,3.26-.93,2.07-1.01,2.2-.65,2.92-.99-.93-.24-1.02-.11-1.79.09-.4.1-1.06.37-1.67.4-.67,0-2.6-.31-3.08-1.31,2.75.89,4.31-1.34,6.2-1.65.97-.16,2.3.12,2.86-.94-.92-.39-1.65-.77-1.68-1.49-.01-.09.1-.4.12-.41l.3.29c.25.32,2.03.19,2.58.32.32-.15.23-.08.56-.17.22-.06.25-.06.43-.14,1.95-.83,1.83-1.2,4.48-.98-.14-.27-.74-.44-1.03-.64-.54-.38-1.14-1.24-.75-1.84,1.89.92,4.44.96,6.63.21l1.08-.08c.58.08.32-.75-2.51-1.53,1.79-.82,4.89.26,7.28,1.55,1.28.69,1.95.18,3.33.45.8.16,1.59.41,2.34.83l4.51,2.56-2.3,1.16c-2.62-.3-7.91.71-9.62,1.25-2.78.88-6.12,3.12-8.69,4.37-2.23,1.08-3.98,2.05-6.13,3.49-2.15,1.44-4.04,2.45-5.84,4.22-.29.28-.59.63-.87.93l-1.29.72c-.25.22-.08.1-.31.21-.03-.53,1.06-.97,1.54-1.49-.39-.01-2.49.85-3.62,1.14,0,0-2.32-.31-3.07-.66l-2.6.35c-.53-.03-.13.04-.16-.22l.24-.14c.07-.42.44-.2-.22-.44.16-.26.05-.11.23-.17l.56-.44,1.95,1.06ZM323.15,224.65c.09-.14.1-.09-.08-.16-.59.14-1.08.25-1.72.43-.58.17-1.18.23-1.94.1-1.33-.24-3.1-1.08-4.54-1.5l-1.74.29c-.54.11-1.55.59-1.82,1,.18-.08.77-.3,1.14-.4.21-.06.61-.17.78-.2,1.54-.27,3.83,1.25,4.62,1.61,1.84.84,2.5.26,3.66-.43.44-.26,1.12-.56,1.62-.74ZM323.37,223.51c-.92.12-2.5-.88-3.05-1.31l-1.92-.66-.82-.03c1.88.74,2.54,2.12,4.67,2.38.62.08,1.01-.06,1.56-.02.25-.13.6-.12-.43-.36ZM324.56,222.91c-1.43-.52-1.54-.51-2.42-1.34-.7-.47-.89-.61-1.86-.82.39.55,1.05.96,1.32,1.26.56.6,1.98,1.05,2.96.9ZM327.04,222.58c.65-.07,1.08-.16,1.69-.43,1.37-.6,1.07-.45,2.39-.71-.68-.5-1.05-.38-1.83-.47-.15.12-2.26.89-2.71.92-.97.06-2.42-.78-3.01-1.28-1-.44-1.88-.8-2.78-.25.61.23,1.93.57,2.36.86,1.05.7,2.39,1.52,3.88,1.36ZM328.44,220.65l-.14-.21c-.52-.2-1.22.61-3.21.05,1.48,1.57,2.43.24,3.36.15ZM336.2,220.26l.34-.25c-1.01-.24-2.04.29-3.06.44-.79.12-1.57.14-2.36-.03-.22-.04-.55-.14-.79-.1.84,1.28,3.08.64,4.06.42.4-.12.64-.18.95-.28.11-.04.34-.14.43-.16.16-.04.38-.06.43-.04ZM315.96,222.66c.15.4,0,.07,1,.43,1.57.56,1.67,1.08,3.32,1.02.25-.21.17-.17-.09-.19-.74,0-1.42-.47-2.03-.79-.87-.46-1.53-.37-2.2-.46ZM317.01,226.09c-.75-.56-1.8-1.12-2.86-1.36-.87-.2-.95-.02-.95.02l3.81,1.34ZM309.37,233.05c-.18.23-.09.17-.42.39-.11.07-.12.08-.24.13-1.86.8-1.87.44-3.67-.16.52,1.26,3.32,1.23,4.22.21.43-.5.16-.51.11-.56ZM306.57,233.09c3.52-.15,4.18-2.18,6.19-2.61.43-.09.64-.01.99-.08-2.53-1.18-3.76,1.41-5.93,2.04-1.56.45-1.85-.17-2.96-.19.29.45,1.02.64,1.72.83ZM312.45,228.04c-.47.06-1.18.09-2.73,1.16-1.56,1.07-2.53.9-4.31.69-.18,0-.36-.02-.53.02,1.06.9,3.11.79,4.17.35,1.13-.47,2.25-1.63,3.41-1.76l1.76.27c-.01-.67-1.15-.8-1.77-.72ZM308.53,228.56c1.43-.4,2.47-1.24,3.85-1.47,1.17-.2,1.96.39,3.16.67,1.66.38,1.47.14,2.79-.12.01-.36-.01-.19-.61-.17-.93.02-2.1-.44-2.95-.72-3.7-1.24-4.13.4-6.29,1.4-.89.41-2.13.63-3.17.43.94.44,2.17.3,3.23,0ZM302.56,234.64c.23.45,1.21.7,1.76.76.57.06,1.29-.03,1.65-.27-.44-.05-.99-.02-1.6-.1-.64-.08-1.18-.22-1.81-.39ZM326.04,219.01h0s0,0,0,0c0,0,0,0,0,0,0,0,0,0,0,0ZM328.71,219.04h.02s0,0,0,0c-.81.02-1.8,0-2.69-.03,0,0-.01,0-.02,0h.02c-.5.05-1.08.03-1.83-.15-.14-.03-.28-.07-.44-.12l-.06-.03c-.03-.05.08-.11.35-.16h.07c1.01-.05,2.1.05,3.09.21.54.09,1.05.19,1.5.29ZM328.71,219.04h.02c1.57-.04,2.47-.21.67-.58-.06-.01-.13-.03-.2-.04-1.08-.2-1.24-.18-2.18-.19-1.54.11-2.47.21-2.94.31-.07.02.01,0,.04,0-.27.02-.51.03-.78.07.13.04.26.09.38.12.02,0,.03,0,.05.01l-.06-.03s0,.01.02.02c.06.05.23.09.48.13.43.06,1.08.12,1.81.15h.03c.43-.05.8-.15,1.16-.26.64-.19,1.26-.39,2.19-.29.41.04.87.15,1.43.33,1.64.14,5.29-1.38,6.61.3-1.73-.04-1.47-.53-4.64.3-.87.23-1.38.39-2.38.08,0,0-.69-.21-1.7-.44,0,0,0,0-.01,0"/>
    <path class="st5" d="M288.4,221.8c-3.32,1.16-4.04,2.1-5.6,1.74.41-1.8.72-2.18,2.61-2.95.79-.32,1.77-.56,2.53-.77.65-2.38.47-5.8,2.73-6.9l.56-.22c1.04-.06,1.78-.07,2.82-.12.48-.02.57,0,1.02-.11,1.83-.44,3.97-.78,4.79,1.44.41,1.11.44,2.61,1.05,3.65,1.47.36,2.52.51,3.81,1.17,1.38.71,1.78,1.06,1.43,2.73l-6.34-.86c-2.14-.26-7.61-.11-11.42,1.22"/>
    <path class="st1" d="M298.18,214.52c0,.1.08.28.09.38-.36-.52-.96-.73-1.48-.7-1.29.18-2.6.51-4.05.51-.16-.05-1.48-.19-1.5-.28.32-.04.8-.03,1.28-.05.99-.05,2.16-.1,3.06-.31.34-.08.74-.17,1.13-.2.58-.04,1.26.26,1.46.65"/>
    <path class="st1" d="M351.41,284.98l.04,58.97-7.86-.24.15-58.77c1.29-.52,6.4-.71,7.67.04"/>
    <path class="st1" d="M344.82,299.77c-1.62-.19-4.55,2.11-6.8.12-1.5-1.32-1.24-4.8.46-5.88.6-.38,3.71-1.6,4.34-1.86l2.18-.84-.17,8.47Z"/>
    <path class="st1" d="M345.15,322.92l-.12,8.69-2.96-.65c-.91-.36-3.39-1.36-4.02-2.16-1.5-1.92.13-5.82,2.57-6.33,1.22-.24,3.53.38,4.53.45"/>
    <path class="st1" d="M339.23,308.07c.42-.49,1.96-1.06,2.6-1.18.62-.11,2.56-.37,3.17-.38v8.28c-.74.03-3.21.09-3.86-.04-2.78-.53-4.42-4.2-1.91-6.69"/>
    <path class="st1" d="M337.82,314.36s.06.04.08.07c-1.21.05-5.47.22-6.69.2-4.01-.08-3.62-5.58-1.12-6.02,1.06-.24,5.12-.55,6.14-.56-.19.39-.7,1.03-1.05,1.48-.29.37-.5.87-.5,1.47,0,1.71,2.14,2.57,3.14,3.38"/>
    <path class="st1" d="M334.5,299.67c.51.86,2.78,1.68,2.78,1.81,0,.3-5.88,2.43-7.6,1.41-1.16-.6-2.5-3.76-.04-4.83,1.92-.84,2.87-.99,4.77-1.61-.29.94-.43,2.35.09,3.23"/>
    <path class="st1" d="M326.14,300.7c-.87,1.13.63,2.47,1.97,3.23-1.05.61-3.96,1.67-5.2.79-.7-.61-1.17-2.65-.33-3.28.36-.27,3.63-2.24,3.57-.75"/>
    <path class="st5" d="M350.13,286.41l.04,55.86h-5.34s0-55.86,0-55.86c1.23-.5,4.11-.72,5.3,0"/>
    <path class="st5" d="M344.43,299.07c-1.53-.18-3.45,1.95-5.58.07-1.42-1.25-1.26-3.41.36-4.43.57-.36,2.57-1.24,3.16-1.48l2.06-.8v6.64Z"/>
    <path class="st5" d="M344.46,323.85v6.75s-2.68-1-2.68-1c-.86-.34-1.73-.49-2.32-1.26-1.42-1.82-.42-4.25,1.9-4.73,1.16-.23,2.15.18,3.1.24"/>
    <path class="st5" d="M340.04,308.46c.4-.47,1.61-.68,2.2-.79.59-.11,1.61-.28,2.18-.29l.05,6.7c-.7.03-1.97-.03-2.59-.15-2.64-.5-4.23-3.11-1.85-5.47"/>
    <path class="st5" d="M335.65,313.61s.05.04.08.06c-1.15.05-2.38,0-3.54-.03-3.8-.08-3.48-3.84-1.11-4.26,1.01-.23,2.91-.54,3.88-.54-.18.37-.57.46-.9.89-.27.35-.48.83-.48,1.39,0,1.62,1.12,1.74,2.06,2.5"/>
    <path class="st5" d="M333.46,300.07c.48.82,1.87,1.2,1.87,1.33,0,.29-3.99,1.51-5.2.89-1.1-.56-2.17-2.68.17-3.7.34-.15.75-.34,1.08-.48.95-.4.97-.4,2.01-.74-.28.89-.41,1.86.08,2.69"/>
    <path class="st5" d="M325.53,301.02c-.82,1.07.52,2.3,1.45,2.75-.99.57-2.52.94-3.54.34-.66-.58-.99-1.84-.19-2.44.34-.26,2.39-1.49,2.29-.64"/>
    <path class="st1" d="M324.35,218.5c2.81-.43,4.46-.2,6.02.16,0,.14.24.65.24.79-.72-.08-1.44-.42-2.1-.41-1.34,0-2.64.08-4.15-.13-.49-.08-1.01-.29-1.01-.3,0-.03.83-.08,1.01-.12"/>
    <path class="st5" d="M347.41,234.29c-.11.23-.15.48-.14.74l-.7.1h-.4s-.09.01-.13.02c-.59.05-1.04.19-1.74-.28-.37-.25-.62-.61-.83-.91l-.58-1.03c.68-.35.85-.06,1.19-.54-.63-.69-.93-.69-1.77-.9.62-.29.89-.1,1.49-.26.37-.66.25-1.26-.04-1.87l.44.29c.12.23.29.95.42,1.18-.14,1.09.22,1.61,1.63,2.31.22.11.41.18.59.21.37.12.56.22.82.51l-.24.43Z"/>
    <path class="st6" d="M345.26,233.62c-.72,1.32-1.39-.54,0,0"/>
    <path class="st3" d="M345.26,233.62c-1.39-.54-.72,1.32,0,0"/>
    <path class="st1" d="M344.23,233.68s.13-.24.52-.27c.15-.01.36.07.6.11.84.15,1.05.29,1.05.29,0,0-.56.61-1.23.49-.68-.12-.93-.62-.93-.62"/>
    <path class="st5" d="M345.8,233.43c.24.02.27.27.19.58-.08.31-.23.55-.47.53-.24-.02-.37-.29-.29-.59.08-.31.33-.54.57-.51"/>
  </g>
</svg>