<?xml version="1.0" encoding="UTF-8"?>
<svg id="Layer_1" xmlns="http://www.w3.org/2000/svg" version="1.1" viewBox="0 0 1080 1080">
  <!-- Generator: Adobe Illustrator 29.0.1, SVG Export Plug-In . SVG Version: 2.1.0 Build 192)  -->
  <defs>
    <style>
      .st0 {
        fill: #12100b;
      }
    </style>
  </defs>
  <g>
    <path class="st0" d="M625.39,400.96c-.56,11.01-4.89,19.89-15.31,25.01-2.3,1.13-3.64,2.8-4.66,5.09-8.59,19.12-22.53,32.92-41.58,41.61-5.29,2.41-10.78,4.19-16.5,5.16-3.21.54-5.64,1.9-7.52,4.65-2.1,3.08-4.54,5.94-6.91,8.84-.95,1.17-2.07,1.2-3.03.04-2.28-2.74-4.62-5.47-6.63-8.41-2.07-3.03-4.79-4.42-8.32-5.21-25.24-5.64-43.94-19.89-55.82-42.96-.39-.76-.83-1.5-1.11-2.29-1.19-3.36-3.35-5.51-6.63-7.21-11.85-6.18-15.15-18.59-13.82-28.42,1.47-10.97,6.43-20.02,16.07-25.99,2.06-1.28,3-3.12,3.91-5.15,5.91-13.18,14.89-23.91,26.46-32.45,7.59-5.61,15.95-9.84,25.1-12.15,4.32-1.09,7.68-3.15,10.72-6.34,2.8-2.94,6.07-5.44,9.22-8.03,1.88-1.55,2.61-1.52,4.49-.06,3.9,3.02,7.7,6.17,11.08,9.78,1.91,2.05,4.11,3.31,6.89,4.02,13.43,3.46,25.28,9.94,35.39,19.44,5.98,5.62,10.96,12.09,14.95,19.28,1.24,2.23,2.39,4.51,3.41,6.85.99,2.26,2.48,3.88,4.55,5.29,10.36,7.04,15.1,17.13,15.62,29.63ZM473.12,369.23c-1.87.1-3.74.11-5.6.33-7.75.9-14.38,4.04-19.37,10.15-5.39,6.6-8.02,14.27-7.39,22.75,1.23,16.69,13.61,23.56,25.36,22.94,4.13-.22,7.7-1.73,10.42-4.72,5.34-5.88,6.9-12.72,4.37-20.36-.54-1.64-1.44-3.1-2.72-4.26-2.82-2.58-6.16-2.76-9.55-1.59-3.05,1.05-4.8,4.15-4.78,7.72.01,1.73.53,3.33,1.09,4.95.53,1.54-.36,2.59-2.04,2.67-2.34.11-4.37-.77-6.08-2.24-4.44-3.8-6.58-8.73-5.91-14.49.92-7.96,5.42-13.48,12.84-16.39,5.99-2.35,12.18-3,18.49-1.17,4.95,1.44,9.51,3.63,13.61,6.79,6.6,5.09,11.43,11.61,15.1,19.01,2.43,4.9,4.13,10.07,4.87,15.52.38,2.79-.41,3.72-3.27,3.88-2.04.11-4.08.01-6.12.11-2.81.13-3.66,1.11-3.43,3.8.14,1.65.86,2.41,2.57,2.56,1.18.1,2.38.07,3.57.1,1.19.02,2.38-.02,3.57.07,2.78.21,3.47,1.03,3.41,3.92-.01.68-.04,1.37-.17,2.03-1.06,5.19-2.56,10.24-5.44,14.75-.91,1.42-1.98,2.78-3.16,3.98-1.98,2.01-4.51,3.05-7.31,3.22-4.67.28-8.31-3.33-8.02-7.85.08-1.23.84-2.4,1.56-2.35,1.16.07,1.04,1.14,1.39,1.84.15.3.29.62.5.88.95,1.21,2.29,1.65,3.6,1.2,1.52-.52,2.44-1.96,2.21-3.59-.28-2-1.33-3.45-3.16-4.33-3.07-1.49-7.23-.35-9.46,2.8-2.45,3.46-2.88,7.31-1.12,11.13,1.69,3.64,4.7,5.74,8.81,6.03,5.64.39,10.33-1.66,14.15-5.71,1.75-1.86,3.16-3.99,4.38-6.25,3.03-5.6,4.91-11.58,5.8-17.86.5-3.51,1.86-3.99,4.78-3.77,1.57.12,2.41,1.08,2.4,2.71,0,.68-.14,1.35-.2,2.03-.49,5.97-1.98,11.73-3.81,17.41-1.88,5.83-3.84,11.63-5.85,17.41-.61,1.76-.51,3.29.65,4.78,3.65,4.71,7.23,9.46,10.91,14.14,1.29,1.64,2.21,1.58,3.64-.22,3.07-3.86,6.08-7.77,9.07-11.69,3.36-4.41,3.39-4.45,1.53-9.7-2.33-6.57-4.74-13.12-6.54-19.86-1.19-4.44-2.15-8.93-2.3-13.55-.09-2.9.72-3.67,3.55-3.5,2.06.13,2.75.6,3.26,2.56.39,1.48.63,2.99.87,4.5.89,5.62,2.92,10.82,5.69,15.75,1.61,2.86,3.79,5.24,6.3,7.3,3.62,2.95,7.83,4.03,12.42,3.45,4.96-.62,8.4-4.21,8.86-9.09.52-5.51-1.7-9.22-6.22-11.07-3.43-1.4-7.28,1.03-8.27,3.95-.52,1.54.05,3.15,1.43,3.98,1.37.82,3.04.53,4.11-.78.31-.38.53-.87.72-1.33.32-.76.48-1.8,1.62-1.44.9.28,1.09,1.25,1.28,2.07.36,1.59-.08,3.03-.92,4.38-1.83,2.95-5.36,4.34-8.89,3.39-3.05-.82-5.65-2.42-7.45-5.06-3.7-5.44-5.89-11.47-6.81-17.97-.07-.5-.06-1.02-.04-1.53.07-1.97.78-2.87,2.71-3,2.37-.17,4.76-.07,7.14-.2,2.65-.14,3.53-1.31,3.19-4.02-.17-1.34-.9-2.15-2.3-2.29-1.35-.13-2.72-.09-4.08-.14-1.36-.04-2.72-.02-4.07-.16-1.61-.17-2.4-1.13-2.38-2.73,0-.51.05-1.02.15-1.52,2.84-14.21,9.46-26.14,21.2-34.93,3.57-2.67,7.57-4.52,11.86-5.79,6.84-2.04,13.44-1.27,19.93,1.42,3.06,1.27,5.64,3.19,7.65,5.78,5.93,7.65,5.69,15.99.15,22.97-1.74,2.19-3.97,3.7-6.87,3.99-2.86.29-3.78-.86-2.78-3.5.3-.79.71-1.56.93-2.37,1.19-4.42-1.87-9.14-6.4-9.92-4.77-.82-8.55,1.31-10.6,5.97-3.6,8.16.09,19.25,7.92,23.54,1.32.72,2.8,1.36,4.27,1.59,11.27,1.73,23.13-3.74,26.61-16.23,3.16-11.36.45-21.55-7.33-30.35-4.47-5.05-10.26-7.86-16.83-8.84-11.29-1.68-21.65.8-30.83,7.67-12.4,9.28-19.82,21.71-22.96,36.8-.31,1.5-.59,3-.97,4.48-.34,1.32-1.33,1.86-2.63,2.01-3.78.44-5.03-.77-4.52-4.59.27-2.02.69-4.02,1.13-6.01,1.08-4.83,2.73-9.48,4.57-14.06,3.05-7.57,6.22-15.1,9.21-22.69,2.56-6.5,4.39-13.2,5.3-20.17,1.17-8.97-.72-17.23-5.22-24.96-4.09-7.04-9.85-12.54-16.26-17.41-1.8-1.36-2.31-1.36-4.08-.05-4.66,3.47-8.97,7.34-12.53,11.93-6.02,7.75-9.47,16.39-9.08,26.44.22,5.49,1.05,10.82,2.67,16.04,2.88,9.27,6.79,18.15,10.47,27.12,2.97,7.24,5.9,14.51,7.01,22.33.17,1.17.3,2.36.25,3.54-.03.62-.35,1.37-.78,1.8-1.65,1.65-5.7.75-6.4-1.42-.42-1.29-.67-2.64-.92-3.97-2.56-13.3-8.66-24.67-18.77-33.7-7.95-7.11-17.03-11.81-28.08-11.61ZM553.52,326.05c.48,2.51,2.35,2.94,4.03,3.61,4.27,1.69,8.4,3.65,12.32,6.06,10.79,6.61,19.28,15.47,25.65,26.37.85,1.45,1.42,3.11,2.84,4.17.2.15.6.06.89.01.08-.01.2-.31.16-.43-.2-.64-.37-1.31-.68-1.89-8.26-15.5-20.24-27.09-36.27-34.39-2.91-1.32-5.96-2.35-8.94-3.51ZM464.2,366.18c.27-.17.65-.28.81-.53,1.08-1.72,2.11-3.48,3.17-5.22,8.38-13.8,20.11-23.7,34.94-29.99,1.4-.6,2.85-1.11,4.24-1.72.45-.19.82-.56,1.2-.9.09-.08.07-.35.01-.49-.06-.14-.25-.34-.36-.32-.82.1-1.68.13-2.46.39-10.16,3.38-18.94,9.07-26.68,16.37-5.84,5.51-10.62,11.89-14.38,18.99-.47.88-.75,1.87-1.09,2.82-.04.11.08.32.18.42.1.1.28.11.43.16ZM485.03,458.2c-.47-2.2-1.93-3.55-3.36-4.93-3.42-3.3-6.76-6.66-9.6-10.51-2.22-3.01-4.26-6.12-5.98-9.45-.62-1.2-1.33-2.36-2.06-3.49-.13-.21-.63-.33-.89-.25-.21.07-.5.55-.43.74.31.96.65,1.92,1.11,2.82,2.46,4.86,5.38,9.46,8.92,13.59,2.86,3.34,6.11,6.35,9.25,9.45.81.8,1.51,1.83,3.06,2.02ZM577.8,458.56c9.44-7.94,16.87-16.33,21.68-26.83.21-.45.31-.95.42-1.44.03-.13-.07-.41-.15-.43-.28-.07-.72-.18-.85-.04-.46.48-.88,1.02-1.19,1.61-4.46,8.45-10.13,15.96-17.27,22.34-1.13,1.01-2.22,2.09-2.63,4.79ZM567.79,465.07c-1.51-.74-2.39-.62-3.14-.29-4.65,2.09-9.42,3.83-14.27,5.4-.45.15-.83.56-1.2.89-.1.08-.11.32-.08.47.03.14.15.33.27.36.31.09.67.22.97.15,5.91-1.53,11.59-3.64,17.45-6.98ZM494.49,465c6.08,3.28,11.7,5.5,17.61,7.03.3.08.67-.01.99-.08.14-.03.29-.19.35-.33.06-.14.06-.37-.02-.49-.49-.77-1.31-1.06-2.11-1.31-4.21-1.31-8.37-2.77-12.36-4.68-1.07-.51-2.2-.87-4.45-.14ZM604.67,385.26c-.14.13-.37.25-.36.34.76,5.21.7,10.46.81,15.71.01.49.18,1.01,1.17.75,1-4.76.47-9.63-.05-14.49-.1-.92-.37-2.05-1.58-2.31ZM458.09,385.43c-.17.03-.44,0-.48.1-2.67,5.24-2.08,10.72-1.18,16.23.02.11.31.28.37.24.24-.14.57-.31.63-.54.12-.48.1-1,.11-1.51.02-4.56-.05-9.12.88-13.62.06-.27-.2-.6-.31-.91Z"/>
    <path class="st0" d="M711.59,397.95c0-5.95-.02-11.9,0-17.85.01-2.74-.37-5.42-.9-8.09-.45-2.29-1.9-3.55-4.06-4.06-1.31-.31-2.68-.41-4.01-.66-.56-.1-.81-.55-.82-1.11-.01-.63.45-.93.94-1,1-.15,2.02-.26,3.03-.27,6.29-.02,12.58,0,18.86,0,.68,0,1.36.02,2.04.09.66.07,1.44.14,1.63.92.28,1.18-.69,1.36-1.49,1.58-.65.18-1.34.23-1.99.43-1.99.62-3.12,2.04-3.39,4.05-.21,1.51-.25,3.05-.3,4.57-.79,20.38-.92,40.78-1.06,61.17-.01,1.86.09,3.75-.6,5.54-.54,1.42-1.97,2.13-3.28,1.43-1.03-.55-2.02-1.25-2.88-2.05-1.87-1.73-3.65-3.56-5.46-5.36-9.13-9.13-18.32-18.22-27.37-27.43-5.83-5.94-11.45-12.09-17.18-18.13-.82-.86-1.68-1.68-2.58-2.46-.19-.17-.69-.19-.92-.06-.23.13-.42.56-.4.84.83,10.86.5,21.74.69,32.62.07,4.09.5,8.14.91,12.2.1,1,.33,2.02.67,2.97.48,1.34,1.4,2.32,2.82,2.72.82.23,1.66.39,2.46.67,1.13.4,3.16-.13,2.93,1.82-.17,1.45-1.91,1.09-3.03,1.1-7.14.04-14.27.02-21.41,0-.67,0-1.36-.1-2.01-.25-.48-.11-.97-.36-1-.99-.03-.55.21-.99.74-1.15.98-.28,1.97-.52,2.95-.75,2.69-.63,3.96-2.45,4.21-5.09.1-1.01.15-2.03.17-3.05.32-16.48.64-32.96.94-49.44.08-4.76.06-9.52.11-14.28.02-1.52-.02-3.06.71-4.49.57-1.13,1.95-1.6,3-.86.82.58,1.58,1.28,2.27,2.01,4.22,4.42,8.38,8.91,12.64,13.31,12.42,12.81,24.87,25.59,37.31,38.39.71.73,1.41,1.48,2.15,2.18.6.57,1.19,1.58,2.02,1.29,1.34-.47.53-1.72.51-2.64-.16-6.8-.34-13.59-.52-20.39-.03,0-.05,0-.08,0Z"/>
    <path class="st0" d="M773.2,475.48c-62.23,0-124.45,0-186.68,0-2.03,0-4.07-.09-6.1-.25-.4-.03-.99-.51-1.08-.88-.09-.36.22-.99.55-1.27,3.03-2.62,6.31-4.6,10.59-4.04,1.34.17,2.72.03,4.08.03,121.73,0,243.46,0,365.2,0,2.21,0,4.42,0,6.62.15,1.59.1,2.43,1.11,2.54,2.65.12,1.77-.72,3-2.42,3.33-.99.19-2.02.25-3.04.28-1.7.05-3.4.02-5.1.02-61.72,0-123.43,0-185.15,0Z"/>
    <path class="st0" d="M781.8,335.53c59.54,0,119.07,0,178.61,0,2.04,0,4.08.02,6.11.21,1.57.15,2.34,1.19,2.42,2.79.09,1.89-.72,3.13-2.4,3.31-1.68.19-3.39.19-5.09.19-21.94.01-43.89,0-65.83,0-95.77,0-191.53,0-287.3,0-1.87,0-3.75-.12-5.61.01-3.3.23-5.46-1.44-7.15-4.01-.63-.97-.15-2.17,1.03-2.27,2.03-.16,4.07-.24,6.11-.24,58.68-.01,117.37,0,176.05,0,1.02,0,2.04,0,3.06,0Z"/>
    <path class="st0" d="M298.11,475.48c-59.33,0-118.66,0-177.99,0-2.04,0-4.09.01-6.11-.18-2.09-.2-3.06-1.44-2.95-3.4.1-1.72,1.02-2.64,2.99-2.76,1.86-.11,3.74-.09,5.61-.09,72.93,0,145.86,0,218.79,0,43.35,0,86.7,0,130.05,0,1.53,0,3.07.13,4.59-.02,4.15-.41,7.13,1.72,9.91,4.35.21.2.41.73.29.89-.26.39-.69.89-1.09.92-2.03.17-4.06.28-6.1.28-47.6.01-95.2.01-142.8.01-11.73,0-23.46,0-35.19,0Z"/>
    <path class="st0" d="M289.83,335.53c56.79,0,113.57,0,170.36.01,2.03,0,4.07.14,6.09.31.83.07,1.29,1.3.84,2.01-1.53,2.39-3.38,4.26-6.52,4.15-1.36-.05-2.72.02-4.08.02-112.38,0-224.77,0-337.15,0-1.87,0-3.74,0-5.6-.16-1.8-.16-2.64-1.28-2.63-3.12,0-1.78.88-2.87,2.73-3.05,1.86-.18,3.73-.17,5.6-.17,30.6,0,61.21,0,91.81,0,26.18,0,52.37,0,78.55,0Z"/>
    <path class="st0" d="M776.49,445.22c-7.18.32-13.9-1.18-20.21-4.5-7.42-3.91-12.45-9.94-15.33-17.7-3.62-9.73-3.16-19.31,1.58-28.63,3.87-7.61,9.74-13.13,17.7-16.05,13.39-4.9,26.74-4.69,39.46,2.11,9.53,5.1,14.64,13.46,15.52,24.24.58,7.03-.13,13.87-3.28,20.38-4.41,9.1-11.48,14.98-20.94,18.2-4.72,1.6-9.59,2.2-14.5,1.96ZM753.82,407.5c0,1.7-.09,3.4.02,5.09.42,6.45,2.54,12.32,6.53,17.39,5.59,7.1,13.19,10.18,22,9.36,7.99-.74,13.51-5.4,16.02-13.05,3.23-9.83,3.25-19.72-.67-29.43-3.45-8.53-9.71-13.69-18.77-15.5-11.02-2.2-20.9,3.75-24.07,14.53-1.12,3.82-1.14,7.71-1.07,11.62Z"/>
    <path class="st0" d="M883.78,376.33c3.91,0,7.82.04,11.73-.01,3.26-.05,6.44.54,9.59,1.24,2.68.6,5.13,1.78,7.25,3.59,5.62,4.79,7.24,11.64,4.32,18.44-1.15,2.69-2.83,5.03-4.81,7.16-.58.62-1.18,1.23-1.79,1.82-4.17,4.07-4.54,3.76-.59,8.58,4.52,5.52,8.98,11.1,13.93,16.27,3.59,3.74,7.36,7.08,12.68,8.03.69.12,1.41.52,1.41,1.25,0,1.04-.9,1.39-1.78,1.39-4.42,0-8.85.15-13.25-.14-3.46-.23-6.61-1.68-9.09-4.19-2.03-2.05-4.05-4.14-5.8-6.42-3.21-4.18-6.21-8.51-9.3-12.78-1-1.38-1.88-2.96-3.63-3.43-2.31-.62-4.84-1.11-6.93.2-1.8,1.13-1.09,3.41-1.12,5.23-.05,3.4,0,6.8.09,10.2.03,1.35.18,2.72.41,4.05.38,2.21,1.59,3.67,3.92,4.12,1.15.22,2.27.64,3.38,1.06.22.08.41.55.39.83-.02.29-.24.71-.48.81-.61.25-1.28.51-1.93.51-7.65.03-15.3.03-22.95,0-.65,0-1.32-.23-1.94-.47-.24-.1-.48-.5-.51-.79-.03-.28.12-.76.33-.86.91-.43,1.87-.78,2.83-1.11,1.84-.63,2.71-1.96,2.82-3.83.11-1.7.22-3.4.23-5.09.03-14.97.04-29.93.06-44.9,0-.51,0-1.02-.03-1.53-.21-4.33-.59-4.8-4.72-5.96-.65-.18-1.35-.3-1.93-.61-.4-.21-.89-.72-.89-1.1,0-.72.59-1.21,1.31-1.29,1.35-.14,2.7-.23,4.06-.24,4.25-.03,8.5-.01,12.75-.01ZM886.62,396.48s-.04,0-.06,0c0,2.54-.01,5.09,0,7.63.04,6.45.55,6.94,6.92,6.92,5.69-.02,9.59-3.02,11.04-8.53.88-3.33.97-6.61.2-10.05-1.77-7.93-8.2-10.52-14.27-10.41-2.58.05-3.72,1.14-3.81,3.75-.13,3.56-.03,7.12-.03,10.69Z"/>
    <path class="st0" d="M228.15,376.13c0,2.55.03,5.1-.01,7.65-.02,1.02-.29,2.01-1.02,2.8-.37.39-1.64.4-1.83-.09-.43-1.1-.9-2.21-1.13-3.35-1.18-5.93-4.8-9.61-10.43-11.45-7.6-2.48-15.31-2.99-23.11-1.06-6.08,1.5-10.71,4.97-14,10.3-1.99,3.23-3.42,6.72-4.02,10.41-1.21,7.42-1.55,14.91.59,22.25,3.75,12.82,12.05,21.05,25.08,24.24,5.55,1.36,11.16,1.04,16.64-.49,4.51-1.25,7.77-4.07,9.68-8.39.55-1.24,1.08-2.5,1.75-3.67.19-.33.93-.57,1.33-.48.41.09.87.59,1.02,1.01.22.62.33,1.35.23,1.99-.56,3.52-1.17,7.04-1.82,10.55-.56,2.98-2.43,4.78-5.31,5.56-.66.18-1.31.42-1.97.51-6.9.94-13.76,2.02-20.79,1.2-5.76-.67-11.46-1.44-16.92-3.49-4.82-1.81-9.29-4.23-13.11-7.71-12.09-11.02-15.58-24.8-12.18-40.39,3.62-16.63,16.95-27.3,33.02-29.98,12.14-2.02,24.05-.62,35.91,1.95,2.39.52,2.86,1.18,2.82,3.49-.04,2.21-.2,4.42-.31,6.62-.03,0-.06,0-.09,0Z"/>
    <path class="st0" d="M373.14,410.19c0-6.97,0-13.94,0-20.9,0-1.19.01-2.38-.04-3.57-.19-4.57-.47-4.91-5.04-6.21-1.92-.54-2.8-1.23-2.47-1.93.52-1.13,1.6-1.15,2.6-1.2,1.53-.07,3.06-.04,4.59-.04,11.89-.02,23.78.35,35.67-.16.5-.02,1.02,0,1.52.06.78.11,1.29.72,1.24,1.39-.28,3.71.09,7.5-1.27,11.08-.15.4-.66.76-1.08.92-.52.19-.95-.15-1.21-.65-.08-.15-.17-.3-.2-.46-.81-4.43-3.99-5.54-7.88-5.6-3.06-.05-6.12-.12-9.17-.02-1.94.07-2.91.93-2.95,2.82-.11,5.43-.11,10.87,0,16.3.04,1.86,1.03,2.74,3,2.77,4.41.07,8.83.05,13.24-.14,1.3-.06,2.56-.84,3.85-1.24,1.11-.35,2.03.26,2.21,1.41.05.33.16.68.12,1.01-.37,3.54-.75,7.08-1.16,10.62-.09.73-.63,1.31-1.32,1.36-.72.05-1.16-.58-1.43-1.24-.06-.16-.14-.32-.16-.48-.52-3.56-2.82-4.75-6.13-4.72-2.89.03-5.78-.14-8.66-.05-2.57.08-3.55.89-3.6,3.31-.12,5.94-.16,11.9.04,17.84.11,3.29,1.36,4.4,4.62,5.12,4.03.89,8.03.99,12.13.16,2.94-.6,5.07-1.82,5.95-4.8.1-.33.21-.65.34-.96.39-.93.74-2.07,2.06-1.69.9.26,1.17,1.26,1.15,2.1-.08,3.06-.45,6.09-1.28,9.04-.46,1.61-1.59,2.63-3.26,2.84-1.85.23-3.73.56-5.57.41-10.35-.82-20.71-.58-31.07-.56-1.52,0-3.05-.09-4.57-.22-.49-.04-.97-.34-1.06-.93-.09-.54.08-.98.61-1.23.15-.07.3-.19.46-.21,4.4-.61,5.15-3.63,5.11-7.41-.09-7.99-.03-15.97-.03-23.96.04,0,.07,0,.11,0Z"/>
    <path class="st0" d="M242.7,444c-3.4,0-6.79.02-10.19-.02-.76,0-1.29-.58-1.19-1.32.05-.38.6-.96.96-1,5.87-.52,8.16-4.73,10.18-9.47,7.31-17.21,14.73-34.38,22.1-51.57.74-1.72,1.32-3.51,2.62-4.92,1.19-1.3,2.95-1.32,3.91.15.92,1.42,1.68,2.96,2.34,4.51,6.44,15,12.84,30.01,19.26,45.02,1.2,2.81,2.37,5.65,3.68,8.41,1.8,3.8,4.06,7.16,8.8,7.6.32.03.64.21.95.35.52.24.76.68.62,1.21-.08.29-.32.63-.58.76-.45.21-.96.38-1.45.39-6.29,0-12.58-.02-18.87-.06-.5,0-1.02-.14-1.48-.33-.65-.27-1.31-.84-.97-1.54,1.2-2.49.09-4.63-.79-6.83-1.33-3.31-2.67-6.62-3.99-9.94-.77-1.94-2.12-3-4.27-2.99-5.27.02-10.54,0-15.81,0-1.85,0-3.32.65-4.08,2.46-1.44,3.45-2.9,6.9-4.3,10.36-.25.62-.34,1.32-.41,1.99-.22,2.11.35,3.11,2.32,3.99.61.27,1.3.38,1.92.65.51.22.75.7.52,1.24-.12.29-.38.68-.62.72-1.17.18-2.35.32-3.53.34-2.55.05-5.1.01-7.65.01,0-.05,0-.11,0-.16ZM266.29,416.06s0-.02,0-.04c1.86,0,3.71.06,5.57-.02,1.91-.08,2.53-.86,1.89-2.58-1.93-5.22-3.97-10.4-5.98-15.6-.24-.62-.5-1.39-1.27-1.43-.77-.05-1.11.67-1.36,1.29-1.88,4.7-3.82,9.38-5.6,14.12-1.43,3.8-1.09,4.19,3.2,4.26,1.18.02,2.36,0,3.54,0Z"/>
    <path class="st0" d="M332.63,376.21c6.63,0,13.26,0,19.89,0,.51,0,1.02,0,1.52.09.76.13,1.34.74,1.26,1.38-.45,3.7-.08,7.48-1.09,11.11-.11.39-.69.84-1.1.88-.4.05-.9-.33-1.26-.63-.23-.2-.34-.59-.39-.92-.6-3.73-3.15-5.04-6.54-5.15-3.74-.11-7.48-.15-11.22-.08-2.39.05-3.25.78-3.29,2.98-.11,5.27-.11,10.54,0,15.81.05,2.29.85,3.06,3.17,3.11,4.42.09,8.84.04,13.26-.06.98-.02,1.97-.43,2.92-.76,2.93-1.03,3.37-.79,3.23,2.06-.16,3.06-.38,6.11-.66,9.15-.06.64-.44,1.27-.73,1.87-.25.51-1.51.56-1.79.05-.56-1.05-1.01-2.15-1.58-3.19-.79-1.42-2.02-2.31-3.67-2.43-3.9-.3-7.81-.41-11.71-.07-1.34.11-2.15.96-2.35,2.29-.12.84-.19,1.69-.18,2.54.03,5.78.06,11.57.13,17.35.01,1.02.1,2.04.26,3.04.37,2.22,1.55,3.72,3.87,4.18,1.33.27,2.65.58,3.97.92.54.14.77.61.74,1.16-.03.61-.5.92-.99.99-1,.15-2.02.26-3.03.26-7.14.02-14.28.02-21.43-.01-1.01,0-2.04-.12-3.01-.36-.36-.09-.67-.69-.84-1.12-.07-.18.29-.55.49-.8.1-.12.28-.22.44-.24,4.38-.49,5.28-3.68,5.58-7.28.14-1.69.16-3.4.17-5.1.02-13.61.02-27.22.02-40.82,0-1.36.01-2.73-.14-4.08-.33-2.84-1.28-3.89-3.94-4.6-.16-.04-.34-.04-.5-.09-1.32-.43-3.67-.01-3.33-2.06.29-1.76,2.52-1.24,3.97-1.25,6.63-.05,13.26-.02,19.9-.02,0-.04,0-.08,0-.11Z"/>
    <path class="st0" d="M779.15,466.61c-60.73,0-121.46,0-182.18-.01-1.86,0-3.73-.15-5.58-.3-.61-.05-.83-1.17-.43-1.68.66-.86,1.52-1.4,2.57-1.47,1.86-.11,3.74-.16,5.61-.16,44.4,0,88.8,0,133.19,0,76.21,0,152.41,0,228.62.01,2.03,0,4.07.11,6.1.26.71.05,1.23.58,1.3,1.34.1,1.02-.52,1.68-1.42,1.76-2.03.18-4.07.25-6.11.25-48.82.01-97.64,0-146.46,0-11.74,0-23.47,0-35.21,0Z"/>
    <path class="st0" d="M785.38,344.47c58.48,0,116.96,0,175.44,0,2.04,0,4.08.06,6.1.23.91.08,1.54.73,1.41,1.75-.09.74-.6,1.28-1.32,1.35-1.51.16-3.04.28-4.56.28-9.69.02-19.38.01-29.07.01-107.27,0-214.54,0-321.81,0-2.04,0-4.08-.03-6.12-.12-1.05-.04-1.96-.44-2.57-1.4-.34-.53-.11-1.59.46-1.73.65-.16,1.33-.31,1.99-.33,1.7-.05,3.4-.04,5.1-.04,58.31,0,116.62,0,174.93,0Z"/>
    <path class="st0" d="M292.2,466.61c-57.66,0-115.32,0-172.98,0-2.04,0-4.08-.05-6.11-.21-.91-.07-1.56-.72-1.5-1.72.06-1.01.8-1.43,1.71-1.54.67-.08,1.36-.12,2.03-.13,1.19-.02,2.38-.02,3.57-.02,27.9,0,55.79,0,83.69,0,86.75,0,173.49,0,260.24,0,2.04,0,4.08.04,6.12.14,1.06.05,1.93.57,2.62,1.4.42.5.25,1.59-.33,1.72-.65.15-1.32.3-1.99.33-1.7.05-3.4.04-5.1.04-57.32,0-114.64,0-171.96,0Z"/>
    <path class="st0" d="M286.22,344.47c55.61,0,111.22,0,166.83,0,1.87,0,3.74.08,5.59.23.4.03.93.45,1.11.83.33.71-.1,1.4-.69,1.72-.72.39-1.57.7-2.38.75-2.03.12-4.08.09-6.12.09-98.64,0-197.27,0-295.91,0-12.24,0-24.49.01-36.73-.02-1.69,0-3.38-.18-5.06-.38-.73-.09-1.17-.76-1.2-1.46-.03-.7.34-1.32,1.12-1.48.66-.13,1.34-.24,2.01-.26,1.7-.04,3.4-.03,5.1-.03,55.44,0,110.88,0,166.32,0Z"/>
    <path class="st0" d="M838.96,444.17c-3.23,0-6.46.03-9.68-.01-1.18-.01-2.38-.11-3.53-.33-.36-.07-.69-.68-.86-1.11-.07-.18.27-.59.51-.79.25-.21.58-.38.91-.43,3.52-.61,4.68-3.01,4.75-6.24.04-1.7.11-3.4.11-5.1.02-13.94.02-27.87.02-41.81,0-.85,0-1.7-.03-2.55-.18-4.5-.48-4.85-4.97-6.34-.63-.21-1.27-.51-1.75-.95-.38-.34-.29-1.05.13-1.34.53-.37,1.21-.68,1.84-.72,1.69-.12,3.39-.1,5.09-.1,5.1-.01,10.19-.04,15.29,0,1.35.01,2.7.17,4.02.43.36.07.83.71.84,1.11,0,.38-.42.92-.8,1.14-.57.33-1.26.52-1.92.63-2.64.43-3.67,2.22-3.92,4.63-.12,1.18-.16,2.37-.16,3.56,0,14.62,0,29.23.03,43.85,0,1.69.16,3.4.41,5.07.33,2.22,1.54,3.73,3.89,4.12.84.14,1.67.31,2.49.53.92.23,2.32.13,2.05,1.59-.23,1.27-1.55,1.12-2.51,1.14-4.08.05-8.15.02-12.23.02v.02Z"/>
    <path class="st0" d="M137.3,405.53c-.07.16-.09.35-.2.46-.36.35-.71.75-1.14.98-4.18,2.18-7.49,5.18-9.59,9.5-.82,1.69-2.22,1.73-3.05.12-2.26-4.41-5.75-7.48-9.99-9.85-1.11-.62-1.06-1.7-.06-2.47.4-.31.83-.6,1.27-.85,3.63-2.05,6.52-4.79,8.52-8.52,1.1-2.06,2.34-2.15,3.34-.29,2.25,4.2,5.52,7.25,9.74,9.37.79.4,1.24,1.15,1.18,1.55Z"/>
    <path class="st0" d="M967.56,405.4c-.14.3-.2.69-.42.87-.65.53-1.34,1.05-2.07,1.46-3.33,1.89-5.95,4.47-7.77,7.86-.32.59-.71,1.16-1.19,1.63-.56.55-1.22.47-1.76-.12-.23-.25-.48-.5-.62-.8-2.04-4.11-5.2-7.08-9.23-9.18-.3-.15-.54-.4-.8-.62-.71-.58-.8-1.66-.12-2.19.67-.52,1.37-1,2.11-1.41,3.5-1.97,6.25-4.65,7.92-8.35.14-.31.33-.59.52-.87.59-.87,1.5-.95,2.08-.16.3.41.61.82.84,1.27,1.82,3.61,4.56,6.29,8.08,8.23.73.4,1.41.94,2.04,1.48.22.19.26.6.39.91Z"/>
    <path class="st0" d="M406.45,359.88c.06,1.23-.34,1.77-.95,2.09-.44.23-.96.34-1.46.39-6.32.62-12.13,2.84-17.81,5.51-2.45,1.15-3.86,1.2-4.02.26-.28-1.67,1.07-2.39,2.07-3.18,4.36-3.47,8.77-6.87,13.21-10.25.93-.71,1.99-1.29,3.06-1.76.99-.44,2.07-.32,2.76.59,1.53,2.04,2.64,4.3,3.14,6.35Z"/>
  </g>
  <g>
    <path d="M177.3,538.04v-7.57c0-5.13-.03-8.17-.09-9.11-.09-1.38-.7-2.19-1.85-2.45-.4-.09-.96-.13-1.68-.13-.49,0-.73-.13-.73-.39s.31-.39.95-.39c.86,0,2.03.02,3.5.06,1.48.04,2.37.06,2.69.06,6.79,0,10.38-.01,10.75-.04.75-.06,1.36-.14,1.85-.26.49-.11.72-.17.69-.17.17,0,.26.13.26.39,0,.03-.04.29-.13.77-.09.57-.15,1.25-.19,2.02s-.12,1.72-.24,2.84c-.06.32-.2.47-.43.47-.2,0-.32-.16-.37-.47-.04-.31-.08-.62-.11-.9-.03-.29-.09-.54-.17-.77-.35-.83-1.31-1.35-2.89-1.55-.98-.11-3.02-.17-6.13-.17-.2,0-.3.14-.3.43v10.88c0,.32.1.47.3.47,3.94,0,6.25-.03,6.91-.09.49-.03.86-.07,1.12-.13.43-.11.75-.29.95-.52.35-.37.58-.56.69-.56.2,0,.3.11.3.34,0,.03-.04.32-.13.86-.09.66-.16,1.42-.22,2.28-.12,1.63-.17,2.59-.17,2.88,0,.54-.13.82-.39.82s-.39-.15-.39-.45-.06-.8-.17-1.48c-.23-.97-1.04-1.53-2.42-1.68-.81-.09-2.85-.13-6.13-.13-.17,0-.26.14-.26.43v10.06c.06,1.52.4,2.5,1.01,2.94.62.45,2.01.67,4.17.67,1.96,0,3.31-.17,4.06-.52,1.01-.46,1.65-1.52,1.94-3.18.09-.43.24-.65.47-.65s.34.26.34.77c0,1.75-.19,3.34-.56,4.77-.14.52-.34.83-.6.95s-.83.17-1.72.17c-2.49,0-4.97-.04-7.44-.13-2.47-.09-3.96-.13-4.47-.13-.26,0-1.07.02-2.43.06-1.36.04-2.36.06-2.99.06-.57,0-.86-.14-.86-.43,0-.2.31-.33.95-.39.43-.06.86-.1,1.29-.13.66-.14,1.07-.93,1.25-2.37.14-1.12.21-4.17.21-9.16Z"/>
    <path d="M202.67,536.75v-6.28c0-5.13-.03-8.17-.09-9.11-.09-1.38-.7-2.19-1.85-2.45-.4-.09-.96-.13-1.68-.13-.49,0-.73-.13-.73-.39s.31-.39.95-.39c.83,0,2,.02,3.5.06s2.43.06,2.77.06c.31,0,1.14-.02,2.47-.06,1.33-.04,2.27-.06,2.82-.06.63,0,.95.13.95.39s-.23.39-.69.39c-.34,0-.76.04-1.25.13-.97.17-1.5.99-1.59,2.45-.06.95-.09,3.99-.09,9.13v6.03c0,5.22,1.12,8.75,3.35,10.59,1.43,1.18,3.22,1.77,5.37,1.77,2.41,0,4.39-.77,5.93-2.33,1.06-1.06,1.78-2.58,2.15-4.56.23-1.32.34-3.36.34-6.11v-5.38c0-5.14-.03-8.18-.09-9.13-.09-1.38-.7-2.2-1.85-2.45-.4-.09-.92-.13-1.55-.13-.49,0-.73-.13-.73-.39s.3-.39.9-.39c1.26,0,2.91.04,4.94.13.09,0,.76-.02,2.02-.06s2.22-.06,2.88-.06c.6,0,.9.13.9.39s-.26.39-.77.39c-.34,0-.76.04-1.25.13-.97.17-1.5.99-1.59,2.45-.06.95-.09,3.98-.09,9.11v4.6c0,2.92-.23,5.29-.69,7.09-.63,2.49-1.76,4.44-3.4,5.85-2.41,2.06-5.39,3.09-8.94,3.09-4.19,0-7.37-.99-9.54-2.97-2.55-2.29-3.83-6.09-3.83-11.39Z"/>
    <path d="M241.1,538.04v-7.57c0-5.13-.03-8.17-.09-9.11-.09-1.38-.7-2.19-1.85-2.45-.4-.09-.96-.13-1.68-.13-.49,0-.73-.13-.73-.39s.31-.39.95-.39c.89,0,2.05.02,3.48.06,1.43.04,2.24.06,2.41.06.49,0,1.51-.02,3.07-.06,1.56-.04,2.56-.06,2.99-.06,3.47,0,6.1.62,7.91,1.85.72.49,1.35,1.22,1.89,2.19.69,1.15,1.03,2.38,1.03,3.7,0,3.35-1.89,6.56-5.68,9.63,3.12,3.96,4.84,6.1,5.16,6.45,1.66,2.09,3.05,3.71,4.17,4.86,1.58,1.63,3.18,2.61,4.81,2.92.34.03.67.06.99.09.49.06.73.19.73.39,0,.29-.27.43-.82.43h-4.08c-2.06,0-3.6-.27-4.6-.82-1.4-.75-3.37-2.85-5.89-6.32-1.23-1.75-2.65-3.73-4.26-5.93-.17-.2-.43-.3-.77-.3h-3.74c-.23,0-.34.11-.34.34v.6c0,4.84.07,7.89.21,9.14.17,1.45.73,2.23,1.68,2.35.86.11,1.56.17,2.11.17.34,0,.52.11.52.34,0,.29-.29.43-.86.43-.97,0-2.26-.02-3.85-.06-1.59-.04-2.41-.06-2.47-.06-.2,0-.96.02-2.28.06-1.32.04-2.31.06-2.97.06-.57,0-.86-.14-.86-.43,0-.2.31-.33.95-.39.43-.06.86-.1,1.29-.13.66-.14,1.07-.93,1.25-2.37.14-1.12.21-4.17.21-9.16ZM246.17,520.8v13.07c0,.43.13.69.39.77.8.29,1.89.43,3.27.43s2.39-.24,3.05-.73c1.69-1.23,2.54-3.38,2.54-6.45,0-2.72-.77-4.8-2.32-6.23-1.23-1.09-2.65-1.63-4.26-1.63-1.38,0-2.19.09-2.45.26-.14.09-.21.26-.21.52Z"/>
    <path d="M286.2,551.1c-5.67,0-10.1-1.86-13.28-5.59-2.69-3.12-4.04-6.88-4.04-11.26s1.35-8.05,4.04-11.18c3.24-3.78,7.81-5.67,13.71-5.67,5.33,0,9.56,1.45,12.68,4.34,3.12,2.9,4.69,6.81,4.69,11.74s-1.61,9.22-4.81,12.51c-3.3,3.41-7.62,5.12-12.98,5.12ZM288,548.96c2.41,0,4.44-.76,6.1-2.28,2.58-2.32,3.87-6.19,3.87-11.61,0-4.7-1.22-8.51-3.65-11.44-2.35-2.78-5.33-4.17-8.94-4.17-2.95,0-5.33.9-7.14,2.71-2.29,2.29-3.44,5.88-3.44,10.75,0,4.62,1.18,8.4,3.53,11.35,2.44,3.12,5.66,4.69,9.67,4.69Z"/>
    <path d="M313.41,538.04v-7.57c0-5.13-.03-8.17-.09-9.11-.09-1.38-.7-2.19-1.85-2.45-.4-.09-.96-.13-1.68-.13-.49,0-.73-.13-.73-.39s.31-.39.95-.39c.86,0,2.03.02,3.5.06,1.48.04,2.37.06,2.69.06.57,0,1.58-.02,3.03-.06s2.52-.06,3.2-.06c3.61,0,6.28.82,8,2.45,1.43,1.35,2.15,3.05,2.15,5.12,0,3.04-1,5.53-2.99,7.48-1.99,1.95-4.52,2.92-7.59,2.92-.46,0-.76-.01-.9-.04-.34-.06-.52-.19-.52-.39,0-.31.4-.47,1.2-.47,1.35,0,2.61-.63,3.78-1.89,1.32-1.43,1.98-3.17,1.98-5.2,0-2.78-.85-4.93-2.54-6.45-1.23-1.12-2.67-1.68-4.3-1.68-.8,0-1.34.05-1.61.15-.27.1-.41.38-.41.84v17.2c0,4.87.07,7.94.21,9.2.17,1.41.73,2.18,1.68,2.32.83.11,1.56.17,2.19.17.46,0,.69.11.69.34,0,.29-.27.43-.82.43-1.09,0-2.42-.02-3.98-.06-1.56-.04-2.46-.06-2.69-.06-.26,0-1.07.02-2.43.06-1.36.04-2.36.06-2.99.06-.57,0-.86-.14-.86-.43,0-.2.31-.33.95-.39.43-.06.86-.1,1.29-.13.66-.14,1.07-.93,1.25-2.37.14-1.12.21-4.17.21-9.16Z"/>
    <path d="M341.57,538.04v-7.57c0-5.13-.03-8.17-.09-9.11-.09-1.38-.7-2.19-1.85-2.45-.4-.09-.96-.13-1.68-.13-.49,0-.73-.13-.73-.39s.31-.39.95-.39c.86,0,2.03.02,3.5.06,1.48.04,2.37.06,2.69.06,6.79,0,10.38-.01,10.75-.04.75-.06,1.36-.14,1.85-.26.49-.11.72-.17.69-.17.17,0,.26.13.26.39,0,.03-.04.29-.13.77-.09.57-.15,1.25-.19,2.02s-.12,1.72-.24,2.84c-.06.32-.2.47-.43.47-.2,0-.32-.16-.37-.47-.04-.31-.08-.62-.11-.9-.03-.29-.09-.54-.17-.77-.35-.83-1.31-1.35-2.89-1.55-.98-.11-3.02-.17-6.13-.17-.2,0-.3.14-.3.43v10.88c0,.32.1.47.3.47,3.94,0,6.25-.03,6.91-.09.49-.03.86-.07,1.12-.13.43-.11.75-.29.95-.52.35-.37.58-.56.69-.56.2,0,.3.11.3.34,0,.03-.04.32-.13.86-.09.66-.16,1.42-.22,2.28-.12,1.63-.17,2.59-.17,2.88,0,.54-.13.82-.39.82s-.39-.15-.39-.45-.06-.8-.17-1.48c-.23-.97-1.04-1.53-2.42-1.68-.81-.09-2.85-.13-6.13-.13-.17,0-.26.14-.26.43v10.06c.06,1.52.4,2.5,1.01,2.94.62.45,2.01.67,4.17.67,1.96,0,3.31-.17,4.06-.52,1.01-.46,1.65-1.52,1.94-3.18.09-.43.24-.65.47-.65s.34.26.34.77c0,1.75-.19,3.34-.56,4.77-.14.52-.34.83-.6.95s-.83.17-1.72.17c-2.49,0-4.97-.04-7.44-.13-2.47-.09-3.96-.13-4.47-.13-.26,0-1.07.02-2.43.06-1.36.04-2.36.06-2.99.06-.57,0-.86-.14-.86-.43,0-.2.31-.33.95-.39.43-.06.86-.1,1.29-.13.66-.14,1.07-.93,1.25-2.37.14-1.12.21-4.17.21-9.16Z"/>
    <path d="M380.09,539.28h-9.59c-.17,0-.3.11-.39.34l-2.32,6.15c-.43,1.15-.65,2.02-.65,2.62,0,.89.57,1.33,1.72,1.33h.65c.43,0,.65.11.65.34,0,.29-.24.43-.73.43-.46,0-1.23-.02-2.3-.06s-1.83-.06-2.26-.06c-2.49.09-4.18.13-5.07.13-.54,0-.82-.14-.82-.43,0-.23.17-.34.52-.34.46,0,.9-.03,1.33-.09.92-.11,1.66-.52,2.24-1.2.46-.54.93-1.43,1.42-2.67l10.79-27c.46-1.15.86-1.72,1.2-1.72.31,0,.67.46,1.07,1.38,2.64,6.65,6.19,15.46,10.66,26.44,1.2,2.84,2.46,4.4,3.78,4.69.52.11,1.12.17,1.81.17.37,0,.56.11.56.34,0,.17-.14.29-.43.34-.29.06-.8.09-1.55.09-3.55,0-6.26-.03-8.13-.09-.86-.03-1.29-.14-1.29-.34,0-.23.2-.36.6-.39.46-.14.59-.47.39-.99l-3.44-9.11c-.09-.2-.23-.3-.43-.3ZM371.36,537.13h7.91c.2,0,.27-.09.21-.26l-3.87-10.62c-.06-.26-.13-.39-.22-.39-.11,0-.2.13-.26.39l-3.96,10.58c-.06.2,0,.3.17.3Z"/>
    <path d="M400.81,526.6l.47,18.06c.09,2.87.59,4.46,1.5,4.77.09.03.65.1,1.68.22.86.11,1.29.26,1.29.43,0,.29-.33.43-.99.43-1.09,0-2.22-.02-3.4-.06-1.18-.04-1.82-.06-1.93-.06.03,0-.52.02-1.63.06-1.12.04-2.12.06-3.01.06-.63,0-.95-.14-.95-.43,0-.2.37-.33,1.12-.39.52-.06,1.02-.11,1.5-.17.54-.17.9-.63,1.07-1.38.14-.66.23-1.98.26-3.96l.39-25.45c.03-.97.21-1.46.56-1.46.23,0,.76.44,1.59,1.33,2.35,2.52,6.79,7.12,13.33,13.8,2.92,3.04,6.08,6.31,9.46,9.8h.21l-.43-19.3c-.03-1.06-.09-1.79-.17-2.19-.23-.86-.66-1.42-1.29-1.68-.43-.17-1.19-.26-2.28-.26-.46,0-.69-.13-.69-.39s.37-.39,1.12-.39c.86,0,1.89.02,3.1.06,1.2.04,1.91.06,2.11.06.03,0,.53-.02,1.5-.06.97-.04,1.88-.06,2.71-.06.66,0,.99.13.99.39s-.26.39-.77.39c-1.43,0-2.31.47-2.62,1.42-.14.52-.23,1.3-.26,2.36l-.47,27.13c-.03.89-.21,1.33-.56,1.33-.32,0-.8-.32-1.46-.95-2.75-2.72-6.98-6.94-12.68-12.64-1.95-1.92-4.14-4.2-6.58-6.84-1.23-1.35-2.45-2.68-3.65-4h-.13Z"/>
    <path d="M467.84,551.1c-6.25,0-11.16-1.55-14.72-4.66-3.57-3.11-5.35-7.34-5.35-12.7,0-4.79,1.67-8.71,5.02-11.76s7.9-4.58,13.65-4.58c1.98,0,4.07.14,6.25.43,1.01.2,2.44.44,4.31.73.43.03.65.2.65.52,0,.09-.04.33-.11.73-.07.52-.13,1.06-.16,1.63-.04,1.26-.09,2.81-.16,4.64-.06.66-.23.99-.52.99s-.43-.31-.43-.95c-.03-1.49-.59-2.81-1.68-3.96-.75-.77-1.88-1.4-3.4-1.89-1.63-.52-3.41-.77-5.33-.77-3.44,0-6.13.89-8.08,2.67-2.64,2.41-3.96,6.12-3.96,11.14,0,4.73,1.53,8.56,4.6,11.48,2.67,2.55,5.65,3.83,8.94,3.83,1.83,0,3.25-.11,4.26-.34,1.52-.34,2.72-1.03,3.61-2.06.77-.86,1.26-1.81,1.46-2.84.11-.57.3-.86.56-.86s.39.21.39.64c0,.32-.1,1.15-.3,2.49-.23,1.49-.44,2.55-.62,3.18-.19.63-.57,1.06-1.14,1.29-1.63.66-4.21.99-7.74.99Z"/>
    <path d="M499.48,551.1c-5.67,0-10.1-1.86-13.28-5.59-2.69-3.12-4.04-6.88-4.04-11.26s1.35-8.05,4.04-11.18c3.24-3.78,7.81-5.67,13.71-5.67,5.33,0,9.56,1.45,12.68,4.34,3.12,2.9,4.69,6.81,4.69,11.74s-1.61,9.22-4.81,12.51c-3.3,3.41-7.62,5.12-12.98,5.12ZM501.29,548.96c2.41,0,4.44-.76,6.1-2.28,2.58-2.32,3.87-6.19,3.87-11.61,0-4.7-1.22-8.51-3.65-11.44-2.35-2.78-5.33-4.17-8.94-4.17-2.95,0-5.33.9-7.14,2.71-2.29,2.29-3.44,5.88-3.44,10.75,0,4.62,1.18,8.4,3.53,11.35,2.44,3.12,5.66,4.69,9.67,4.69Z"/>
    <path d="M524.03,546.2l4.26-28.03c.11-.75.36-1.12.73-1.12.34,0,.73.44,1.16,1.33l11.74,24.25,11.69-24.55c.31-.69.63-1.03.95-1.03.37,0,.63.44.77,1.33l3.91,26.57c.2,1.43.45,2.46.73,3.1.29.63.74,1.05,1.38,1.25.95.29,1.83.43,2.67.43.46,0,.69.1.69.3,0,.32-.37.47-1.12.47-3.64,0-6.55-.09-8.73-.26-.83-.06-1.25-.21-1.25-.47,0-.2.15-.36.45-.47.3-.11.38-.73.24-1.85l-2.58-18.92h-.17l-9.37,19.56c-.78,1.61-1.31,2.41-1.59,2.41-.26,0-.76-.72-1.5-2.15-2.72-5.2-4.37-8.46-4.94-9.78-.97-2.12-2.47-5.31-4.47-9.56h-.17l-2.24,17.11c-.09.66-.13,1.33-.13,2.02s.43,1.18,1.29,1.38c.63.14,1.23.21,1.81.21.43,0,.65.1.65.3,0,.32-.34.47-1.03.47s-1.57-.02-2.64-.06c-1.07-.04-1.7-.06-1.87-.06-.23,0-.87.02-1.91.06-1.05.04-1.83.06-2.34.06s-.77-.16-.77-.47c0-.2.23-.3.69-.3s.89-.04,1.29-.13c.86-.17,1.45-1.3,1.76-3.4Z"/>
    <path d="M576.91,534.55v3.48c0,4.84.07,7.9.22,9.16.17,1.43.74,2.22,1.69,2.37.84.11,1.56.17,2.17.17.49,0,.74.11.74.34,0,.29-.32.43-.95.43-1.03,0-2.32-.02-3.87-.06s-2.44-.06-2.67-.06c-.32,0-1.15.02-2.51.06s-2.34.06-2.95.06-.9-.14-.9-.43c0-.2.32-.33.95-.39.4-.06.82-.1,1.25-.13.66-.14,1.08-.93,1.25-2.37.14-1.12.21-4.17.21-9.16v-7.57c0-5.13-.03-8.17-.09-9.11-.09-1.38-.7-2.19-1.85-2.45-.4-.09-.96-.13-1.68-.13-.49,0-.73-.11-.73-.34,0-.29.33-.43.99-.43.83,0,1.98.02,3.46.06,1.48.04,2.39.06,2.73.06,6.96,0,10.75-.01,11.35-.04.46,0,1.05-.06,1.76-.17.54-.17.77-.26.69-.26.2,0,.3.13.3.39,0,.09-.04.3-.13.64-.09.43-.16.86-.21,1.29-.06.97-.13,2.14-.21,3.48-.06.4-.2.6-.43.6-.26,0-.4-.23-.43-.68,0-.71-.09-1.25-.26-1.61-.37-.82-1.32-1.25-2.85-1.27l-6.65-.13c-.26,0-.39.2-.39.6v10.67c0,.26.1.38.3.38h5.53c1.21,0,1.88-.01,2.03-.04.83-.09,1.42-.34,1.77-.77.23-.29.42-.43.56-.43.17,0,.26.13.26.39,0,.06-.04.37-.13.95-.09.66-.16,1.23-.22,1.72-.12,1.18-.17,2.22-.17,3.14,0,.54-.14.82-.43.82-.17,0-.3-.27-.39-.82-.09-.37-.16-.75-.22-1.12-.32-.89-1.05-1.4-2.2-1.55-.69-.09-2.82-.13-6.39-.13-.2,0-.3.13-.3.39Z"/>
    <path d="M610.92,551.1c-5.67,0-10.1-1.86-13.28-5.59-2.69-3.12-4.04-6.88-4.04-11.26s1.35-8.05,4.04-11.18c3.24-3.78,7.81-5.67,13.71-5.67,5.33,0,9.56,1.45,12.68,4.34,3.12,2.9,4.69,6.81,4.69,11.74s-1.61,9.22-4.82,12.51c-3.3,3.41-7.62,5.12-12.98,5.12ZM612.72,548.96c2.41,0,4.44-.76,6.11-2.28,2.58-2.32,3.87-6.19,3.87-11.61,0-4.7-1.22-8.51-3.65-11.44-2.35-2.78-5.33-4.17-8.94-4.17-2.95,0-5.33.9-7.14,2.71-2.29,2.29-3.44,5.88-3.44,10.75,0,4.62,1.17,8.4,3.53,11.35,2.44,3.12,5.66,4.69,9.67,4.69Z"/>
    <path d="M638.13,538.04v-7.57c0-5.13-.03-8.17-.09-9.11-.09-1.38-.7-2.19-1.85-2.45-.4-.09-.96-.13-1.68-.13-.49,0-.73-.13-.73-.39s.31-.39.95-.39c.89,0,2.05.02,3.48.06,1.43.04,2.24.06,2.41.06.49,0,1.51-.02,3.07-.06,1.56-.04,2.56-.06,2.99-.06,3.47,0,6.1.62,7.91,1.85.72.49,1.35,1.22,1.89,2.19.69,1.15,1.03,2.38,1.03,3.7,0,3.35-1.89,6.56-5.67,9.63,3.12,3.96,4.84,6.1,5.16,6.45,1.66,2.09,3.05,3.71,4.17,4.86,1.58,1.63,3.18,2.61,4.82,2.92.34.03.67.06.99.09.49.06.73.19.73.39,0,.29-.27.43-.82.43h-4.08c-2.06,0-3.6-.27-4.6-.82-1.4-.75-3.37-2.85-5.89-6.32-1.23-1.75-2.65-3.73-4.26-5.93-.17-.2-.43-.3-.77-.3h-3.74c-.23,0-.34.11-.34.34v.6c0,4.84.07,7.89.21,9.14.17,1.45.73,2.23,1.68,2.35.86.11,1.56.17,2.11.17.34,0,.52.11.52.34,0,.29-.29.43-.86.43-.97,0-2.26-.02-3.85-.06s-2.42-.06-2.47-.06c-.2,0-.96.02-2.28.06s-2.31.06-2.97.06c-.57,0-.86-.14-.86-.43,0-.2.32-.33.95-.39.43-.06.86-.1,1.29-.13.66-.14,1.08-.93,1.25-2.37.14-1.12.21-4.17.21-9.16ZM643.2,520.8v13.07c0,.43.13.69.39.77.8.29,1.89.43,3.27.43s2.39-.24,3.05-.73c1.69-1.23,2.54-3.38,2.54-6.45,0-2.72-.77-4.8-2.32-6.23-1.23-1.09-2.65-1.63-4.26-1.63-1.38,0-2.19.09-2.45.26-.14.09-.21.26-.21.52Z"/>
    <path d="M676.35,538.04v-17.63l-6.41.17c-2.26.06-3.65.47-4.17,1.25-.37.54-.62,1.05-.73,1.5-.09.34-.24.52-.47.52-.26,0-.39-.23-.39-.69,0-.77.3-2.42.9-4.94.14-.54.31-.82.52-.82.09,0,.32.08.69.24.37.16.76.25,1.16.28,1.55.14,2.98.22,4.3.22h17.02c1.12,0,2.11-.06,2.97-.19.86-.13,1.25-.19,1.16-.19.23,0,.34.3.34.9,0,.28-.02,1.08-.06,2.39s-.08,2.18-.11,2.61c-.03.43-.14.64-.34.64-.26,0-.42-.29-.47-.86l-.04-.47c-.14-1.52-1.83-2.32-5.07-2.41l-5.42-.13v17.63c0,4.87.07,7.94.21,9.2.17,1.41.73,2.18,1.68,2.32.83.11,1.56.17,2.19.17.46,0,.69.11.69.34,0,.29-.27.43-.82.43-1.09,0-2.42-.02-4-.06s-2.49-.06-2.75-.06-1.07.02-2.43.06-2.36.06-2.99.06c-.57,0-.86-.14-.86-.43,0-.2.32-.33.95-.39.43-.06.86-.1,1.29-.13.66-.14,1.08-.93,1.25-2.37.14-1.26.21-4.31.21-9.16Z"/>
    <path d="M729.4,551.1c-6.25,0-11.16-1.55-14.73-4.66-3.57-3.11-5.35-7.34-5.35-12.7,0-4.79,1.67-8.71,5.02-11.76s7.9-4.58,13.65-4.58c1.98,0,4.07.14,6.25.43,1.01.2,2.44.44,4.31.73.43.03.65.2.65.52,0,.09-.04.33-.11.73-.07.52-.13,1.06-.16,1.63-.04,1.26-.09,2.81-.16,4.64-.06.66-.23.99-.52.99s-.43-.31-.43-.95c-.03-1.49-.59-2.81-1.68-3.96-.75-.77-1.88-1.4-3.4-1.89-1.63-.52-3.41-.77-5.33-.77-3.44,0-6.13.89-8.08,2.67-2.64,2.41-3.96,6.12-3.96,11.14,0,4.73,1.53,8.56,4.6,11.48,2.67,2.55,5.65,3.83,8.94,3.83,1.83,0,3.25-.11,4.26-.34,1.52-.34,2.72-1.03,3.61-2.06.77-.86,1.26-1.81,1.46-2.84.11-.57.3-.86.56-.86s.39.21.39.64c0,.32-.1,1.15-.3,2.49-.23,1.49-.44,2.55-.62,3.18-.19.63-.57,1.06-1.14,1.29-1.63.66-4.21.99-7.74.99Z"/>
    <path d="M746.6,536.75v-6.28c0-5.13-.03-8.17-.09-9.11-.09-1.38-.7-2.19-1.85-2.45-.4-.09-.96-.13-1.68-.13-.49,0-.73-.13-.73-.39s.31-.39.95-.39c.83,0,2,.02,3.5.06s2.43.06,2.77.06c.31,0,1.14-.02,2.47-.06s2.27-.06,2.82-.06c.63,0,.95.13.95.39s-.23.39-.69.39c-.34,0-.76.04-1.25.13-.97.17-1.5.99-1.59,2.45-.06.95-.09,3.99-.09,9.13v6.03c0,5.22,1.12,8.75,3.35,10.59,1.43,1.18,3.22,1.77,5.37,1.77,2.41,0,4.38-.77,5.93-2.33,1.06-1.06,1.78-2.58,2.15-4.56.23-1.32.34-3.36.34-6.11v-5.38c0-5.14-.03-8.18-.09-9.13-.09-1.38-.7-2.2-1.85-2.45-.4-.09-.92-.13-1.55-.13-.49,0-.73-.13-.73-.39s.3-.39.9-.39c1.26,0,2.91.04,4.94.13.09,0,.76-.02,2.02-.06,1.26-.04,2.22-.06,2.88-.06.6,0,.9.13.9.39s-.26.39-.77.39c-.34,0-.76.04-1.25.13-.97.17-1.5.99-1.59,2.45-.06.95-.09,3.98-.09,9.11v4.6c0,2.92-.23,5.29-.69,7.09-.63,2.49-1.76,4.44-3.4,5.85-2.41,2.06-5.39,3.09-8.94,3.09-4.18,0-7.37-.99-9.54-2.97-2.55-2.29-3.83-6.09-3.83-11.39Z"/>
    <path d="M785.03,538.04v-7.57c0-5.13-.03-8.17-.09-9.11-.09-1.38-.57-2.18-1.46-2.41-.49-.11-.98-.17-1.48-.17s-.75-.14-.75-.43c0-.23.34-.34,1.03-.34.57,0,1.55.02,2.95.06,1.39.04,2.27.06,2.64.06.31,0,1.12-.02,2.41-.06s2.24-.06,2.84-.06.9.11.9.34c0,.29-.21.43-.62.43s-.86.04-1.34.13c-.96.17-1.49.99-1.57,2.45-.06.95-.08,3.98-.08,9.11v7.57c0,5.13.06,8.27.17,9.42.11,1.26.68,1.96,1.7,2.11.82.11,1.55.17,2.17.17.45,0,.68.11.68.34,0,.29-.27.43-.82.43-1.09,0-2.42-.02-3.98-.06-1.56-.04-2.47-.06-2.73-.06s-1.07.02-2.43.06-2.36.06-2.99.06c-.57,0-.86-.14-.86-.43,0-.2.32-.33.95-.39.43-.06.86-.1,1.29-.13.69-.14,1.1-.85,1.25-2.13.14-1.27.21-4.41.21-9.39Z"/>
    <path d="M808.38,551.1c-2.49,0-4.59-.37-6.28-1.12-.54-.23-.82-.72-.82-1.46,0-1.55.07-3.42.21-5.63.06-.75.23-1.12.52-1.12s.43.24.43.73c0,.6.13,1.33.39,2.19.86,2.9,2.91,4.34,6.15,4.34,1.81,0,3.25-.53,4.34-1.59.95-.95,1.42-2.05,1.42-3.31,0-2.38-1.41-4.67-4.21-6.88l-1.98-1.55c-4.24-3.32-6.36-6.72-6.36-10.19,0-2.38.92-4.33,2.75-5.85,1.83-1.52,4.23-2.28,7.18-2.28,1.86,0,3.77.24,5.72.73.4.11.6.29.6.52,0-.06-.03.45-.09,1.53-.06,1.07-.09,2.29-.09,3.63,0,.86-.16,1.29-.47,1.29-.29,0-.43-.26-.43-.77,0-.95-.37-1.89-1.12-2.84-1.12-1.4-2.68-2.11-4.69-2.11-1.58,0-2.82.41-3.74,1.23-.92.82-1.38,1.88-1.38,3.2,0,1,.32,1.96.97,2.86.64.9,1.84,2.01,3.59,3.33l1.2.9c2.58,1.95,4.4,3.75,5.46,5.4,1.06,1.65,1.59,3.5,1.59,5.57,0,3.24-1.35,5.73-4.04,7.48-1.81,1.18-4.08,1.76-6.84,1.76Z"/>
    <path d="M829.49,538.04v-7.57c0-5.13-.03-8.17-.09-9.11-.09-1.38-.57-2.18-1.46-2.41-.49-.11-.98-.17-1.48-.17s-.75-.14-.75-.43c0-.23.34-.34,1.03-.34.57,0,1.55.02,2.95.06,1.39.04,2.27.06,2.64.06.31,0,1.12-.02,2.41-.06s2.24-.06,2.84-.06.9.11.9.34c0,.29-.21.43-.62.43s-.86.04-1.34.13c-.96.17-1.49.99-1.57,2.45-.06.95-.08,3.98-.08,9.11v7.57c0,5.13.06,8.27.17,9.42.11,1.26.68,1.96,1.7,2.11.82.11,1.55.17,2.17.17.45,0,.68.11.68.34,0,.29-.27.43-.82.43-1.09,0-2.42-.02-3.98-.06-1.56-.04-2.47-.06-2.73-.06s-1.07.02-2.43.06-2.36.06-2.99.06c-.57,0-.86-.14-.86-.43,0-.2.32-.33.95-.39.43-.06.86-.1,1.29-.13.69-.14,1.1-.85,1.25-2.13.14-1.27.21-4.41.21-9.39Z"/>
    <path d="M850.9,526.6l.47,18.06c.09,2.87.59,4.46,1.5,4.77.09.03.65.1,1.68.22.86.11,1.29.26,1.29.43,0,.29-.33.43-.99.43-1.09,0-2.22-.02-3.4-.06s-1.82-.06-1.93-.06c.03,0-.52.02-1.63.06-1.12.04-2.12.06-3.01.06-.63,0-.95-.14-.95-.43,0-.2.37-.33,1.12-.39.52-.06,1.02-.11,1.5-.17.54-.17.9-.63,1.07-1.38.14-.66.23-1.98.26-3.96l.39-25.45c.03-.97.21-1.46.56-1.46.23,0,.76.44,1.59,1.33,2.35,2.52,6.79,7.12,13.33,13.8,2.92,3.04,6.08,6.31,9.46,9.8h.21l-.43-19.3c-.03-1.06-.09-1.79-.17-2.19-.23-.86-.66-1.42-1.29-1.68-.43-.17-1.19-.26-2.28-.26-.46,0-.69-.13-.69-.39s.37-.39,1.12-.39c.86,0,1.89.02,3.09.06,1.2.04,1.91.06,2.11.06.03,0,.53-.02,1.5-.06s1.88-.06,2.71-.06c.66,0,.99.13.99.39s-.26.39-.77.39c-1.43,0-2.31.47-2.62,1.42-.14.52-.23,1.3-.26,2.36l-.47,27.13c-.03.89-.21,1.33-.56,1.33-.32,0-.8-.32-1.46-.95-2.75-2.72-6.98-6.94-12.68-12.64-1.95-1.92-4.14-4.2-6.58-6.84-1.23-1.35-2.45-2.68-3.65-4h-.13Z"/>
    <path d="M889.63,538.04v-7.57c0-5.13-.03-8.17-.09-9.11-.09-1.38-.7-2.19-1.85-2.45-.4-.09-.96-.13-1.68-.13-.49,0-.73-.13-.73-.39s.31-.39.95-.39c.86,0,2.03.02,3.5.06,1.48.04,2.37.06,2.69.06,6.79,0,10.38-.01,10.75-.04.74-.06,1.36-.14,1.85-.26.49-.11.72-.17.69-.17.17,0,.26.13.26.39,0,.03-.04.29-.13.77-.09.57-.15,1.25-.19,2.02-.04.77-.12,1.72-.24,2.84-.06.32-.2.47-.43.47-.2,0-.32-.16-.37-.47-.04-.31-.08-.62-.11-.9-.03-.29-.09-.54-.17-.77-.34-.83-1.31-1.35-2.89-1.55-.98-.11-3.02-.17-6.13-.17-.2,0-.3.14-.3.43v10.88c0,.32.1.47.3.47,3.94,0,6.25-.03,6.91-.09.49-.03.86-.07,1.12-.13.43-.11.75-.29.95-.52.35-.37.58-.56.69-.56.2,0,.3.11.3.34,0,.03-.04.32-.13.86-.09.66-.16,1.42-.22,2.28-.12,1.63-.17,2.59-.17,2.88,0,.54-.13.82-.39.82s-.39-.15-.39-.45-.06-.8-.17-1.48c-.23-.97-1.04-1.53-2.42-1.68-.81-.09-2.85-.13-6.13-.13-.17,0-.26.14-.26.43v10.06c.06,1.52.39,2.5,1.01,2.94.62.45,2.01.67,4.17.67,1.96,0,3.31-.17,4.06-.52,1.01-.46,1.65-1.52,1.94-3.18.09-.43.24-.65.47-.65s.34.26.34.77c0,1.75-.19,3.34-.56,4.77-.14.52-.34.83-.6.95s-.83.17-1.72.17c-2.49,0-4.97-.04-7.44-.13-2.47-.09-3.96-.13-4.47-.13-.26,0-1.07.02-2.43.06s-2.36.06-2.99.06c-.57,0-.86-.14-.86-.43,0-.2.32-.33.95-.39.43-.06.86-.1,1.29-.13.66-.14,1.08-.93,1.25-2.37.14-1.12.21-4.17.21-9.16Z"/>
  </g>
</svg>