<?xml version="1.0" encoding="UTF-8"?>
<svg id="Layer_1" xmlns="http://www.w3.org/2000/svg" version="1.1" viewBox="0 0 3383.2 1296">
  <!-- Generator: Adobe Illustrator 29.0.1, SVG Export Plug-In . SVG Version: 2.1.0 Build 192)  -->
  <defs>
    <style>
      .st0 {
        stroke: #fff;
        stroke-miterlimit: 10;
        stroke-width: 5px;
      }

      .st0, .st1 {
        fill: #fff;
      }

      .st2 {
        fill: #ec2127;
      }

      .st2, .st1, .st3, .st4 {
        fill-rule: evenodd;
      }

      .st3 {
        fill: #f47c20;
      }

      .st4 {
        fill: #ffca0d;
      }
    </style>
  </defs>
  <g>
    <path class="st0" d="M435.34,1034.62l52.43-77h11.06l-58.98,87.04v46.08h-9.22v-46.08l-58.98-87.04h11.06l52.63,77Z"/>
    <path class="st0" d="M608.8,1092.17c-12.15,0-23.42-3.04-33.79-9.11-10.38-6.07-18.57-14.34-24.58-24.78-6.01-10.44-9.01-21.81-9.01-34.1s3-23.65,9.01-34.1c6.01-10.44,14.2-18.7,24.58-24.78,10.37-6.07,21.64-9.11,33.79-9.11s23.41,3.04,33.79,9.11c10.37,6.08,18.57,14.34,24.58,24.78,6.01,10.44,9.01,21.81,9.01,34.1s-3,23.65-9.01,34.1c-6.01,10.44-14.2,18.71-24.58,24.78-10.38,6.08-21.64,9.11-33.79,9.11ZM608.8,965.61c-10.51,0-20.21,2.63-29.08,7.88-8.88,5.26-15.94,12.36-21.2,21.3-5.26,8.94-7.88,18.74-7.88,29.39s2.63,20.45,7.88,29.39c5.25,8.94,12.32,16.04,21.2,21.3,8.87,5.26,18.57,7.88,29.08,7.88s20.2-2.63,29.08-7.88c8.87-5.25,15.9-12.36,21.09-21.3,5.19-8.94,7.78-18.74,7.78-29.39s-2.59-20.44-7.78-29.39c-5.19-8.94-12.22-16.04-21.09-21.3-8.88-5.25-18.57-7.88-29.08-7.88Z"/>
    <path class="st0" d="M787.37,1092.17c-6.69,0-13.14-1.33-19.35-3.99-6.21-2.66-11.71-6.45-16.49-11.37-4.78-4.64-8.43-10.1-10.96-16.38-2.53-6.28-3.79-12.9-3.79-19.86v-82.94h9.22v82.94c0,5.73,1.06,11.2,3.17,16.38,2.11,5.19,5.08,9.7,8.91,13.52,3.96,3.96,8.46,7,13.52,9.11,5.05,2.12,10.31,3.17,15.77,3.17s10.92-1.06,15.97-3.17c5.05-2.12,9.55-5.15,13.52-9.11,3.82-3.82,6.79-8.33,8.91-13.52,2.12-5.19,3.17-10.65,3.17-16.38v-82.94h9.22v82.94c0,6.96-1.26,13.59-3.79,19.86-2.53,6.28-6.18,11.74-10.96,16.38-4.78,4.92-10.24,8.7-16.38,11.37-6.14,2.66-12.7,3.99-19.66,3.99Z"/>
    <path class="st0" d="M985,1090.74l-55.29-67.17h16.38c10.1,0,18.29-1.3,24.58-3.89,4.64-2.18,8.67-5.49,12.08-9.93,3.41-4.44,5.12-9.32,5.12-14.64,0-4.78-1.43-9.32-4.3-13.62s-6.96-7.81-12.29-10.55c-5.32-2.73-11.47-4.1-18.43-4.1h-37.27v123.9h-9.22v-133.12h46.49c6.28,0,12.15.99,17.61,2.97,5.46,1.98,10.24,4.81,14.34,8.5,3.96,3.55,7,7.58,9.11,12.08,2.12,4.5,3.17,9.15,3.17,13.93,0,7.51-2.25,14.23-6.76,20.17-4.51,5.94-9.83,10.21-15.97,12.8-4.23,1.91-8.36,3.11-12.39,3.58-4.03.48-8.29.72-12.8.72l48.13,58.37h-12.29Z"/>
    <path class="st0" d="M1162.34,1090.74v-133.12h86.22v9.42h-77v52.43h60v9.42h-60v52.22h77v9.62h-86.22Z"/>
    <path class="st0" d="M1367.75,1070.05l50.38-112.43h10.24l-60.62,135.37-60.41-135.37h10.04l50.38,112.43Z"/>
    <path class="st0" d="M1487.96,1090.74v-133.12h86.22v9.42h-77v52.43h60v9.42h-60v52.22h77v9.62h-86.22Z"/>
    <path class="st0" d="M1718.55,1090.74l-55.29-67.17h16.38c10.1,0,18.29-1.3,24.58-3.89,4.64-2.18,8.67-5.49,12.08-9.93,3.41-4.44,5.12-9.32,5.12-14.64,0-4.78-1.43-9.32-4.3-13.62s-6.96-7.81-12.29-10.55c-5.32-2.73-11.47-4.1-18.43-4.1h-37.27v123.9h-9.22v-133.12h46.49c6.28,0,12.15.99,17.61,2.97,5.46,1.98,10.24,4.81,14.34,8.5,3.96,3.55,7,7.58,9.11,12.08,2.12,4.5,3.17,9.15,3.17,13.93,0,7.51-2.25,14.23-6.76,20.17-4.51,5.94-9.83,10.21-15.97,12.8-4.23,1.91-8.36,3.11-12.39,3.58-4.03.48-8.29.72-12.8.72l48.13,58.37h-12.29Z"/>
    <path class="st0" d="M1843.89,1034.62l52.43-77h11.06l-58.98,87.04v46.08h-9.22v-46.08l-58.98-87.04h11.06l52.63,77Z"/>
    <path class="st0" d="M2003.83,1090.74h-38.3v-133.12h38.3c9.42,0,18.16,1.74,26.21,5.22,8.05,3.48,15.02,8.43,20.89,14.85,5.6,6.14,9.9,13.18,12.9,21.09,3,7.92,4.51,16.32,4.51,25.19s-1.5,17.27-4.51,25.19c-3,7.92-7.31,15.02-12.9,21.3-5.87,6.55-12.83,11.57-20.89,15.05-8.06,3.48-16.79,5.22-26.21,5.22ZM1974.75,1081.52h29.08c16.52,0,29.97-5.8,40.34-17.41,4.78-5.19,8.43-11.23,10.96-18.12,2.52-6.89,3.79-14.23,3.79-22.02s-1.26-14.91-3.79-21.81c-2.53-6.89-6.18-12.93-10.96-18.12-10.51-11.33-23.96-17-40.34-17h-29.08v114.48Z"/>
    <path class="st0" d="M2136.94,1056.95l-15.77,33.79h-10.24l62.67-134.75,59.18,134.75h-10.03l-14.95-33.79h-70.86ZM2173.19,978.72l-31.95,69.01h62.46l-30.51-69.01Z"/>
    <path class="st0" d="M2326.38,1034.62l52.43-77h11.06l-58.98,87.04v46.08h-9.22v-46.08l-58.98-87.04h11.06l52.63,77Z"/>
    <path class="st0" d="M2634.28,1033.5c4.44,5.8,6.66,12.39,6.66,19.76,0,4.78-1.06,9.46-3.17,14.03-2.12,4.58-5.15,8.64-9.11,12.18-4.1,3.55-8.91,6.32-14.44,8.29-5.53,1.98-11.37,2.97-17.51,2.97h-48.95l.2-133.12h38.09c12.42,0,22.32,3.48,29.69,10.44,3.41,3.14,6.04,6.76,7.88,10.85s2.76,8.33,2.76,12.7c0,5.46-1.26,10.44-3.79,14.95-2.53,4.51-5.63,7.99-9.32,10.44l-1.84,1.23c2.59.82,4.84,1.64,6.76,2.46,6.28,2.73,11.64,7,16.08,12.8ZM2557.17,1015.58h28.47c3.69,0,6.76-.2,9.22-.61,2.46-.41,4.92-1.09,7.37-2.05,3.55-1.5,6.93-4.1,10.14-7.78,3.21-3.69,4.81-8.19,4.81-13.52,0-4.23-1.2-8.22-3.58-11.98-2.39-3.75-5.94-6.79-10.65-9.11-4.71-2.32-10.34-3.48-16.9-3.48h-28.88v48.54ZM2615.13,1077.43c5.32-2.73,9.42-6.25,12.29-10.55s4.3-8.84,4.3-13.62c0-5.33-1.67-10.14-5.02-14.44-3.35-4.3-7.34-7.47-11.98-9.52-6.55-2.87-14.82-4.3-24.78-4.3h-32.77v56.52h39.52c6.96,0,13.11-1.36,18.43-4.1Z"/>
    <path class="st0" d="M2716.3,1056.95l-15.77,33.79h-10.24l62.67-134.75,59.18,134.75h-10.03l-14.95-33.79h-70.86ZM2752.55,978.72l-31.95,69.01h62.46l-30.51-69.01Z"/>
    <path class="st0" d="M2950.37,1090.74l-55.29-67.17h16.38c10.1,0,18.29-1.3,24.58-3.89,4.64-2.18,8.67-5.49,12.08-9.93,3.41-4.44,5.12-9.32,5.12-14.64,0-4.78-1.43-9.32-4.3-13.62s-6.96-7.81-12.29-10.55c-5.32-2.73-11.47-4.1-18.43-4.1h-37.27v123.9h-9.22v-133.12h46.49c6.28,0,12.15.99,17.61,2.97,5.46,1.98,10.24,4.81,14.34,8.5,3.96,3.55,7,7.58,9.11,12.08,2.12,4.5,3.17,9.15,3.17,13.93,0,7.51-2.25,14.23-6.76,20.17-4.51,5.94-9.83,10.21-15.97,12.8-4.23,1.91-8.36,3.11-12.39,3.58-4.03.48-8.29.72-12.8.72l48.13,58.37h-12.29Z"/>
  </g>
  <g>
    <g>
      <path class="st1" d="M2408.41,208.79c3.83,3.3,7.19,7.52,11.58,9.76,29.61,15.09,44.45,39.63,44.51,72.21.29,159.11.82,318.22-.48,477.32-.38,45.89-36.59,77.19-82.61,77.22-119.55.06-239.12,0-358.69,0h-28.73c-.59-12.35-1.5-22.5-1.5-32.66-.09-188.14-.04-376.27-.11-564.41,0-13.15-.73-26.29-1.11-39.43h417.15ZM2188.83,375.53v309c11.69,0,20.23.15,28.76-.03,53.01-1.03,47.72,10.37,47.87-46.53.2-78.08.05-156.16.05-234.24v-28.21h-76.68Z"/>
      <path class="st1" d="M1864.53,208.79c10.94,8.38,25.56,14.61,31.96,25.63,10.17,17.46,20.71,38.06,20.91,57.43,1.65,156.57,1.18,313.17.8,469.76-.14,53.42-32.41,84.36-86.12,84.37-120.53.04-241.05-.24-361.57.26-16.96.07-25.26-2.87-25.21-22.76.54-200.57.18-401.16.17-601.74,0-4.32,1.25-8.64,1.91-12.96h417.14ZM1643.58,684.5c20.48,0,39.73,1.47,58.5-.88,5.79-.72,14.63-11.79,14.7-18.2.97-89.55.92-179.11.08-268.67-.05-5.97-8-16.46-13.08-16.97-19.62-2-39.57-.81-60.2-.81v305.53Z"/>
      <path class="st1" d="M771.5,208.79c49.5,21.47,60.12,60.96,59.23,111.59-2.55,145.87-1.26,291.8-1.52,437.72-.11,58.2-29.08,86.92-87.43,86.9-117.86-.02-235.71-.01-353.56-.02h-27.92c-1.01-8.35-2.53-14.99-2.53-21.63-.15-198.77-.15-397.55-.07-596.32,0-6.08,1.26-12.17,1.92-18.25h411.87ZM631.53,683.07c0-98.94.21-195.49-.62-292.02-.04-4.94-8.69-13.6-13.88-14.03-19.8-1.67-39.83-.67-61.79-.67v306.73h76.28Z"/>
      <path class="st1" d="M1299.54,208.79c29.59,184.37,59.45,368.71,88.38,553.18,3.1,19.76,0,40.41,1.15,60.57.91,16.17-6.77,22.86-21.47,22.92-52.75.2-105.52.71-158.22-.85-6.29-.19-16.19-11.65-17.61-19.18-5.54-29.31-9.1-59.07-11.83-88.81-1.38-15.1-6.32-22.11-22.5-21.2-20.04,1.12-40.2.27-63.18.27-4.02,35.92-8.56,71.18-11.62,106.58-1.31,15.09-7.84,22.99-22.56,23.05-56.12.24-112.25.1-171.94.1,0-39.81-4.85-77.95.84-114.45,25.01-160.63,53.03-320.79,80.09-481.09,2.32-13.78,5.56-27.4,8.37-41.09h322.1ZM1109.78,553.19c10.65,1.49,18.38,3.04,26.18,3.57,29.48,2,31.06.09,27.73-30.07-3.95-35.81-7.81-71.63-11.66-107.46-1.12-10.48-.98-21.27-3.62-31.34-1.18-4.5-7.32-8.84-12.17-10.66-1.91-.72-9.06,5.37-9.44,8.84-5.99,54.66-11.28,109.41-17.02,167.12Z"/>
      <path class="st1" d="M3010.38,309.12c-24.28,57.26-48.7,114.47-72.78,171.82-7.82,18.63-12.96,38.6-22.4,56.31-45.93,86.08-65.21,177.15-53.37,274.18,3.26,26.71-6.75,35.75-33.26,35.02-53.35-1.47-106.76-.43-163.49-.43,0-48.97,1.25-94.55-.57-140-.82-20.49-4.82-41.89-12.38-60.9-40.85-102.91-81.92-205.78-125.79-307.43-18.44-42.72-16.44-85.17-12.33-128.89h195.37c14.94,82.62,29.89,165.24,44.84,247.86,3.96.01,7.91.03,11.88.04,18.06-82.63,36.11-165.27,54.17-247.9h190.09v100.33Z"/>
    </g>
    <g>
      <path class="st2" d="M2423.58,203.01c3.84,3.3,7.2,7.52,11.58,9.76,29.61,15.09,44.45,39.63,44.51,72.21.29,159.11.82,318.22-.49,477.32-.38,45.89-36.59,77.19-82.61,77.22-119.56.06-239.12,0-358.69,0h-28.73c-.6-12.35-1.5-22.5-1.5-32.66-.09-188.14-.04-376.27-.11-564.41,0-13.15-.73-26.29-1.11-39.43h417.15ZM2204,369.75v309c11.69,0,20.23.14,28.76-.02,53.01-1.03,47.72,10.37,47.87-46.54.21-78.08.05-156.16.05-234.24v-28.2h-76.68Z"/>
      <path class="st3" d="M1879.7,203.01c10.94,8.38,25.56,14.61,31.96,25.63,10.17,17.46,20.71,38.06,20.92,57.43,1.65,156.57,1.18,313.17.8,469.76-.14,53.42-32.41,84.36-86.12,84.37-120.53.04-241.05-.24-361.57.27-16.96.07-25.26-2.87-25.21-22.76.54-200.58.18-401.16.17-601.74,0-4.32,1.25-8.64,1.91-12.96h417.15ZM1658.74,678.72c20.48,0,39.73,1.46,58.5-.88,5.79-.72,14.63-11.79,14.7-18.2.97-89.55.92-179.12.08-268.67-.06-5.97-8-16.46-13.08-16.97-19.62-2-39.58-.82-60.2-.82v305.53Z"/>
      <path class="st4" d="M786.67,203.01c49.5,21.47,60.12,60.96,59.23,111.59-2.55,145.87-1.26,291.8-1.52,437.72-.11,58.2-29.09,86.92-87.43,86.9-117.85-.02-235.71-.01-353.56-.02h-27.92c-1.01-8.35-2.53-14.99-2.53-21.62-.14-198.77-.15-397.55-.06-596.32,0-6.08,1.25-12.17,1.92-18.25h411.87ZM646.7,677.28c0-98.93.22-195.48-.61-292.02-.04-4.94-8.69-13.6-13.88-14.03-19.81-1.66-39.84-.67-61.79-.67v306.73h76.28Z"/>
      <path class="st4" d="M1314.71,203.01c29.59,184.37,59.45,368.71,88.38,553.18,3.1,19.76,0,40.41,1.14,60.57.91,16.17-6.77,22.86-21.47,22.92-52.75.2-105.51.71-158.22-.85-6.29-.19-16.19-11.65-17.61-19.18-5.54-29.31-9.1-59.07-11.83-88.81-1.39-15.1-6.32-22.1-22.5-21.2-20.05,1.12-40.2.27-63.19.27-4.02,35.92-8.56,71.18-11.62,106.58-1.31,15.09-7.84,22.98-22.56,23.05-56.12.24-112.25.1-171.93.1,0-39.81-4.85-77.95.84-114.45,25.01-160.63,53.03-320.79,80.09-481.09,2.33-13.78,5.56-27.4,8.37-41.09h322.1ZM1124.95,547.41c10.65,1.49,18.38,3.04,26.18,3.57,29.48,2,31.06.1,27.73-30.07-3.96-35.81-7.81-71.63-11.66-107.46-1.13-10.48-.98-21.27-3.63-31.34-1.18-4.5-7.32-8.84-12.17-10.66-1.91-.72-9.06,5.37-9.44,8.84-5.99,54.66-11.27,109.41-17.02,167.12Z"/>
      <path class="st2" d="M3025.55,303.33c-24.29,57.26-48.7,114.47-72.78,171.82-7.82,18.63-12.95,38.6-22.4,56.31-45.93,86.08-65.21,177.14-53.37,274.18,3.26,26.71-6.75,35.75-33.26,35.02-53.35-1.47-106.76-.43-163.49-.43,0-48.97,1.25-94.55-.57-140.01-.81-20.49-4.82-41.89-12.37-60.9-40.85-102.91-81.92-205.78-125.79-307.43-18.44-42.72-16.44-85.17-12.33-128.89h195.38c14.94,82.62,29.89,165.24,44.84,247.86,3.96.01,7.91.03,11.88.04,18.06-82.63,36.11-165.27,54.17-247.9h190.1v100.33Z"/>
    </g>
  </g>
</svg>