<?xml version="1.0" encoding="UTF-8"?>
<svg id="Layer_1" xmlns="http://www.w3.org/2000/svg" version="1.1" viewBox="0 0 5185 3457">
  <!-- Generator: Adobe Illustrator 29.0.1, SVG Export Plug-In . SVG Version: 2.1.0 Build 192)  -->
  <defs>
    <style>
      .st0 {
        fill: #fff;
        stroke: #231f20;
        stroke-miterlimit: 10;
      }

      .st1, .st2 {
        fill: #19588b;
      }

      .st2 {
        fill-rule: evenodd;
      }
    </style>
  </defs>
  <rect class="st0" x=".5" y=".5" width="5184" height="3456"/>
  <g>
    <g>
      <path class="st2" d="M1888.78,1286.07v-30.82c0-113.7-92.45-206.04-206.75-206.04h-825.99c-114.13,0-206.64,92.34-206.64,206.04v943.2c0,113.77,92.51,206.1,206.64,206.1h825.99c114.3,0,206.75-92.34,206.75-206.1v-54.26c-164.94-61.25-283.39-230.06-283.39-428.9s118.44-368.1,283.39-429.22M1533.18,1441.02c-49.29-76.74-106.9-131.19-170.07-167.32-63.16-35.81-138.04-52.3-224.83-52.3h-40.92c-10.01.67-19.18,1.64-27.91,3.18v401.4c15.38.58,29.55,1.68,42.36,2.24,12.74.83,25.64.83,38.99.83,69.15,0,126.34-15.28,172.16-46.25,45.13-30.95,74.85-72.9,87.33-127.18h16.8v404.74h-16.8c-13.02-60.37-42.74-104.7-87.33-135.78-44.4-29.99-105.65-44.44-182.17-44.44-11.37,0-32.07.7-61.08,2.91h-10.27v160.83c0,138.82,5.94,228.79,17.9,269.76,11.94,41.8,35,67.2,68.03,77.49-.29,6.93-.56,13.75-.56,20.55-24.84-1.68-52.08-2.52-79.16-3.22-27.34-.84-64.56-1.5-111.18-1.5s-79.69.67-105.96,1.5c-26.08.7-51.08,1.54-74.81,3.22v-20.55c33.01-9.44,55.26-34.15,67.18-75.11,12.21-40.16,18.18-130.96,18.18-272.14v-533.2c0-36.97-5.39-64-15.54-83.88-11.1-19-29.45-32.73-54.72-41.51v-21.94h7.1c82.19,2.2,143.98,2.91,184.95,2.91h492.21c21.95,89.56,45,178.98,66.93,268.29-5.68,2.2-11.38,4.29-16.81,6.48Z"/>
      <path class="st2" d="M2519.23,1979.78v-13.5c30.98-9.74,52.64-26.23,64.05-51.5,11.92-24.6,17.61-76.95,17.61-158.02v-206.48c0-48.45-5.13-79.71-14.43-93.32-9.74-13.48-29.33-21.11-57.51-23.58v-13.18c56.95-6.26,106.39-12.79,149.41-20.16,42.35-7.09,77.89-13.75,106.67-21.38v139.97c25.81-51.78,57.74-89.86,94.11-116.38,35.86-26.1,77.22-38.58,124.12-38.58h15.83c2.91.56,5.99.56,8.91,1.1-22.49,62.48-46.65,124.41-69.71,186.76h-16.25c-6.51-7.36-14.15-13.33-22.48-17.5-8.74-3.75-18.18-5.39-28.45-5.39-34.44,0-60.81,13.9-78.76,41.81-17.9,28.72-27.31,68.84-27.31,122.04v54.67c0,86.52,5.93,143.02,17.31,168.73,11.69,25.93,33.34,42.34,64.32,50.39-.29,4.59-.29,8.88-.56,13.5-20.55-1.27-43.05-1.71-67.51-2.38-24.97-.58-61.08-.98-108.54-.98-42.24,0-76.11.4-100.55.98-24.12.67-47.75,1.11-70.27,2.38"/>
      <path class="st2" d="M3033.16,1979.78c0-4.18-.56-8.37-.56-12.38,31.82-9.71,53.78-27.35,65.7-53.76,11.64-26.2,17.37-82.06,17.37-167.85v-195.5c0-48.45-4.89-79.71-14.45-93.87-9.72-13.46-28.73-21.22-56.63-23.03v-12.08c48.02-5.28,92.71-11.25,133.41-18.47,40.66-6.8,77.35-14.44,110.38-23.07v130.25c21.69-48.72,52.93-84.98,90.56-109.43,37.73-24.44,84.11-35.82,139.95-35.82,87.89,0,153.28,22.49,194.96,68.61,42.03,46.92,63.72,116.9,63.72,212.15v100.25c0,86.93,6.53,143.29,17.91,169.56,11.64,26.47,33.87,43.57,64.82,52.05v12.38c-20.27-1.27-43.29-1.71-67.74-2.38-24.44-.58-60.54-.98-108.04-.98-43.03,0-77.47.4-101.63.98-24.98.67-48.61,1.11-70.25,2.38-.54-4.18-.54-8.37-.82-12.38,30.38-9.17,52.35-25.58,63.99-50.95,11.92-25.27,17.64-75.26,17.64-151.93-.3-18.3-.3-36.5,0-54.84-.3-17.64-.3-35.81,0-53.72,0-78.76-10.84-136.22-31.65-172.2-20.99-35.94-55.7-53.72-102.33-53.72s-87.78,20.42-116.67,61.64c-29.02,40.98-44.42,95.53-44.42,164.28v80.09c0,93.31,6.53,153.03,18.22,179.3,11.38,26.47,33.03,43.57,64.83,52.05v12.38c-20.72-1.27-43.74-1.71-68.05-2.38-24.12-.58-60.54-.98-107.74-.98-43.34,0-77.49.4-101.94.98-24.98.67-48.56,1.11-70.52,2.38"/>
      <path class="st2" d="M2227.24,1565.52c-1.68-51.52-13.89-92.22-35.54-121.93-21.53-29.72-51.25-44.12-86.78-44.12s-65.68,14.12-89.85,43.18c-24.17,29-39.85,69.69-47.92,122.87h260.09ZM2444.93,1606.18h-479.16c-.27,1.42-.54,2.79-.54,3.78-1.39,23.02-1.97,40.37-1.97,51.78,0,86.08,19.88,152.72,58.88,201.71,38.06,48.9,92.22,72.8,160.79,72.8,57.5,0,106.38-17.81,146.76-53.75,40.15-35.81,70.82-87.76,90.8-157.31,11.42,9.57,23.06,18.74,34.44,28.01-25.66,79.71-67.74,138.32-123.27,178.59-56.8,39.97-128.86,59.54-215.38,59.54-108.04,0-196.59-28.85-263.39-88.16-67.49-59.44-101.62-134.81-101.62-228.13s34.12-165.36,100.37-224.24c66.36-58.71,152.86-87.06,258.38-87.06,94.86,0,171.93,20.55,229.39,63.19,57.78,42.34,93.86,101.62,105.51,179.23Z"/>
      <path class="st2" d="M3886.62,1929.2c23.6-62.89,48.34-125.51,71.92-188.74,5.97.71,11.69,1.42,17.62,2.1,12.38,70.13,38.19,122.04,74.87,158.85,35.93,36.64,82.9,54.15,139.52,54.15,44.32,0,80.68-10.27,108.58-31.79,27.91-20.84,42.2-47.49,42.2-80.39,0-26.41-10-46.25-29.29-60.95-19.71-14.6-66.09-29.73-138.97-46.38-96.66-22.5-161.22-45.56-192.87-71.5-31.53-25.56-47.5-61.69-47.5-108.61,0-55.8,29.86-101.22,87.34-137.43,58.05-36.25,133.68-53.62,227.84-53.62,45.81,0,90.53,4.29,133.58,12.62,42.9,8.75,84.98,20.98,124.8,37.65-19.54,52.06-39.26,103.86-58.56,155.94-5.7-.44-11.4-.71-17.07-1.27-17.08-54.3-43.88-96.23-78.16-126.65-33.63-30.12-74.04-44.68-119.58-44.68-35.55,0-65.68,9.03-89.7,29.01-24.44,19.57-36.91,42.9-36.91,70.38,0,46.52,50.1,78.32,149.14,97.77,17.9,4.01,32.63,6.65,42.34,8.33,91.07,19.01,153.69,40.39,187.43,67.18,33.07,26.54,50.41,63.89,50.41,111.79,0,64.83-31.53,114.97-93.02,153.3-61.82,37.91-148.04,56.36-257.14,56.36-52.9,0-104.69-5.53-155.12-16.24-51.25-10.84-99.54-26.1-143.69-47.19"/>
      <path class="st2" d="M1888.78,1286.07v-30.82c0-113.7-92.45-206.04-206.75-206.04h-825.99c-114.13,0-206.64,92.34-206.64,206.04v943.2c0,113.77,92.51,206.1,206.64,206.1h825.99c114.3,0,206.75-92.34,206.75-206.1v-54.26c-164.94-61.25-283.39-230.06-283.39-428.9s118.44-368.1,283.39-429.22M1533.18,1441.02c-49.29-76.74-106.9-131.19-170.07-167.32-63.16-35.81-138.04-52.3-224.83-52.3h-40.92c-10.01.67-19.18,1.64-27.91,3.18v401.4c15.38.58,29.55,1.68,42.36,2.24,12.74.83,25.64.83,38.99.83,69.15,0,126.34-15.28,172.16-46.25,45.13-30.95,74.85-72.9,87.33-127.18h16.8v404.74h-16.8c-13.02-60.37-42.74-104.7-87.33-135.78-44.4-29.99-105.65-44.44-182.17-44.44-11.37,0-32.07.7-61.08,2.91h-10.27v160.83c0,138.82,5.94,228.79,17.9,269.76,11.94,41.8,35,67.2,68.03,77.49-.29,6.93-.56,13.75-.56,20.55-24.84-1.68-52.08-2.52-79.16-3.22-27.34-.84-64.56-1.5-111.18-1.5s-79.69.67-105.96,1.5c-26.08.7-51.08,1.54-74.81,3.22v-20.55c33.01-9.44,55.26-34.15,67.18-75.11,12.21-40.16,18.18-130.96,18.18-272.14v-533.2c0-36.97-5.39-64-15.54-83.88-11.1-19-29.45-32.73-54.72-41.51v-21.94h7.1c82.19,2.2,143.98,2.91,184.95,2.91h492.21c21.95,89.56,45,178.98,66.93,268.29-5.68,2.2-11.38,4.29-16.81,6.48Z"/>
    </g>
    <g>
      <path class="st1" d="M2032.94,2338.89c11.62-.52,19.19-2.96,22.67-7.26,3.48-4.3,5.22-12.11,5.22-23.41v-102.28c0-10.94-1.79-18.66-5.36-23.15-3.58-4.49-11.1-7-22.53-7.54v-7.54c6.07.18,12.16.37,18.25.54,16.28.72,28.53,1.08,36.76,1.08,21.82,0,55.81-.54,101.95-1.62h2.42c-.18,4.32-.26,10.68-.26,19.11,0,7.37.12,13.42.4,18.17.26,4.75.85,9.11,1.74,13.05l-5.9,1.08c-4.47-13.99-11.5-24.37-21.07-31.09-9.57-6.74-23.03-10.1-40.38-10.1h-30.05v65.4h13.96c10.37,0,19.4-2.68,27.1-8.08,7.69-5.38,12.88-13.9,15.57-25.57h5.36c0,3.42-.18,8.45-.54,15.07-.35,10.42-.54,18.13-.54,23.15s.18,12.84.54,22.87c.35,7,.54,12.21.54,15.61h-5.36c-2.87-12.55-7.88-21.53-15.03-26.91-7.17-5.38-16.37-8.08-27.63-8.08h-13.96v79.94c8.94,2.51,19.59,3.76,31.93,3.76,17.71,0,33.63-4.25,47.76-12.78,14.13-8.52,26.03-21.41,35.68-38.62l5.1,3.76c-10.56,22.61-18.34,41.91-23.33,57.87-24.52-.72-52.25-1.08-83.18-1.08-17.72,0-33.46.08-47.24.26-13.76.18-23.97.45-30.58.82v-6.47Z"/>
      <path class="st1" d="M2229.08,2306.6c5.19,10.05,11.81,18.13,19.87,24.23,8.05,6.1,17.26,9.14,27.63,9.14,4.28,0,7.86-.97,10.73-2.96,2.87-1.97,4.3-4.84,4.3-8.62,0-4.47-2.16-8.06-6.44-10.76-4.3-2.7-11.1-5.73-20.39-9.16-6.27-2.33-11.45-4.44-15.57-6.32-4.12-1.88-8.05-4.22-11.81-7-3.76-2.79-6.8-6.15-9.12-10.1-2.33-3.95-3.48-8.52-3.48-13.73,0-5.73,1.02-10.71,3.08-14.93,2.05-4.21,4.82-7.54,8.32-9.96,3.48-2.42,7.41-4.21,11.81-5.38,4.38-1.17,8.99-1.76,13.81-1.76,3.58,0,9.66.72,18.25,2.16,9.66,1.8,16.82,2.7,21.47,2.7,1.08,0,2.33-.18,3.76-.54l2.14,33.37h-6.44c-1.6-3.41-3.76-6.81-6.44-10.22-2.68-3.41-5.63-6.5-8.85-9.29-3.22-2.77-6.72-5.07-10.47-6.86-3.76-1.79-7.52-2.7-11.27-2.7-4.49,0-8.11.86-10.88,2.56-2.77,1.71-4.15,4.72-4.15,9.02s2.14,7.84,6.43,10.63c4.3,2.77,10.91,5.87,19.87,9.28,6.07,2.34,11.13,4.44,15.15,6.33,4.04,1.88,7.92,4.21,11.68,7,3.75,2.77,6.7,6.1,8.85,9.96,2.16,3.85,3.22,8.29,3.22,13.32,0,5.92-1.11,10.99-3.34,15.21-2.25,4.21-5.29,7.58-9.12,10.1-3.85,2.51-8.23,4.35-13.15,5.52-4.93,1.16-10.06,1.74-15.44,1.74-16.98,0-32.91-3.05-47.75-9.16l-2.42-32.83h6.17Z"/>
      <path class="st1" d="M2322.99,2252.77v-6.18c10.56-.72,19.37-4.67,26.43-11.85,7.07-7.17,12.84-16.32,17.31-27.45h5.36v36.34h37.04v9.14h-37.04v57.07c0,7.71,1.22,13.13,3.62,16.28,2.42,3.14,6.67,4.72,12.75,4.72,3.05,0,6.35-1.03,9.94-3.1,3.58-2.07,7.06-4.72,10.47-7.94l5.63,6.18c-2.87,2.7-6.04,5.35-9.52,7.94-3.48,2.6-7.11,4.98-10.87,7.14-3.76,2.16-7.55,3.95-11.41,5.38-3.85,1.43-7.48,2.16-10.87,2.16-9.48,0-16.82-2.33-22.01-7-5.18-4.65-7.77-11.48-7.77-20.45v-68.37h-19.07Z"/>
      <path class="st1" d="M2492.04,2267.84c0-12.19-4.28-18.29-12.87-18.29-5.38,0-9.09,1.71-11.14,5.12-2.05,3.41-3.08,7.63-3.08,12.64,0,2.88.17,5.39.54,7.54-1.26-.35-3.13-.8-5.64-1.34-13.41-3.05-23.52-5.02-30.32-5.92.71-5.56,2.45-10.23,5.22-13.99,2.77-3.78,6.21-6.69,10.34-8.75,4.1-2.05,8.62-3.5,13.55-4.3,4.92-.8,10.06-1.22,15.43-1.22,6.26,0,12.3.54,18.11,1.62,5.81,1.08,11.1,2.82,15.83,5.26,4.75,2.42,8.54,5.64,11.41,9.68,2.87,4.04,4.3,9.02,4.3,14.93,0,4.32-.28,12.39-.82,24.23-.35,9.51-.52,15.52-.52,18.03,0,4.67.8,8.43,2.4,11.31,1.62,2.87,4.56,4.3,8.86,4.3,2.68,0,5.13-.68,7.38-2.02,2.23-1.34,4.78-3.27,7.64-5.78l4.28,4.84c-1.25,1.08-3.48,3.14-6.7,6.18-5.36,5.39-10.06,9.52-14.09,12.39-4.02,2.87-8.18,4.3-12.47,4.3s-8.15-1.34-12.08-4.04c-3.93-2.68-7.95-6.09-12.07-10.22-7.17,4.49-14.41,7.98-21.75,10.5-7.34,2.51-14.66,3.76-21.99,3.76-7.88,0-14.89-2.42-21.07-7.26-6.17-4.85-9.25-10.68-9.25-17.49,0-8.08,2.19-14.58,6.57-19.51,4.38-4.95,10.06-8.57,17.05-10.91,6.97-2.33,14.21-3.85,21.73-4.58,7.51-.71,15.92-1.06,25.21-1.06v-19.93ZM2460.64,2327.73c3.22,3.14,7.69,4.7,13.42,4.7,7.34,0,13.32-2.23,17.97-6.72v-1.34c-.35-5.39-.52-9.51-.52-12.39,0-3.22.17-8.08.52-14.53-4.28-.71-9.03-1.08-14.21-1.08-5.9,0-11.05,1.62-15.43,4.85-4.39,3.22-6.58,7.71-6.58,13.46s1.6,9.91,4.82,13.05Z"/>
      <path class="st1" d="M2546.5,2252.77v-6.18c10.56-.72,19.37-4.67,26.43-11.85,7.07-7.17,12.84-16.32,17.31-27.45h5.36v36.34h37.04v9.14h-37.04v57.07c0,7.71,1.22,13.13,3.62,16.28,2.42,3.14,6.67,4.72,12.75,4.72,3.05,0,6.35-1.03,9.94-3.1,3.58-2.07,7.06-4.72,10.47-7.94l5.63,6.18c-2.87,2.7-6.04,5.35-9.52,7.94-3.48,2.6-7.11,4.98-10.87,7.14-3.76,2.16-7.55,3.95-11.41,5.38-3.85,1.43-7.48,2.16-10.87,2.16-9.48,0-16.82-2.33-22.01-7-5.18-4.65-7.77-11.48-7.77-20.45v-68.37h-19.07Z"/>
      <path class="st1" d="M2681.21,2293.69c0,11.48,3.27,20.81,9.79,27.99,6.53,7.18,15.43,10.76,26.71,10.76,6.43,0,12.65-1.39,18.65-4.16,5.98-2.79,10.94-6.6,14.89-11.44l6.44,7c-6.98,7.71-15.17,13.76-24.55,18.16-9.4,4.39-19.1,6.6-29.11,6.6-17.35,0-31.23-4.98-41.6-14.93-10.37-9.96-15.57-23.2-15.57-39.7s5.19-29.73,15.57-39.69c10.37-9.97,24.24-14.95,41.6-14.95s29.55,5.02,38.76,15.07c9.22,10.05,14.53,23.15,15.97,39.3h-77.54ZM2715.29,2283.45c3.58,0,6-.49,7.24-1.48,1.25-.99,1.88-3.01,1.88-6.06,0-8.25-1.71-14.7-5.1-19.37-3.41-4.67-8.85-7-16.37-7-3.93,0-7.29,1.03-10.06,3.1-2.77,2.07-5.01,4.84-6.7,8.34-1.7,3.5-2.96,7.23-3.76,11.17-.8,3.95-1.2,7.71-1.2,11.3h34.08Z"/>
      <path class="st1" d="M2780.48,2306.6c5.19,10.05,11.81,18.13,19.87,24.23,8.05,6.1,17.26,9.14,27.63,9.14,4.28,0,7.86-.97,10.73-2.96,2.87-1.97,4.3-4.84,4.3-8.62,0-4.47-2.16-8.06-6.44-10.76-4.3-2.7-11.1-5.73-20.39-9.16-6.27-2.33-11.45-4.44-15.57-6.32-4.12-1.88-8.05-4.22-11.81-7-3.76-2.79-6.8-6.15-9.12-10.1-2.33-3.95-3.48-8.52-3.48-13.73,0-5.73,1.02-10.71,3.08-14.93,2.05-4.21,4.82-7.54,8.32-9.96,3.48-2.42,7.41-4.21,11.81-5.38,4.38-1.17,8.99-1.76,13.81-1.76,3.58,0,9.66.72,18.25,2.16,9.66,1.8,16.82,2.7,21.47,2.7,1.08,0,2.33-.18,3.76-.54l2.14,33.37h-6.44c-1.6-3.41-3.76-6.81-6.44-10.22-2.68-3.41-5.63-6.5-8.85-9.29-3.22-2.77-6.72-5.07-10.47-6.86-3.76-1.79-7.52-2.7-11.27-2.7-4.49,0-8.11.86-10.88,2.56-2.77,1.71-4.15,4.72-4.15,9.02s2.14,7.84,6.43,10.63c4.3,2.77,10.91,5.87,19.87,9.28,6.07,2.34,11.13,4.44,15.15,6.33,4.04,1.88,7.92,4.21,11.68,7,3.75,2.77,6.7,6.1,8.86,9.96,2.13,3.85,3.21,8.29,3.21,13.32,0,5.92-1.11,10.99-3.34,15.21-2.23,4.21-5.29,7.58-9.12,10.1-3.85,2.51-8.23,4.35-13.15,5.52-4.93,1.16-10.06,1.74-15.44,1.74-16.98,0-32.91-3.05-47.75-9.16l-2.42-32.83h6.17Z"/>
      <path class="st1" d="M3085.59,2223.98h61.97v5.38c-5.72.72-10.23,1.62-13.55,2.7-3.31,1.08-6.13,2.6-8.45,4.58-2.33,1.97-4.56,4.67-6.72,8.08-2.14,3.41-4.82,8.34-8.05,14.8l-24.69,47.9c6.09,10.05,13.24,17.72,21.47,23.01,8.23,5.3,18.06,8.12,29.52,8.48v6.47c-11.45-.72-24.24-1.08-38.36-1.08-12.18,0-23.18.35-33.01,1.08l-4.02-12.11c-6.61,5.02-14.4,9.02-23.35,11.98-8.94,2.96-17.43,4.44-25.48,4.44-16.11,0-29.08-4.13-38.92-12.38-9.83-8.26-14.75-20.82-14.75-37.68,0-7.89,1.51-14.93,4.56-21.13,3.04-6.18,7.11-11.48,12.21-15.87,5.1-4.39,10.91-8.12,17.43-11.17,6.53-3.05,13.56-5.56,21.07-7.54l-1.6-1.08c-10.39-6.46-18.08-12.38-23.09-17.76-5.01-5.38-7.51-12.65-7.51-21.81,0-9.86,4.87-18.06,14.63-24.61,9.74-6.55,21.5-9.83,35.28-9.83s25.89,3.36,34.76,10.1c8.85,6.74,13.27,15.12,13.27,25.17,0,5.56-1.06,10.54-3.22,14.93-2.14,4.39-5.06,8.17-8.71,11.3-3.67,3.14-7.83,5.75-12.48,7.81-4.65,2.07-9.76,3.9-15.29,5.52,8.75,5.21,16.14,12.28,22.13,21.25,6,8.99,12.11,20.02,18.39,33.11l.52,1.08c1.79-3.05,3.76-6.81,5.9-11.3,2.16-4.49,4.39-9.43,6.72-14.81,2.31-5.38,4.19-10.31,5.63-14.8,1.43-4.49,2.16-8.08,2.16-10.77,0-6.09-1.22-10.36-3.62-12.78-2.42-2.42-6.67-4.18-12.75-5.26v-5.38ZM3004.55,2320.33c7.34,8.43,17.08,12.64,29.25,12.64,10,0,18.14-2.77,24.41-8.34-1.79-3.95-4.84-11.39-9.12-22.33-6.09-14.9-11.24-26.65-15.43-35.26-4.21-8.62-8.55-14.35-13.02-17.23-9.65,3.96-16.58,8.89-20.79,14.81-4.21,5.92-6.3,13.64-6.3,23.15,0,13.27,3.67,24.14,11,32.57ZM3018.36,2223.98c4.39,5.92,9.8,10.59,16.24,13.99,6.26-3.95,10.96-8.43,14.09-13.46,3.13-5.02,4.69-11.39,4.69-19.11s-1.65-13.5-4.96-18.43c-3.31-4.93-8.63-7.4-15.97-7.4s-12.16,2.42-15.55,7.26c-3.41,4.84-5.1,10.87-5.1,18.03s2.19,13.19,6.57,19.11Z"/>
      <path class="st1" d="M3226.72,2337.83c6.61-.54,11.81-1.39,15.55-2.56,3.76-1.17,6.53-2.84,8.32-4.98,1.79-2.16,2.96-5.07,3.48-8.75.54-3.67.82-8.83.82-15.47v-100.92c0-6.64-.28-11.81-.82-15.49-.52-3.67-1.74-6.58-3.62-8.74-1.88-2.16-4.69-3.81-8.45-4.98-3.76-1.17-9.03-2.02-15.83-2.56v-6.46l5.36.54c12.88,1.25,22.44,1.88,28.71,1.88s16.82-.35,31.12-1.08c18.79-1.08,34.17-1.62,46.16-1.62s24.77,2.07,36.76,6.2c11.98,4.13,22.81,10.28,32.47,18.43,9.65,8.17,17.29,18.31,22.93,30.42,5.64,12.1,8.45,25.69,8.45,40.77,0,13.99-2.45,26.34-7.37,37.01-4.93,10.68-11.78,19.48-20.53,26.39-8.77,6.9-18.83,12.07-30.19,15.47-11.36,3.41-23.47,5.1-36.36,5.1-6.07,0-11.27-.09-15.57-.26-4.28-.18-10.47-.45-18.51-.8-6.09-.37-12.16-.63-18.25-.82-6.07-.18-13.05-.26-20.93-.26-14.13,0-28.7.35-43.73,1.08v-7.54ZM3290.85,2323.29c0,4.67,3.62,8.08,10.87,10.22,7.24,2.16,16.68,3.24,28.3,3.24,21.82,0,38.87-6.5,51.12-19.51,12.25-13.01,18.37-32.26,18.37-57.74,0-12.02-1.74-23.1-5.22-33.24-3.48-10.13-8.58-18.93-15.29-26.37-6.72-7.44-14.86-13.22-24.43-17.35-9.57-4.13-20.34-6.2-32.34-6.2-10.02,0-20.48,1.43-31.38,4.3v142.66Z"/>
      <path class="st1" d="M3486.45,2293.69c0,11.48,3.27,20.81,9.8,27.99,6.52,7.18,15.43,10.76,26.69,10.76,6.44,0,12.65-1.39,18.65-4.16,6-2.79,10.96-6.6,14.89-11.44l6.44,7c-6.98,7.71-15.17,13.76-24.55,18.16-9.39,4.39-19.1,6.6-29.11,6.6-17.35,0-31.23-4.98-41.6-14.93-10.37-9.96-15.55-23.2-15.55-39.7s5.18-29.73,15.55-39.69c10.37-9.97,24.24-14.95,41.6-14.95s29.56,5.02,38.78,15.07c9.2,10.05,14.52,23.15,15.97,39.3h-77.56ZM3520.53,2283.45c3.58,0,6-.49,7.24-1.48,1.25-.99,1.88-3.01,1.88-6.06,0-8.25-1.7-14.7-5.1-19.37-3.39-4.67-8.85-7-16.37-7-3.93,0-7.29,1.03-10.06,3.1-2.77,2.07-5.01,4.84-6.7,8.34-1.7,3.5-2.94,7.23-3.76,11.17-.8,3.95-1.2,7.71-1.2,11.3h34.08Z"/>
      <path class="st1" d="M3706.74,2247.93c-3.95.54-7.24,1.76-9.93,3.64-2.68,1.88-6,5.87-9.94,11.98-3.93,6.1-9.08,15.26-15.43,27.45-6.35,12.21-15.95,31.23-28.84,57.06h-15.83c-9.49-22.78-16.95-40.27-22.41-52.48-5.46-12.21-10.2-21.67-14.23-28.39-4.02-6.74-7.78-11.48-11.27-14.27-3.48-2.77-7.55-4.44-12.21-4.98v-5.38c15.38.72,26.93,1.08,34.62,1.08,8.4,0,21.01-.35,37.84-1.08v5.38c-4.49.37-8.18,1.43-11.14,3.24-2.94,1.79-4.42,4.49-4.42,8.08,0,2.68,1.25,7.26,3.76,13.72,2.5,6.46,6.17,15.17,10.99,26.11,2.68,6.46,4.7,11.27,6.04,14.4,1.34,3.14,2.28,5.7,2.82,7.68,1.06-2.33,3.48-7.18,7.24-14.53,2.33-4.84,4.52-9.32,6.57-13.46,2.07-4.13,3.99-8.25,5.78-12.38,1.79-4.13,3.22-7.95,4.28-11.45,1.08-3.5,1.62-6.32,1.62-8.48,0-4.49-1.22-7.54-3.62-9.14-2.42-1.62-6.13-2.87-11.14-3.78v-5.38c7.69.72,16.37,1.08,26.03,1.08,5.18,0,12.79-.35,22.81-1.08v5.38Z"/>
      <path class="st1" d="M3744.84,2293.69c0,11.48,3.27,20.81,9.8,27.99,6.52,7.18,15.43,10.76,26.69,10.76,6.44,0,12.65-1.39,18.65-4.16,6-2.79,10.96-6.6,14.89-11.44l6.44,7c-6.98,7.71-15.17,13.76-24.55,18.16-9.39,4.39-19.1,6.6-29.11,6.6-17.35,0-31.23-4.98-41.6-14.93-10.37-9.96-15.55-23.2-15.55-39.7s5.18-29.73,15.55-39.69c10.37-9.97,24.24-14.95,41.6-14.95s29.56,5.02,38.78,15.07c9.2,10.05,14.52,23.15,15.97,39.3h-77.56ZM3778.92,2283.45c3.58,0,6-.49,7.24-1.48,1.25-.99,1.88-3.01,1.88-6.06,0-8.25-1.7-14.7-5.1-19.37-3.39-4.67-8.85-7-16.37-7-3.93,0-7.29,1.03-10.06,3.1-2.77,2.07-5.01,4.84-6.7,8.34-1.7,3.5-2.94,7.23-3.76,11.17-.8,3.95-1.2,7.71-1.2,11.3h34.08Z"/>
      <path class="st1" d="M3884.91,2324.1c0,5.92,1.79,10.05,5.36,12.38,3.59,2.34,8.32,3.5,14.23,3.5v5.39h-2.14c-5.9-.37-11-.63-15.29-.82-4.3-.18-10.39-.26-18.25-.26-8.42,0-15,.08-19.73.26-4.75.18-9.79.45-15.17.82v-5.39c5.73,0,10.37-1.16,13.96-3.5,3.58-2.33,5.36-6.46,5.36-12.38v-143.46c0-6.09-1.48-10.4-4.42-12.92-2.96-2.51-7.74-3.76-14.36-3.76v-5.38c9.66-.37,18.93-1.03,27.77-2.02,8.86-.99,16.41-2.3,22.67-3.91v171.45Z"/>
      <path class="st1" d="M4000.29,2242.95c7.52,2.42,14.27,6.01,20.27,10.77,5.98,4.75,10.68,10.54,14.09,17.35,3.39,6.81,5.09,14.44,5.09,22.87s-1.7,16.06-5.09,22.89c-3.41,6.81-8.11,12.56-14.09,17.22-6,4.67-12.75,8.26-20.27,10.77-7.51,2.51-15.29,3.76-23.33,3.76s-15.84-1.25-23.35-3.76c-7.52-2.51-14.27-6.1-20.27-10.77-6-4.65-10.68-10.4-14.09-17.22-3.39-6.83-5.09-14.44-5.09-22.89s1.7-16.06,5.09-22.87c3.41-6.81,8.09-12.61,14.09-17.35,6-4.76,12.75-8.35,20.27-10.77,7.51-2.42,15.29-3.64,23.35-3.64s15.83,1.22,23.33,3.64ZM3958.71,2325.58c5.72,8.52,12.7,12.79,20.93,12.79,7.51,0,13.41-3.38,17.71-10.1,4.28-6.74,6.44-16.46,6.44-29.21,0-16.15-2.87-28.44-8.6-36.87-5.72-8.43-12.7-12.65-20.93-12.65-7.51,0-13.41,3.36-17.71,10.1-4.28,6.72-6.43,16.46-6.43,29.19,0,15.98,2.85,28.22,8.58,36.74Z"/>
      <path class="st1" d="M4129.37,2407.8c-20.76-.72-36.33-1.08-46.7-1.08-7.69,0-19.22.35-34.62,1.08v-5.38c7.17-.18,11.82-2.11,13.96-5.8,2.14-3.68,3.22-8.48,3.22-14.4v-119.77c0-8.97-5.9-13.46-17.71-13.46v-5.38c9.12-.35,18.06-1.03,26.83-2.02,8.75-.99,16.28-2.3,22.53-3.9v15.34c6.8-5.02,13.15-8.57,19.05-10.63,5.9-2.07,11.99-3.1,18.25-3.1,7.69,0,14.89,1.36,21.59,4.04,6.72,2.7,12.48,6.5,17.31,11.44,4.84,4.95,8.6,10.77,11.28,17.51,2.68,6.72,4.02,13.95,4.02,21.65,0,16.34-5.24,29.07-15.71,38.22-10.47,9.16-23.66,13.73-39.58,13.73-8.05,0-14.93-.46-20.65-1.36-5.73-.89-10.91-2.51-15.57-4.84v30.69c0,7,.49,12.47,1.48,16.41.97,3.95,2.59,6.95,4.82,9.02,2.23,2.07,5.36,3.54,9.4,4.44,4.02.89,9.6,1.62,16.77,2.16v5.38ZM4096.9,2308.76c0,8.6,2.19,15.24,6.58,19.91,4.38,4.67,11.48,7,21.33,7s16.58-3.36,20.79-10.1c4.19-6.72,6.3-17.09,6.3-31.09s-2.11-24.66-6.3-31.49c-4.21-6.81-11.14-10.23-20.79-10.23-5.38,0-10.87,1.85-16.51,5.52-5.64,3.68-9.43,7.58-11.41,11.71v38.76Z"/>
      <path class="st1" d="M4236.95,2293.69c0,11.48,3.27,20.81,9.8,27.99,6.52,7.18,15.43,10.76,26.69,10.76,6.44,0,12.65-1.39,18.65-4.16,6-2.79,10.96-6.6,14.89-11.44l6.44,7c-6.98,7.71-15.17,13.76-24.55,18.16-9.39,4.39-19.1,6.6-29.11,6.6-17.35,0-31.23-4.98-41.6-14.93-10.37-9.96-15.55-23.2-15.55-39.7s5.18-29.73,15.55-39.69c10.37-9.97,24.24-14.95,41.6-14.95s29.56,5.02,38.78,15.07c9.2,10.05,14.52,23.15,15.97,39.3h-77.56ZM4271.03,2283.45c3.58,0,6-.49,7.24-1.48,1.25-.99,1.88-3.01,1.88-6.06,0-8.25-1.7-14.7-5.1-19.37-3.39-4.67-8.85-7-16.37-7-3.93,0-7.29,1.03-10.06,3.1-2.77,2.07-5.01,4.84-6.7,8.34-1.7,3.5-2.94,7.23-3.76,11.17-.8,3.95-1.2,7.71-1.2,11.3h34.08Z"/>
      <path class="st1" d="M4373.8,2321.14c0,6.46,2.02,11.13,6.04,13.99,4.02,2.87,10.77,4.49,20.27,4.84v5.39h-.82c-16.09-.72-28.34-1.08-36.76-1.08s-20.65.35-36.76,1.08h-.8v-5.39c6.07-.35,10.73-2.02,13.95-4.98,3.22-2.96,4.82-7.57,4.82-13.86v-53.3c0-6.27-1.6-10.94-4.82-13.99-3.22-3.05-7.88-4.65-13.95-4.84v-5.38c2.33,0,5.53-.18,9.66-.54,4.1-.35,8.89-.85,14.35-1.48,5.46-.63,10.51-1.26,15.17-1.88,4.64-.63,7.86-1.13,9.65-1.5v18.85c1.97-1.62,3.58-2.96,4.84-4.04,6.97-5.75,13.05-10.1,18.25-13.05,5.18-2.96,10.9-4.44,17.17-4.44s11,2.02,13.69,6.06c2.68,4.04,4.02,10.19,4.02,18.43l-6.98,3.24c-6.61,3.05-11.76,5.47-15.43,7.26-3.67,1.8-6.57,3.33-8.72,4.58l-3.22-2.16c1.62-1.08,3.17-2.47,4.7-4.18,1.53-1.7,2.28-3.36,2.28-4.98,0-6.27-3.41-9.42-10.19-9.42-2.51,0-6,1.4-10.47,4.18-4.49,2.79-7.78,5.61-9.94,8.48v54.1Z"/>
      <path class="st1" d="M4450.54,2306.6c5.19,10.05,11.81,18.13,19.85,24.23,8.06,6.1,17.26,9.14,27.65,9.14,4.28,0,7.86-.97,10.73-2.96,2.85-1.97,4.28-4.84,4.28-8.62,0-4.47-2.14-8.06-6.43-10.76-4.3-2.7-11.1-5.73-20.39-9.16-6.27-2.33-11.45-4.44-15.57-6.32-4.12-1.88-8.06-4.22-11.81-7-3.76-2.79-6.8-6.15-9.12-10.1-2.33-3.95-3.5-8.52-3.5-13.73,0-5.73,1.03-10.71,3.1-14.93,2.05-4.21,4.82-7.54,8.31-9.96,3.5-2.42,7.43-4.21,11.81-5.38,4.39-1.17,9-1.76,13.83-1.76,3.58,0,9.66.72,18.25,2.16,9.66,1.8,16.82,2.7,21.47,2.7,1.06,0,2.31-.18,3.75-.54l2.16,33.37h-6.44c-1.62-3.41-3.76-6.81-6.44-10.22-2.68-3.41-5.64-6.5-8.86-9.29-3.21-2.77-6.7-5.07-10.47-6.86-3.75-1.79-7.51-2.7-11.27-2.7-4.47,0-8.09.86-10.87,2.56-2.77,1.71-4.16,4.72-4.16,9.02s2.16,7.84,6.44,10.63c4.3,2.77,10.91,5.87,19.85,9.28,6.09,2.34,11.14,4.44,15.17,6.33,4.02,1.88,7.92,4.21,11.67,7,3.76,2.77,6.72,6.1,8.86,9.96,2.14,3.85,3.22,8.29,3.22,13.32,0,5.92-1.13,10.99-3.36,15.21-2.23,4.21-5.27,7.58-9.12,10.1-3.84,2.51-8.23,4.35-13.15,5.52-4.92,1.16-10.06,1.74-15.43,1.74-17,0-32.91-3.05-47.76-9.16l-2.4-32.83h6.17Z"/>
    </g>
    <rect class="st1" x="1956.68" y="2077.27" width="2578.92" height="22.51"/>
  </g>
</svg>