<?xml version="1.0" encoding="UTF-8"?>
<svg id="Layer_1" xmlns="http://www.w3.org/2000/svg" version="1.1" viewBox="0 0 861.08 406.92">
  <!-- Generator: Adobe Illustrator 29.2.0, SVG Export Plug-In . SVG Version: 2.1.0 Build 38)  -->
  <defs>
    <style>
      .st0 {
        fill: #2058a4;
      }
    </style>
  </defs>
  <g>
    <path class="st0" d="M115.97,324.35c-.96,0-1.87-.19-2.73-.57-.86-.38-1.75-1.03-2.67-1.95-.18-.18-.37-.39-.56-.59.4-.14.8-.26,1.19-.41,2.78-1.13,5.2-2.72,7.26-4.75,2.06-2.03,3.67-4.45,4.83-7.24,1.16-2.79,1.74-5.82,1.74-9.09s-.58-6.36-1.74-9.12c-1.16-2.77-2.77-5.17-4.83-7.21-2.06-2.03-4.48-3.62-7.26-4.75-2.78-1.13-5.83-1.7-9.15-1.7s-6.32.57-9.12,1.7c-2.8,1.13-5.24,2.73-7.32,4.78-2.08,2.06-3.69,4.47-4.83,7.24-1.14,2.77-1.71,5.79-1.71,9.06s.57,6.29,1.71,9.06c1.14,2.77,2.74,5.18,4.8,7.24,2.06,2.06,4.5,3.65,7.32,4.78,1.82.73,3.74,1.2,5.75,1.46,1.32,1.47,2.56,2.75,3.73,3.83,1.54,1.43,3.02,2.56,4.44,3.4,1.42.84,2.86,1.45,4.32,1.83,1.46.38,3.01.57,4.65.57,4.72,0,8.5-1.8,11.34-5.41l-4.32-5.41c-2,2.18-4.28,3.27-6.84,3.27ZM102.06,313.84c-1.88,0-3.62-.34-5.22-1.01-1.6-.67-2.99-1.64-4.17-2.9-1.18-1.26-2.1-2.76-2.76-4.5-.66-1.74-.99-3.64-.99-5.7s.33-4.01.99-5.73c.66-1.72,1.58-3.21,2.76-4.47,1.18-1.26,2.57-2.22,4.17-2.9,1.6-.67,3.34-1.01,5.22-1.01s3.61.34,5.19,1.01c1.58.67,2.97,1.64,4.17,2.9,1.2,1.26,2.13,2.75,2.79,4.47.66,1.72.99,3.63.99,5.73s-.33,3.95-.99,5.7c-.66,1.74-1.59,3.24-2.79,4.5s-2.59,2.22-4.17,2.9c-1.58.67-3.31,1.01-5.19,1.01Z"/>
    <path class="st0" d="M154.84,304.65c0,2.06-.32,3.77-.96,5.13-.64,1.36-1.52,2.37-2.64,3.02-1.12.65-2.4.97-3.84.97-2.08,0-3.69-.66-4.83-1.98-1.14-1.32-1.71-3.39-1.71-6.2v-17.68h-9.36v19.13c0,3.48.58,6.35,1.74,8.59,1.16,2.25,2.79,3.91,4.89,5s4.49,1.64,7.17,1.64c2.48,0,4.77-.6,6.87-1.79,1.23-.7,2.27-1.63,3.15-2.73v4.02h8.88v-33.86h-9.36v16.74Z"/>
    <path class="st0" d="M185.91,287.41c-2.56,0-5.08.36-7.56,1.07-2.48.71-4.6,1.72-6.36,3.02l3.36,6.86c1.16-.96,2.57-1.73,4.23-2.3,1.66-.57,3.35-.85,5.07-.85,2.52,0,4.39.59,5.61,1.76,1.22,1.17,1.83,2.81,1.83,4.91h-7.44c-3.28,0-5.94.43-7.98,1.29-2.04.86-3.53,2.05-4.47,3.56-.94,1.51-1.41,3.27-1.41,5.29s.48,3.67,1.44,5.22c.96,1.55,2.34,2.78,4.14,3.68,1.8.9,3.96,1.35,6.48,1.35,2.84,0,5.16-.57,6.96-1.7,1.23-.77,2.17-1.81,2.88-3.07v4.26h8.76v-19.32c0-5.16-1.36-8.96-4.08-11.39-2.72-2.43-6.54-3.65-11.46-3.65ZM192.09,311.07c-.56,1.51-1.46,2.65-2.7,3.43-1.24.78-2.64,1.16-4.2,1.16-1.64,0-2.93-.37-3.87-1.1-.94-.73-1.41-1.73-1.41-2.99,0-1.13.41-2.08,1.23-2.83.82-.76,2.33-1.13,4.53-1.13h6.42v3.46Z"/>
    <rect class="st0" x="209.9" y="275.07" width="9.36" height="46.69"/>
    <path class="st0" d="M232.63,272.24c-1.72,0-3.12.52-4.2,1.57-1.08,1.05-1.62,2.35-1.62,3.9s.54,2.85,1.62,3.9c1.08,1.05,2.48,1.57,4.2,1.57s3.17-.54,4.23-1.61c1.06-1.07,1.59-2.42,1.59-4.06,0-1.55-.54-2.82-1.62-3.81-1.08-.99-2.48-1.48-4.2-1.48Z"/>
    <rect class="st0" x="227.95" y="287.91" width="9.36" height="33.86"/>
    <path class="st0" d="M264.3,313.21c-1.04.84-2.3,1.26-3.78,1.26-1.24,0-2.22-.39-2.94-1.16-.72-.78-1.08-1.88-1.08-3.3v-13.78h8.04v-7.55h-8.04v-8.24h-9.36v8.24h-4.98v7.55h4.98v13.91c0,4.03,1.06,7.06,3.18,9.09,2.12,2.04,5.08,3.05,8.88,3.05,1.44,0,2.83-.18,4.17-.54,1.34-.36,2.49-.89,3.45-1.6l-2.52-6.92Z"/>
    <path class="st0" d="M285.42,310.9l-9.06-22.99h-9.66l13.97,34.14-.11.28c-.64,1.51-1.35,2.59-2.13,3.24-.78.65-1.83.97-3.15.97-.92,0-1.85-.19-2.79-.57-.94-.38-1.77-.9-2.49-1.57l-3.42,6.99c1.04.96,2.38,1.72,4.02,2.27,1.64.54,3.3.82,4.98.82,1.96,0,3.75-.31,5.37-.94,1.62-.63,3.1-1.72,4.44-3.27,1.34-1.55,2.53-3.69,3.57-6.42l14.57-35.93h-9l-9.12,22.99Z"/>
    <path class="st0" d="M338.26,310.9l-9.06-22.99h-9.66l13.97,34.14-.11.28c-.64,1.51-1.35,2.59-2.13,3.24-.78.65-1.83.97-3.15.97-.92,0-1.85-.19-2.79-.57-.94-.38-1.77-.9-2.49-1.57l-3.42,6.99c1.04.96,2.38,1.72,4.02,2.27,1.64.54,3.3.82,4.98.82,1.96,0,3.75-.31,5.37-.94,1.62-.63,3.1-1.72,4.44-3.27,1.34-1.55,2.53-3.69,3.57-6.42l14.57-35.93h-9l-9.12,22.99Z"/>
    <path class="st0" d="M383.78,289.64c-2.68-1.49-5.72-2.23-9.12-2.23s-6.49.75-9.15,2.23c-2.66,1.49-4.76,3.55-6.3,6.17-1.54,2.62-2.31,5.63-2.31,9.03s.77,6.35,2.31,8.97c1.54,2.62,3.64,4.69,6.3,6.2,2.66,1.51,5.71,2.27,9.15,2.27s6.44-.76,9.12-2.27c2.68-1.51,4.78-3.58,6.3-6.2,1.52-2.62,2.28-5.61,2.28-8.97s-.76-6.46-2.28-9.06c-1.52-2.6-3.62-4.65-6.3-6.14ZM381.8,309.84c-.72,1.41-1.7,2.49-2.94,3.24-1.24.76-2.64,1.13-4.2,1.13s-2.96-.38-4.2-1.13c-1.24-.76-2.23-1.84-2.97-3.24s-1.11-3.07-1.11-5,.37-3.65,1.11-5.03c.74-1.38,1.73-2.45,2.97-3.21,1.24-.76,2.64-1.13,4.2-1.13s2.96.38,4.2,1.13c1.24.76,2.22,1.83,2.94,3.21.72,1.38,1.08,3.06,1.08,5.03s-.36,3.6-1.08,5Z"/>
    <path class="st0" d="M421.75,304.65c0,2.06-.32,3.77-.96,5.13-.64,1.36-1.52,2.37-2.64,3.02-1.12.65-2.4.97-3.84.97-2.08,0-3.69-.66-4.83-1.98-1.14-1.32-1.71-3.39-1.71-6.2v-17.68h-9.36v19.13c0,3.48.58,6.35,1.74,8.59,1.16,2.25,2.79,3.91,4.89,5s4.49,1.64,7.17,1.64c2.48,0,4.77-.6,6.87-1.79,1.23-.7,2.27-1.63,3.15-2.73v4.02h8.88v-33.86h-9.36v16.74Z"/>
    <path class="st0" d="M467.99,296.59c1.28-.76,2.72-1.13,4.32-1.13,1.48,0,2.85.38,4.11,1.13,1.26.76,2.31,1.93,3.15,3.52l7.26-4.09c-1.2-2.77-3.06-4.9-5.58-6.39-2.52-1.49-5.48-2.23-8.88-2.23s-6.58.75-9.3,2.23c-2.72,1.49-4.85,3.55-6.39,6.17-1.54,2.62-2.31,5.63-2.31,9.03s.77,6.36,2.31,9c1.54,2.64,3.67,4.71,6.39,6.2,2.72,1.49,5.82,2.23,9.3,2.23s6.36-.75,8.88-2.23,4.38-3.6,5.58-6.32l-7.26-4.15c-.84,1.64-1.89,2.82-3.15,3.56-1.26.73-2.63,1.1-4.11,1.1-1.6,0-3.04-.38-4.32-1.13s-2.29-1.83-3.03-3.21c-.74-1.38-1.11-3.06-1.11-5.03s.37-3.65,1.11-5.03c.74-1.38,1.75-2.45,3.03-3.21Z"/>
    <path class="st0" d="M505.24,287.41c-2.56,0-5.08.36-7.56,1.07-2.48.71-4.6,1.72-6.36,3.02l3.36,6.86c1.16-.96,2.57-1.73,4.23-2.3,1.66-.57,3.35-.85,5.07-.85,2.52,0,4.39.59,5.61,1.76s1.83,2.81,1.83,4.91h-7.44c-3.28,0-5.94.43-7.98,1.29-2.04.86-3.53,2.05-4.47,3.56-.94,1.51-1.41,3.27-1.41,5.29s.48,3.67,1.44,5.22c.96,1.55,2.34,2.78,4.14,3.68,1.8.9,3.96,1.35,6.48,1.35,2.84,0,5.16-.57,6.96-1.7,1.23-.77,2.17-1.81,2.88-3.07v4.26h8.76v-19.32c0-5.16-1.36-8.96-4.08-11.39-2.72-2.43-6.54-3.65-11.46-3.65ZM511.42,311.07c-.56,1.51-1.46,2.65-2.7,3.43s-2.64,1.16-4.2,1.16c-1.64,0-2.93-.37-3.87-1.1-.94-.73-1.41-1.73-1.41-2.99,0-1.13.41-2.08,1.23-2.83s2.33-1.13,4.53-1.13h6.42v3.46Z"/>
    <path class="st0" d="M555.71,289.01c-2.02-1.07-4.31-1.61-6.87-1.61-2.76,0-5.22.61-7.38,1.83-1.28.72-2.37,1.66-3.3,2.75v-4.07h-8.94v33.86h9.36v-16.74c0-2.1.33-3.82.99-5.16.66-1.34,1.58-2.34,2.76-2.99,1.18-.65,2.51-.97,3.99-.97,2.08,0,3.69.65,4.83,1.95,1.14,1.3,1.71,3.31,1.71,6.04v17.87h9.36v-19.38c0-3.44-.58-6.26-1.74-8.46-1.16-2.2-2.75-3.84-4.77-4.91Z"/>
    <path class="st0" d="M602.17,314.47c-1.24,0-2.22-.39-2.94-1.16-.72-.78-1.08-1.88-1.08-3.3v-13.78h8.04v-7.55h-8.04v-8.24h-9.36v8.24h-4.98v7.55h4.98v13.91c0,4.03,1.06,7.06,3.18,9.09,2.12,2.04,5.08,3.05,8.88,3.05,1.44,0,2.83-.18,4.17-.54,1.34-.36,2.49-.89,3.45-1.6l-2.52-6.92c-1.04.84-2.3,1.26-3.78,1.26Z"/>
    <path class="st0" d="M622.68,292.42v-4.51h-8.94v33.86h9.36v-15.98c0-3.23.79-5.61,2.37-7.14,1.58-1.53,3.65-2.3,6.21-2.3.36,0,.7.01,1.02.03.32.02.68.05,1.08.09v-9.06c-3.04,0-5.62.62-7.74,1.86-1.37.8-2.47,1.87-3.36,3.15Z"/>
    <path class="st0" d="M662.75,304.65c0,2.06-.32,3.77-.96,5.13-.64,1.36-1.52,2.37-2.64,3.02-1.12.65-2.4.97-3.84.97-2.08,0-3.69-.66-4.83-1.98-1.14-1.32-1.71-3.39-1.71-6.2v-17.68h-9.36v19.13c0,3.48.58,6.35,1.74,8.59,1.16,2.25,2.79,3.91,4.89,5s4.49,1.64,7.17,1.64c2.48,0,4.77-.6,6.87-1.79,1.23-.7,2.27-1.63,3.15-2.73v4.02h8.88v-33.86h-9.36v16.74Z"/>
    <path class="st0" d="M703.02,303.99c-1.14-.69-2.41-1.23-3.81-1.61-1.4-.38-2.79-.66-4.17-.85-1.38-.19-2.65-.41-3.81-.66-1.16-.25-2.09-.59-2.79-1.01-.7-.42-1.05-1.05-1.05-1.89,0-.92.48-1.68,1.44-2.27.96-.59,2.48-.88,4.56-.88,1.48,0,3.01.18,4.59.53,1.58.36,3.15,1.02,4.71,1.98l3.12-6.98c-1.52-.96-3.42-1.7-5.7-2.2-2.28-.5-4.52-.76-6.72-.76-3.12,0-5.8.47-8.04,1.42s-3.95,2.23-5.13,3.87c-1.18,1.64-1.77,3.52-1.77,5.66,0,1.93.35,3.5,1.05,4.72.7,1.22,1.63,2.18,2.79,2.89,1.16.71,2.44,1.25,3.84,1.61,1.4.36,2.79.64,4.17.85,1.38.21,2.65.42,3.81.63,1.16.21,2.09.51,2.79.91.7.4,1.05,1,1.05,1.79,0,.97-.45,1.72-1.35,2.27-.9.55-2.43.82-4.59.82-1.96,0-3.95-.3-5.97-.91-2.02-.61-3.77-1.39-5.25-2.36l-3.12,7.05c1.48,1.05,3.49,1.92,6.03,2.61,2.54.69,5.19,1.04,7.95,1.04,3.24,0,5.99-.46,8.25-1.38,2.26-.92,3.99-2.19,5.19-3.81,1.2-1.61,1.8-3.47,1.8-5.57,0-1.93-.36-3.49-1.08-4.69-.72-1.2-1.65-2.14-2.79-2.83Z"/>
    <path class="st0" d="M730.94,313.21c-1.04.84-2.3,1.26-3.78,1.26-1.24,0-2.22-.39-2.94-1.16-.72-.78-1.08-1.88-1.08-3.3v-13.78h8.04v-7.55h-8.04v-8.24h-9.36v8.24h-4.98v7.55h4.98v13.91c0,4.03,1.06,7.06,3.18,9.09,2.12,2.04,5.08,3.05,8.88,3.05,1.44,0,2.83-.18,4.17-.54,1.34-.36,2.49-.89,3.45-1.6l-2.52-6.92Z"/>
  </g>
  <g>
    <path class="st0" d="M235.06,252.11h-46.87v-14.48c-1.43,5.33-3.35,8.9-5.74,10.73-3.19,2.5-8.36,3.74-15.53,3.74h-52.57c-25.17,0-37.75-14.73-37.75-44.18v-71.39c0-29.45,12.53-44.18,37.59-44.18h116.81v26.46h-84.93c-7.61,0-11.42,3.33-11.42,9.98v86.86c0,6.66,3.81,9.98,11.42,9.98h19.75c7.45,0,11.18-3.33,11.18-9.98v-32.95h-31.4v-26.46h89.45v95.85Z"/>
    <path class="st0" d="M428.48,252.11h-63.52l-27.6-69.39h-17.84v69.39h-58.05V92.37h120.86c13,0,22.36,2.5,28.07,7.49,6.34,5.66,9.52,14.98,9.52,27.96v30.7c0,16.14-7.77,24.21-23.31,24.21l31.88,69.39ZM361.86,147.28v-19.47c0-3.49-.59-5.87-1.78-7.11-1.19-1.25-3.45-1.87-6.78-1.87h-33.78v37.44h33.78c5.71,0,8.56-2.99,8.56-8.99Z"/>
    <path class="st0" d="M575.98,252.11h-131.8V92.37h131.8v26.46h-73.75v37.44h67.56v26.46h-67.56v42.93h73.75v26.46Z"/>
    <path class="st0" d="M731.09,252.11h-131.8V92.37h131.8v26.46h-73.75v37.44h67.56v26.46h-67.56v42.93h73.75v26.46Z"/>
    <g>
      <path class="st0" d="M773.12,98.91c-.06-1.04-.8-4.82-3.49-5.72,0,0,4.02-1.18,4.02-5.26,0-4.28-3.68-5.49-7.16-5.49h-8.62v20.61h4.41v-8h2.29c1.26,0,3.23.14,3.76,2.68.53,2.56,1.51,5.32,1.51,5.32h4.47s-1.11-3.11-1.18-4.14ZM765.49,91.74h-3.22v-5.98s2.34-.09,3.92-.09,2.89,1.38,2.89,3.04-1.75,3.04-3.6,3.04Z"/>
      <path class="st0" d="M765.23,72.45c-10.63,0-19.23,9.03-19.23,20.18s8.61,20.18,19.23,20.18,19.23-9.03,19.23-20.18-8.61-20.18-19.23-20.18ZM765.23,108.6c-8.4,0-15.23-7.16-15.23-15.98s6.83-15.98,15.23-15.98,15.23,7.16,15.23,15.98-6.83,15.98-15.23,15.98Z"/>
    </g>
  </g>
</svg>