<?xml version="1.0" encoding="UTF-8"?>
<svg id="Layer_1" xmlns="http://www.w3.org/2000/svg" version="1.1" viewBox="0 0 799.02 301.99">
  <!-- Generator: Adobe Illustrator 29.2.0, SVG Export Plug-In . SVG Version: 2.1.0 Build 38)  -->
  <defs>
    <style>
      .st0 {
        fill: #ed7453;
      }

      .st1 {
        fill: #f7c257;
      }

      .st2 {
        fill: #fcf180;
      }

      .st3 {
        fill: #0e335a;
      }

      .st4 {
        fill: #4ec0b4;
      }

      .st5 {
        fill: #00a69a;
      }
    </style>
  </defs>
  <polygon class="st3" points="363.74 44.3 375.71 44.3 375.71 84.38 423.25 84.38 423.25 44.3 435.21 44.3 435.21 137.45 423.25 137.45 423.25 94.82 375.71 94.82 375.71 137.45 363.74 137.45 363.74 44.3"/>
  <path class="st3" d="M508.8,137.19c-1.77,1.23-4.35,1.85-7.72,1.85-5.97.09-9-3.39-9.08-10.44-6.1,6.96-13.78,10.44-23.04,10.44-6.1,0-11.16-1.53-15.2-4.58-4.2-2.97-6.34-7.74-6.43-14.32,0-3.95.66-7.13,1.98-9.55,1.2-2.5,2.85-4.46,4.96-5.86,2.23-1.49,4.65-2.65,7.25-3.5,2.56-.81,5.22-1.42,7.99-1.84,3.05-.59,5.92-1.06,8.61-1.4,2.64-.38,4.98-.83,7-1.34,4.21-.85,6.36-3.24,6.44-7.19,0-2.42-.37-4.41-1.11-5.98-.95-1.4-2.13-2.48-3.53-3.25-2.97-1.4-6.28-2.06-9.91-1.97-4.67,0-8.42.87-11.27,2.61-3.06,1.91-4.75,5.31-5.08,10.19h-10.69c.58-8.3,3.48-14.18,8.7-17.63,5.23-3.32,11.55-4.98,18.95-4.98,3.05,0,6.05.17,9.01.51,2.92.51,5.54,1.42,7.84,2.74,2.35,1.32,4.24,3.19,5.68,5.61,1.32,2.42,1.98,5.63,1.98,9.62v34.73c-.09,2.63.1,4.5.55,5.61.33,1.32,1.29,1.98,2.88,1.98.82,0,1.9-.21,3.25-.64v8.6ZM491.43,102.63c-2.11,1.49-4.94,2.44-8.5,2.86-3.64.55-7.32,1.12-11.04,1.72-3.64.51-6.72,1.64-9.24,3.37-2.65,1.74-3.97,4.65-3.97,8.72,0,3.57,1.32,6.13,3.97,7.7,2.44,1.48,5.36,2.23,8.75,2.23s6.64-.57,9.24-1.72c2.57-.93,4.66-2.18,6.27-3.76,3.02-3.31,4.53-6.58,4.53-9.8v-11.33Z"/>
  <path class="st3" d="M516.22,44.3h10.69v34.91h.25c1.85-3.84,4.69-6.6,8.52-8.26,3.79-1.67,7.9-2.5,12.34-2.5,10.12.17,17.71,3.7,22.77,10.58,4.9,6.75,7.34,15.06,7.34,24.91s-2.45,17.95-7.34,24.66c-5.06,6.75-12.57,10.24-22.53,10.45-3.46,0-7.16-.79-11.11-2.36-1.93-.89-3.74-2.04-5.43-3.44-1.77-1.27-3.29-2.86-4.57-4.78h-.25v8.98h-10.69V44.3ZM566.8,103.14c0-6.58-1.59-12.35-4.76-17.31-3.38-4.88-8.54-7.4-15.46-7.57-7.09.17-12.2,2.78-15.34,7.83-3.22,5.05-4.79,10.93-4.7,17.63,0,6.83,1.61,12.73,4.82,17.69,3.3,5.14,8.58,7.74,15.83,7.83,7.26-.08,12.41-2.82,15.46-8.21,2.85-5.13,4.23-11.09,4.15-17.89"/>
  <path class="st3" d="M599.29,57.8h-10.69v-13.5h10.69v13.5ZM588.6,69.97h10.69v67.47h-10.69v-67.47Z"/>
  <path class="st3" d="M626.57,69.97h13.05v9.81h-13.05v41.87c-.09,2.38.45,3.99,1.61,4.84,1.11.85,3.28,1.23,6.5,1.15h4.95v9.81h-8.2c-5.51.08-9.48-.87-11.9-2.87-2.43-1.91-3.64-5.86-3.64-11.85v-42.95h-11.12v-9.81h11.12v-20.2h10.69v20.2Z"/>
  <path class="st3" d="M705.44,137.19c-1.77,1.23-4.35,1.85-7.72,1.85-5.97.09-9-3.39-9.08-10.44-6.1,6.96-13.78,10.44-23.04,10.44-6.1,0-11.16-1.53-15.2-4.58-4.2-2.97-6.34-7.74-6.43-14.32,0-3.95.66-7.13,1.98-9.55,1.2-2.5,2.85-4.46,4.96-5.86,2.23-1.49,4.65-2.65,7.25-3.5,2.56-.81,5.22-1.42,7.99-1.84,3.05-.59,5.92-1.06,8.61-1.4,2.64-.38,4.98-.83,7-1.34,4.21-.85,6.36-3.24,6.44-7.19,0-2.42-.37-4.41-1.11-5.98-.95-1.4-2.13-2.48-3.53-3.25-2.97-1.4-6.28-2.06-9.91-1.97-4.67,0-8.42.87-11.27,2.61-3.06,1.91-4.75,5.31-5.08,10.19h-10.69c.58-8.3,3.48-14.18,8.7-17.63,5.23-3.32,11.55-4.98,18.95-4.98,3.05,0,6.05.17,9.01.51,2.92.51,5.54,1.42,7.84,2.74,2.35,1.32,4.24,3.19,5.68,5.61,1.32,2.42,1.98,5.63,1.98,9.62v34.73c-.09,2.63.1,4.5.55,5.61.33,1.32,1.29,1.98,2.88,1.98.82,0,1.9-.21,3.25-.64v8.6ZM688.07,102.63c-2.11,1.49-4.94,2.44-8.5,2.86-3.64.55-7.32,1.12-11.04,1.72-3.64.51-6.72,1.64-9.24,3.37-2.65,1.74-3.97,4.65-3.97,8.72,0,3.57,1.32,6.13,3.97,7.7,2.44,1.48,5.36,2.23,8.75,2.23s6.64-.57,9.24-1.72c2.57-.93,4.66-2.18,6.27-3.76,3.02-3.31,4.53-6.58,4.53-9.8v-11.33Z"/>
  <path class="st3" d="M727.31,69.97h13.05v9.81h-13.05v41.87c-.09,2.38.45,3.99,1.61,4.84,1.11.85,3.28,1.23,6.5,1.15h4.95v9.81h-8.2c-5.51.08-9.48-.87-11.9-2.87-2.43-1.91-3.64-5.86-3.64-11.85v-42.95h-11.12v-9.81h11.12v-20.2h10.69v20.2Z"/>
  <rect class="st3" x="363.74" y="161.07" width="12.2" height="94.95"/>
  <path class="st3" d="M390.5,187.24h10.31v10.84h.25c4.82-8.27,12.03-12.4,21.62-12.4,8.68.09,14.73,2.38,18.17,6.89,3.27,4.63,4.86,10.72,4.78,18.25v45.2h-10.9v-46.52c-.17-8.95-4.69-13.56-13.57-13.82-6.52.09-11.43,2.07-14.71,5.97-3.37,4.02-5.05,9.21-5.05,15.57v38.8h-10.9v-68.78Z"/>
  <path class="st3" d="M518.64,256.02h-10.9v-9.22h-.25c-1.89,3.7-4.72,6.39-8.5,8.07-3.78,1.85-8.04,2.77-12.79,2.77-10.16-.22-17.81-3.85-22.93-10.91-5.17-6.84-7.75-15.26-7.75-25.26s2.54-18.49,7.62-25.33c5.04-6.8,12.64-10.28,22.8-10.46,1.81,0,3.7.13,5.67.39,1.97.44,3.95,1.05,5.92,1.83,4.07,1.61,7.39,4.48,9.95,8.62h.25v-35.45h10.9v94.95ZM467.07,222.28c0,6.62,1.68,12.41,5.04,17.39,3.36,5.23,8.57,7.89,15.64,7.98,7.31-.09,12.57-2.83,15.76-8.24,3.07-5.15,4.6-11.03,4.6-17.65,0-7.01-1.6-13.08-4.79-18.23-3.24-5.15-8.66-7.76-16.27-7.85-7.31.17-12.46,2.88-15.45,8.11-3.11,5.32-4.63,11.48-4.54,18.49"/>
  <path class="st3" d="M544.23,174.83h-10.9v-13.76h10.9v13.76ZM533.33,187.24h10.9v68.78h-10.9v-68.78Z"/>
  <path class="st3" d="M615.87,255.76c-1.81,1.25-4.43,1.88-7.87,1.88-6.09.09-9.17-3.46-9.26-10.64-6.21,7.1-14.04,10.64-23.49,10.64-6.21,0-11.38-1.56-15.49-4.67-4.28-3.03-6.47-7.89-6.55-14.6,0-4.02.67-7.27,2.02-9.73,1.22-2.55,2.9-4.54,5.05-5.97,2.27-1.51,4.73-2.7,7.39-3.57,2.61-.82,5.32-1.45,8.15-1.88,3.11-.61,6.04-1.08,8.78-1.43,2.69-.39,5.07-.84,7.13-1.36,4.29-.86,6.48-3.31,6.57-7.33,0-2.46-.38-4.5-1.14-6.1-.97-1.43-2.17-2.53-3.6-3.31-3.03-1.43-6.4-2.1-10.1-2.01-4.76,0-8.59.89-11.49,2.66-3.11,1.95-4.84,5.41-5.18,10.39h-10.9c.59-8.46,3.54-14.46,8.87-17.97,5.33-3.39,11.77-5.08,19.32-5.08,3.1,0,6.17.17,9.19.52,2.98.52,5.64,1.45,7.99,2.79,2.39,1.34,4.32,3.25,5.79,5.72,1.34,2.47,2.01,5.74,2.01,9.81v35.4c-.09,2.69.1,4.59.56,5.72.33,1.34,1.31,2.01,2.94,2.01.83,0,1.94-.22,3.31-.65v8.76ZM598.16,220.53c-2.15,1.52-5.04,2.49-8.67,2.92-3.71.56-7.46,1.15-11.26,1.75-3.71.52-6.85,1.67-9.42,3.44-2.7,1.77-4.05,4.73-4.05,8.89,0,3.63,1.35,6.25,4.05,7.85,2.49,1.51,5.46,2.27,8.92,2.27,3.63,0,6.77-.58,9.42-1.75,2.61-.95,4.74-2.23,6.39-3.83,3.08-3.37,4.62-6.7,4.62-9.99v-11.55Z"/>
  <g>
    <path class="st5" d="M312.67,120.49c2.38,9.78,3.64,19.99,3.64,30.5,0,18.77-4.02,36.59-11.24,52.67.94-2.12,1.82-4.28,2.65-6.51,0,0-17.15,1.68-39.07-2.51l31.19-32.72c8.98-9.43,13.46-21.53,13.46-33.63,0-2.61-.21-5.22-.63-7.8"/>
    <path class="st0" d="M312.67,120.49c.42,2.59.63,5.2.63,7.8,0,12.09-4.47,24.2-13.46,33.63l-31.19,32.72c-8.55-1.62-17.84-4.15-27.11-8.02,7.4-35.29,1-67.87-9.66-94.57,19.15-17.28,48.69-16.69,67.13,1.75,4.39,4.39,7.77,9.42,10.14,14.78,1.36,3.88,2.54,7.85,3.51,11.9"/>
    <path class="st5" d="M312.67,120.49c-.97-4.05-2.15-8.02-3.51-11.9,1.69,3.83,2.86,7.83,3.51,11.9"/>
    <path class="st4" d="M307.73,197.15c-.84,2.23-1.72,4.39-2.66,6.51-.24.53-.48,1.04-.72,1.57-.42.94-.87,1.87-1.32,2.77-.09.17-.17.34-.25.5-8.78,17.53-20.57,30.31-28.4,37.58-.23.21-.45.41-.66.62-2.46,2.22-5.01,4.35-7.64,6.36-12.4-2.93-25.8-7.68-38.4-15.41l40.97-43c21.92,4.19,39.07,2.51,39.07,2.51"/>
    <path class="st5" d="M304.35,205.23c.24-.53.48-1.04.72-1.57-.22.53-.46,1.04-.72,1.57"/>
    <path class="st5" d="M303.04,207.99c.45-.9.89-1.83,1.32-2.77-.41.93-.86,1.85-1.32,2.77"/>
    <path class="st5" d="M309.16,108.59c-2.37-5.37-5.74-10.39-10.14-14.78-18.44-18.45-47.98-19.03-67.13-1.75-16.88-42.35-44.41-69.88-44.41-69.88,56.28,0,104.15,36.1,121.67,86.41"/>
    <path class="st5" d="M274.38,246.07c7.83-7.27,19.62-20.05,28.4-37.58-7.1,14.23-16.77,26.96-28.4,37.58"/>
    <path class="st2" d="M268.65,194.64l-40.97,43c-1.61-.97-3.22-2.01-4.79-3.1,9.45-16.32,15.39-32.38,18.66-47.92,9.27,3.87,18.56,6.4,27.11,8.02"/>
    <path class="st5" d="M266.08,253.05c2.63-2.01,5.18-4.14,7.64-6.36-4.57,4.19-7.62,6.36-7.62,6.36h-.02Z"/>
    <path class="st1" d="M231.89,92.05c10.65,26.69,17.06,59.28,9.66,94.57-20.85-8.68-41.65-24.17-54.06-51.51v-.85l42.68-40.57c.56-.56,1.15-1.11,1.73-1.64"/>
    <path class="st4" d="M231.89,92.05c-.58.53-1.17,1.08-1.73,1.64l-42.68,40.57-35.89-37.82c-2.4-2.42-4.99-4.54-7.7-6.4,16.92-41.2,43.6-67.87,43.6-67.87,0,0,27.53,27.53,44.41,69.88"/>
    <path class="st5" d="M227.68,237.64c12.6,7.74,26,12.48,38.4,15.41-21.75,16.79-49.01,26.76-78.59,26.76,3.03-3.03,5.93-6.08,8.67-9.11l31.52-33.07Z"/>
    <path class="st5" d="M227.68,237.64l-31.52,33.07c11.02-12.12,19.82-24.21,26.73-36.17,1.58,1.09,3.18,2.13,4.79,3.1"/>
    <path class="st2" d="M241.55,186.62c-3.27,15.54-9.21,31.6-18.66,47.92-13.99-9.62-26.66-23.25-35.4-42.51v-56.92c12.42,27.35,33.22,42.83,54.06,51.51"/>
    <path class="st0" d="M187.48,192.03c8.74,19.26,21.41,32.88,35.4,42.51-6.91,11.96-15.71,24.05-26.73,36.17l-8.67,9.11c-15.14-15.14-26.73-30.29-35.38-45.22,13.98-9.65,26.64-23.28,35.38-42.56"/>
    <path class="st5" d="M187.48,279.82l8.67-9.11c-2.75,3.03-5.64,6.08-8.67,9.11"/>
    <path class="st2" d="M187.48,135.11v56.92c-8.74,19.28-21.4,32.92-35.38,42.56-9.46-16.34-15.41-32.42-18.68-47.98,20.85-8.68,41.65-24.17,54.06-51.51"/>
    <path class="st1" d="M187.48,134.26v.85c-12.42,27.35-33.22,42.83-54.06,51.51-7.59-36.17-.66-69.51,10.47-96.57,2.71,1.85,5.3,3.98,7.7,6.4l35.89,37.82Z"/>
    <path class="st5" d="M187.48,279.82l-41.9-41.05c2.2-1.29,4.37-2.69,6.52-4.17,8.65,14.93,20.24,30.08,35.38,45.22"/>
    <path class="st5" d="M145.58,238.76l41.9,41.05c-29.54,0-56.76-9.94-78.49-26.68,11.82-2.78,24.53-7.24,36.59-14.37"/>
    <path class="st2" d="M152.1,234.6c-2.15,1.48-4.33,2.87-6.52,4.17l-44.15-43.26c9.84-1.56,20.92-4.26,31.99-8.88,3.27,15.56,9.22,31.64,18.69,47.98"/>
    <path class="st4" d="M101.43,195.5l44.15,43.26c-12.06,7.13-24.77,11.59-36.59,14.37-18.03-13.87-32.3-32.42-40.95-53.82-.27-.71-.55-1.43-.81-2.16,0,0,14.66,1.44,34.2-1.65"/>
    <path class="st5" d="M187.48,22.18s-26.67,26.67-43.59,67.87c-8.95-6.1-19.35-9.15-29.76-9.15-13.47,0-26.93,5.1-37.24,15.32-7.53,7.45-12.34,16.59-14.45,26.2l-.57-.12c13.04-57.34,64.34-100.12,125.62-100.12"/>
    <path class="st0" d="M143.89,90.05c-11.13,27.06-18.06,60.4-10.47,96.57-11.08,4.62-22.15,7.32-31.99,8.88l-23.73-23.26c-13.99-13.27-19.11-32.32-15.26-49.82,2.12-9.61,6.92-18.75,14.45-26.2,10.31-10.22,23.78-15.32,37.24-15.32,10.41,0,20.81,3.05,29.76,9.15"/>
    <path class="st5" d="M108.99,253.13h-.02s-27.54-19.21-40.93-53.82c8.65,21.41,22.92,39.95,40.95,53.82"/>
    <path class="st5" d="M77.7,172.24l23.73,23.26c-19.54,3.09-34.2,1.65-34.2,1.65.26.73.54,1.45.81,2.16-6.05-14.92-9.38-31.24-9.38-48.32,0-9.86,1.11-19.46,3.2-28.7l.57.12c-3.84,17.49,1.27,36.55,15.26,49.82"/>
  </g>
</svg>