<?xml version="1.0" encoding="UTF-8"?>
<svg id="Layer_1" xmlns="http://www.w3.org/2000/svg" version="1.1" viewBox="0 0 1080 1080">
  <!-- Generator: Adobe Illustrator 29.0.1, SVG Export Plug-In . SVG Version: 2.1.0 Build 192)  -->
  <defs>
    <style>
      .st0 {
        fill: #12100b;
      }

      .st1 {
        fill: none;
      }

      .st2 {
        fill: #1d1d1b;
      }

      .st3 {
        fill: #e11018;
      }
    </style>
  </defs>
  <g>
    <path class="st0" d="M605.41,432.37l-14.43-19.74,34.53-44.83h25.69l1.88,2.58-47.67,61.99ZM686.21,542.79l-28.18-38.51,47.62-61.99,28.18,38.55-.04.07,15.58,21.33,103.38-134.45h77.51l-91.42,119.02h.08l-100.86,131.33h-77.52l29.41-38.3,11.99-15.63-15.71-21.46-.03.03Z"/>
    <path class="st3" d="M444.74,462.23l-69.12-94.43h93.04l23.78,32.57-47.69,61.86ZM557.22,615.87l-59.84-81.73,47.61-61.8,21.84,29.9,103.36-134.45h77.53l-190.51,248.07Z"/>
    <path class="st1" d="M444.74,462.23l-69.12-94.43h93.04l23.78,32.57-47.69,61.86ZM557.22,615.87l-59.84-81.73,47.61-61.8,21.84,29.9,103.36-134.45h77.53l-190.51,248.07Z"/>
    <polygon class="st0" points="107.43 618.16 297.67 370.43 313.18 370.43 418.98 515.31 532.7 367.8 610.37 367.8 417.53 618.16 401.5 618.16 295.63 473.89 184.97 618.16 107.43 618.16"/>
  </g>
  <g>
    <g>
      <path class="st0" d="M242.1,669.98v5.99c0,12.3-8.51,18.93-24.15,18.93h-6.45v31.01h-14.54v-74.85h20.99c15.64,0,24.15,6.63,24.15,18.93ZM211.5,661.53v22.88h5.9c7,0,10.15-2.89,10.15-9.2v-4.49c0-6.31-3.16-9.2-10.15-9.2h-5.9Z"/>
      <path class="st0" d="M285.59,725.9l-11.52-31.65h-6.72v31.65h-14.54v-74.85h20.99c15.64,0,24.15,6.63,24.15,18.93v5.35c0,7.91-3.57,13.47-10.29,16.47l13.31,34.11h-15.37ZM267.34,661.53v22.24h5.9c7,0,10.15-2.89,10.15-9.19v-3.85c0-6.31-3.16-9.2-10.15-9.2h-5.9Z"/>
      <path class="st0" d="M326.06,725.9h-14.54v-74.85h14.54v74.85Z"/>
      <path class="st0" d="M386.7,669.98v37c0,12.3-8.51,18.93-24.15,18.93h-20.85v-74.85h20.85c15.64,0,24.15,6.63,24.15,18.93ZM356.24,661.53v53.89h5.76c7,0,10.15-2.89,10.15-9.19v-35.5c0-6.31-3.16-9.2-10.15-9.2h-5.76Z"/>
      <path class="st0" d="M441.72,661.53h-26.34v21.17h21.27v10.48h-21.27v22.24h26.34v10.48h-40.89v-74.85h40.89v10.48Z"/>
      <path class="st0" d="M525.54,668.91v39.14c0,11.76-8.92,18.92-23.46,18.92s-23.46-7.16-23.46-18.92v-39.14c0-11.76,8.92-18.93,23.46-18.93s23.46,7.16,23.46,18.93ZM493.16,669.01v38.92c0,5.56,3.15,8.55,8.92,8.55s8.92-3,8.92-8.55v-38.92c0-5.56-3.16-8.55-8.92-8.55s-8.92,2.99-8.92,8.55Z"/>
      <path class="st0" d="M579.87,661.53h-25.66v21.17h20.58v10.48h-20.58v32.72h-14.54v-74.85h40.2v10.48Z"/>
      <path class="st0" d="M628.02,725.9h-14.54v-74.85h14.54v74.85Z"/>
      <path class="st0" d="M690.99,725.9h-14.27l-19.07-49.61h-.27v49.61h-13.72v-74.85h16.19l17.15,44.59h.27v-44.59h13.72v74.85Z"/>
      <path class="st0" d="M751.63,669.98v37c0,12.3-8.51,18.93-24.15,18.93h-20.85v-74.85h20.85c15.64,0,24.15,6.63,24.15,18.93ZM721.17,661.53v53.89h5.76c7,0,10.15-2.89,10.15-9.19v-35.5c0-6.31-3.16-9.2-10.15-9.2h-5.76Z"/>
      <path class="st0" d="M780.3,725.9h-14.54v-74.85h14.54v74.85Z"/>
      <path class="st0" d="M842.45,725.9h-14.82l-3.16-17h-16.05l-3.16,17h-14.54l16.6-74.85h18.52l16.6,74.85ZM816.24,667.09l-5.9,31.54h12.21l-5.9-31.54h-.41Z"/>
    </g>
    <rect class="st0" x="107.52" y="658.58" width="70.65" height="16.2"/>
    <rect class="st0" x="107.52" y="701.11" width="70.65" height="16.2"/>
    <rect class="st0" x="860.31" y="658.58" width="70.65" height="16.2"/>
    <rect class="st0" x="860.31" y="701.11" width="70.65" height="16.2"/>
  </g>
  <g>
    <path class="st2" d="M955.55,353.03c-9.38,0-17.02,7.63-17.02,17s7.64,17.02,17.02,17.02,17.02-7.62,17.02-17.02-7.64-17-17.02-17ZM955.55,385.49c-8.52,0-15.47-6.92-15.47-15.46s6.95-15.44,15.47-15.44,15.45,6.94,15.45,15.44-6.93,15.46-15.45,15.46Z"/>
    <path class="st2" d="M961.81,371.96c.63-.4,1.19-.87,1.66-1.44.46-.55.83-1.22,1.09-1.94.27-.74.4-1.56.4-2.47v-.07c0-.96-.15-1.86-.47-2.66-.32-.8-.77-1.52-1.36-2.14-.73-.7-1.63-1.23-2.7-1.62-1.09-.4-2.33-.59-3.73-.59h-9.92v22.25h3.88v-7.75h4.9l5.49,7.75h4.61l-6.01-8.41c.78-.22,1.51-.53,2.16-.91ZM950.66,370.07v-7.5h5.71c1.48,0,2.62.3,3.41.94.8.62,1.22,1.54,1.22,2.76v.06c0,1.15-.43,2.06-1.26,2.73-.83.67-1.94,1.01-3.34,1.01h-5.74Z"/>
  </g>
</svg>