<?xml version="1.0" encoding="UTF-8"?>
<svg id="Layer_1" xmlns="http://www.w3.org/2000/svg" version="1.1" viewBox="0 0 720 720">
  <!-- Generator: Adobe Illustrator 29.0.1, SVG Export Plug-In . SVG Version: 2.1.0 Build 192)  -->
  <defs>
    <style>
      .st0 {
        fill: #231f20;
      }
    </style>
  </defs>
  <g>
    <path class="st0" d="M364.36,255.09c.11,3.49-2.66,7.75-6.26,7.86-3.6.12-6.65-3.95-6.76-7.44-.12-3.49,2.71-6.41,6.3-6.53,3.6-.12,6.6,2.61,6.72,6.1"/>
    <path class="st0" d="M668.8,265.03c-1.74-.52-3.58.47-4.1,2.22-6.79,22.84-38.92,17.04-57.46,11.54-9.99-2.96-18.32-4.66-26.22-5.35-25.74-2.26-46.28,8.94-59.38,32.36-4.94,8.84-7.86,18.1-10.68,27.06-1.02,3.25-2.08,6.62-3.23,9.93-2.29,6.63-7.73,14.39-14.7,16.76-4.08,1.39-8.22.73-12.29-1.95-8.57-5.65-9.33-19.53-9.89-29.66l-.02-.38c8.23-11.45,10.92-28,10.24-42.8-.43-9.48-3.64-10.59-4.69-10.95-1.18-.41-3.53-.67-6.02,2.22-.08.09-.15.18-.23.27-13.58-.97-30.59,7.24-38.73,16.21-5.63,6.2-9.15,13.59-12.55,20.73-1.35,2.82-2.74,5.74-4.22,8.49-8.11,15.02-16.89,25.31-24.1,28.22-2.78,1.12-5.59,1.76-8.33,1.87-5.68.23-10.65-2-13.6-6.14-4.29-6.02-6.31-14.23-7.6-20.71-.81-4.1-1.42-8.37-1.86-13.04.95-3.59,1.54-6.45,1.83-11.3.24-4.15.77-17.94-2.69-20.94-.95-.82-2.18-1.15-3.39-.91-3.24.66-3.24,4.4-3.24,6.42v.18c-.2,4.92-.09,7.69.06,11.52.04,1.12.09,2.33.14,3.73.12,3.76.33,7.32.62,10.71-.11.42-.23.85-.35,1.3l-.49,1.79c-.97,3.6-2.02,6.12-4.51,8.35-3.35,3-6.27,4.96-9.2,6.16-18.95,7.78-35.19,6.6-47.74,1.07,5.26-8.38,8.15-17.4,8.37-26.28.13-5.22-.73-10.53-2.5-15.35-1.46-3.98-3.5-7.59-6.06-10.72-1.33-1.63-2.79-3.31-4.79-4.52-1.77-1.07-3.66-1.67-5.33-2.19l-.59-.19c-3.35-1.07-6.81-1.2-10.9-.41-1.54.3-3.11.66-4.57,1.24-23.2.15-45.78,23.48-65.77,44.14-16.13,16.67-31.37,32.42-43.19,32.56-.12,0-.24,0-.36,0-19.94,0-30.25-19.1-39.36-35.97-1.19-2.21-2.32-4.3-3.47-6.34-11.66-20.8-27-39.48-59.96-35.36-1.81.23-3.09,1.87-2.86,3.68.23,1.81,1.87,3.09,3.68,2.86,27.57-3.45,40.87,9.71,53.39,32.04,1.12,2,2.24,4.07,3.42,6.25,9.55,17.69,21.42,39.74,45.6,39.43,14.57-.17,29.99-16.11,47.85-34.57,8.88-9.18,18.29-18.91,27.88-26.7-8.2,9.55-14.12,21.16-16.1,33.04-1.28,7.67-1.37,18.39,5.46,25.93,6.45,7.11,17.89,9.42,30.62,6.18,13.91-3.54,26.7-11.91,35.61-23.19,4.88,2.25,10.11,3.81,15.64,4.63,12.28,1.83,25.96,0,38.53-5.16,3.64-1.49,7.17-3.83,11.1-7.34,1.07-.96,1.96-1.95,2.72-2.99.1.52.19,1.04.29,1.55,1.41,7.13,3.68,16.21,8.7,23.25,4.27,5.99,11.28,9.22,19.24,8.9,3.5-.15,7.04-.93,10.53-2.35,11.19-4.53,21.09-19.47,27.43-31.21.13-.25.27-.5.4-.75,0,.87.03,1.75.12,2.63.59,5.67,2.97,9.9,7.08,12.6,8.33,5.46,20.87,2.35,25.87.76,4.1-1.3,7.66-3.31,10.73-5.85.82,10.53,2.98,22.61,12.47,28.87,3.78,2.49,7.75,3.75,11.73,3.75,2.11,0,4.22-.35,6.3-1.06,7.99-2.72,15.37-10.9,18.81-20.85,1.18-3.4,2.25-6.81,3.28-10.11,2.84-9.04,5.53-17.58,10.14-25.82,11.74-20.99,30.08-31.02,53.05-29.01,7.45.65,15.36,2.27,24.92,5.11,9.55,2.83,23.61,5.99,36.33,4.99,15.47-1.22,25.61-8.48,29.32-20.98.52-1.74-.47-3.58-2.22-4.1M249.04,352.35c-3.87.98-17.03,3.59-24.11-4.22-5.33-5.87-4.69-15.31-3.84-20.41,3.11-18.63,16.87-36.52,33.53-45.19-3.77,11.32,2.17,25.19,10.37,35.84,4.39,5.71,9.57,10.4,15.38,14-7.98,9.7-19.18,16.88-31.33,19.98M284.32,326.93c-5.73-3.47-10.48-7.86-14.12-12.58-3.01-3.91-17.41-24-5.56-35.69.04-.04.09-.08.13-.12.55-.15,1.1-.29,1.66-.41.68-.15,1.27-.51,1.71-1,.58-.14,1.11-.24,1.5-.32,3-.58,5.35-.51,7.63.22l.61.19c1.45.46,2.81.89,3.91,1.55,1.1.66,2.13,1.87,3.09,3.05,2.09,2.56,3.76,5.53,4.97,8.82,1.49,4.05,2.21,8.52,2.1,12.91-.2,7.84-2.84,15.88-7.65,23.39M463.89,299.86v.93c-.07,8.03-.13,16.31.23,24.53-3.19,3.9-7.21,6.89-12.2,8.47-8.55,2.72-16.13,2.72-20.26.01-2.41-1.58-3.76-4.11-4.14-7.76-.4-3.84.62-7.84,1.55-10.89,2.98-9.78,7.56-17.51,13.63-22.98,5.35-4.82,15.53-8.63,23.59-9.24-2.08,5.43-2.36,11.44-2.4,16.92M470.48,300.85v-.93c.05-5.81.37-12.27,3.21-17.22.19-.11.37-.23.54-.38.12.81.22,1.74.26,2.73.43,9.32-.67,19.9-4.05,28.93-.03-4.41,0-8.81.03-13.13"/>
  </g>
  <g>
    <path class="st0" d="M141,418.23l2.59,1.26c-2.57,5.02-5.23,11.49-8,19.38,1.76,0,2.97.08,3.62.23l-.23,3.28c-.81.27-2.38.4-4.72.4-.81,2.22-1.29,4.03-1.44,5.41-.15,1.38-.28,2.72-.37,4.03-.1,1.3-.16,2.19-.2,2.65h-3.22c-.19-.65-.29-1.32-.29-2.01,0-2.38.63-5.73,1.9-10.07-2.3,0-5.79.27-10.47.8-.19.61-.67,1.75-1.44,3.42-.77,1.67-1.52,3.12-2.27,4.34-.75,1.23-1.75,2.57-3.02,4.03-1.27,1.46-2.59,2.68-3.97,3.68-3.95,2.84-7.79,4.26-11.5,4.26-1.53,0-2.8-.48-3.8-1.44-1-.96-1.5-2.17-1.5-3.62,0-3.68,2.12-7.03,6.36-10.04,4.24-3.01,10.11-5.42,17.63-7.22,2.84-8.28,6.83-14.19,11.96-17.72-5.56.08-10.14,1.02-13.75,2.82-3.6,1.8-5.41,4.1-5.41,6.9,0,.88.13,1.64.4,2.27.27.63.9,1.62,1.9,2.96l-1.96,1.84c-1.69-1.07-2.97-2.38-3.85-3.91-.88-1.53-1.32-3.01-1.32-4.43,0-2.38,1.27-4.57,3.8-6.59,2.53-2.01,5.67-3.57,9.43-4.66,3.76-1.09,7.57-1.64,11.45-1.64,1.96,0,3.31.14,4.06.43.75.29,1.12.83,1.12,1.61s-.56,1.52-1.67,2.21c-4.79,2.99-8.65,8.67-11.56,17.03,2.26-.38,5.77-.8,10.53-1.26,1.84-5.37,3.33-9.35,4.46-11.94,1.13-2.59,2.71-5.49,4.75-8.71ZM102.6,459.36c1.4,0,3.05-.62,4.95-1.87,1.9-1.25,3.49-2.88,4.77-4.89,1.28-2.01,2.39-4.78,3.31-8.31-5.1.84-9.21,2.33-12.34,4.46-3.13,2.13-4.69,4.54-4.69,7.22,0,1.07.32,1.91.95,2.5s1.65.89,3.05.89Z"/>
    <path class="st0" d="M161.36,448.08l1.32,1.04c-1.19,1.65-2.82,3.02-4.89,4.11-2.07,1.09-4.08,1.64-6.04,1.64s-3.53-.58-4.72-1.73c-1.19-1.15-1.78-2.67-1.78-4.54,0-3.53,1.87-7,5.61-10.41s7.53-5.12,11.36-5.12c2.53,0,3.8,1,3.8,2.99s-1.33,4.16-4,6.27c-2.67,2.11-6.41,4.03-11.25,5.75.35.88.88,1.57,1.61,2.07.73.5,1.48.75,2.24.75,1.65,0,3.89-.94,6.73-2.82ZM150.49,446.36c3.11-1.07,5.77-2.42,8-4.03,2.22-1.61,3.34-3.09,3.34-4.43,0-.5-.19-.94-.58-1.32-.38-.38-.82-.58-1.32-.58-1.8,0-3.75,1.12-5.84,3.36-2.09,2.24-3.29,4.57-3.59,6.99Z"/>
    <path class="st0" d="M190.63,447.91l1.21.92c-.84,1.69-2,3.11-3.48,4.26-1.48,1.15-2.81,1.73-4,1.73s-2.13-.35-2.82-1.04c-.69-.69-1.04-1.55-1.04-2.59s.66-2.85,1.98-5.44c1.32-2.59,1.98-4.5,1.98-5.72,0-.54-.22-1.03-.66-1.47-.44-.44-.97-.66-1.58-.66-1.96,0-3.93,1.49-5.92,4.46-1.99,2.97-4.22,7.26-6.67,12.86l-3.45-1.21c.73-4.45,1.77-8.79,3.13-13.03,1.36-4.24,2.62-7.28,3.77-9.12l2.36.75c-1.07,2.72-2.44,7.42-4.08,14.09,5.29-9.05,10.16-13.57,14.61-13.57.96,0,1.75.33,2.39.98.63.65.95,1.42.95,2.3s-.12,1.68-.35,2.39c-.23.71-.95,2.36-2.16,4.95-1.21,2.59-1.81,4.21-1.81,4.86s.19,1.16.58,1.52c.38.36.75.55,1.09.55s.63-.06.86-.17c.23-.11.49-.29.78-.52.29-.23.55-.44.78-.63.23-.19.51-.45.83-.78.33-.33.56-.55.72-.66Z"/>
    <path class="st0" d="M216.69,447.91l1.21.92c-.84,1.69-2,3.11-3.48,4.26-1.48,1.15-2.81,1.73-4,1.73s-2.13-.35-2.82-1.04c-.69-.69-1.04-1.55-1.04-2.59s.66-2.85,1.98-5.44c1.32-2.59,1.98-4.5,1.98-5.72,0-.54-.22-1.03-.66-1.47-.44-.44-.97-.66-1.58-.66-1.96,0-3.93,1.49-5.92,4.46-1.99,2.97-4.22,7.26-6.67,12.86l-3.45-1.21c.73-4.45,1.77-8.79,3.13-13.03,1.36-4.24,2.62-7.28,3.77-9.12l2.36.75c-1.07,2.72-2.44,7.42-4.08,14.09,5.29-9.05,10.16-13.57,14.61-13.57.96,0,1.75.33,2.39.98.63.65.95,1.42.95,2.3s-.12,1.68-.35,2.39c-.23.71-.95,2.36-2.16,4.95-1.21,2.59-1.81,4.21-1.81,4.86s.19,1.16.58,1.52c.38.36.75.55,1.09.55s.63-.06.86-.17c.23-.11.49-.29.78-.52.29-.23.55-.44.78-.63.23-.19.51-.45.83-.78.33-.33.56-.55.72-.66Z"/>
    <path class="st0" d="M241.71,448.54l1.21.98c-.65,1.61-1.68,2.97-3.08,4.08-1.4,1.11-2.67,1.67-3.8,1.67s-2.02-.39-2.67-1.18c-.65-.79-.98-1.81-.98-3.08s.21-2.89.63-4.89c-1.8,2.84-3.74,5.06-5.81,6.67-2.07,1.61-3.82,2.42-5.23,2.42-2.15,0-3.22-1.53-3.22-4.6,0-2.61.88-5.94,2.65-10.01,1.76-4.06,3.05-6.42,3.85-7.08l2.76,1.21c-1.57,2.53-2.76,5.02-3.57,7.48s-1.21,4.09-1.21,4.92.26,1.49.78,1.98c.52.5,1.12.75,1.81.75,1.53,0,3.44-1.41,5.72-4.23,2.28-2.82,4.61-7.03,6.99-12.62l2.93,1.32c-.08.31-.95,2.53-2.62,6.67-1.67,4.14-2.5,6.62-2.5,7.45s.18,1.45.55,1.87c.36.42.73.63,1.09.63s.64-.02.83-.06c.19-.04.38-.12.58-.23.19-.12.35-.21.49-.29.13-.08.3-.21.49-.4l.46-.4c.08-.12.22-.3.43-.55.21-.25.35-.41.43-.49Z"/>
    <path class="st0" d="M259.43,434.51c.96,0,1.74.33,2.36.98.61.65.92,1.5.92,2.53,0,2.07-1.19,4.26-3.57,6.56l-1.38-1.09c.54-1.19.81-2.05.81-2.59,0-1.04-.58-1.55-1.73-1.55s-2.24.73-3.28,2.19c-1.04,1.46-2.25,3.71-3.65,6.76-1.4,3.05-2.46,5.21-3.19,6.47l-3.28-1.44c2.11-4.79,3.32-7.61,3.62-8.46,1.04-2.99,1.55-6.79,1.55-11.39l3.22-.86c-.11,2.49-.29,4.42-.52,5.78-.23,1.36-.79,3.58-1.67,6.64,3.87-7.02,7.13-10.53,9.78-10.53Z"/>
    <path class="st0" d="M305.62,458.61l.29,2.7c-1.07.19-2.01.29-2.82.29-1.8,0-3.53-1.2-5.18-3.59-1.65-2.4-2.94-5.21-3.88-8.43-.94-3.22-1.52-6.33-1.75-9.32-1.92,4.99-3.73,8.6-5.44,10.84-1.71,2.24-3.46,3.36-5.26,3.36-.92,0-1.65-.37-2.19-1.12-.54-.75-.81-1.73-.81-2.96,0-2.84,1.31-6.44,3.94-10.81,2.63-4.37,5.7-7.96,9.23-10.76.08-.23.41-1.63,1.01-4.2.59-2.57.95-3.99,1.06-4.26l3.34-.29c0,.65-.17,2.01-.52,4.08,5.18-3.95,9.43-5.92,12.77-5.92,1.57,0,2.82.43,3.74,1.29.92.86,1.38,2.02,1.38,3.48,0,3.64-1.84,7.32-5.52,11.02s-7.61,5.88-11.79,6.53c.31,5.56,1.27,9.91,2.9,13.06,1.63,3.14,3.46,4.81,5.49,5ZM288.88,439.4c1.04-2.76,1.74-4.97,2.13-6.62-2.11,1.96-4.06,4.56-5.84,7.82-1.78,3.26-2.67,5.67-2.67,7.25,0,.81.33,1.21.98,1.21,1.15,0,2.95-3.22,5.41-9.66ZM292.79,438.59c4.06,0,7.71-1.42,10.93-4.26,3.22-2.84,4.83-5.66,4.83-8.46,0-1.04-.26-1.84-.78-2.42s-1.33-.86-2.44-.86-2.72.62-4.83,1.87c-2.11,1.25-3.62,2.27-4.54,3.08-1.19,4.72-2.24,8.4-3.16,11.04Z"/>
    <path class="st0" d="M326.38,437.79c1,1.65,1.5,3.47,1.5,5.46,0,3.11-1.07,5.88-3.22,8.31-2.15,2.44-4.68,3.65-7.59,3.65-2.22,0-3.96-.64-5.21-1.93-1.25-1.28-1.87-3.06-1.87-5.32,0-3.64,1.42-6.91,4.26-9.81,2.84-2.89,6.02-4.34,9.55-4.34.65,0,1.11.02,1.38.06l.17,1.9c-3.07,0-5.62.88-7.65,2.65-2.03,1.76-3.05,4.03-3.05,6.79,0,1.65.4,2.98,1.21,4,.81,1.02,1.98,1.52,3.54,1.52s2.79-.69,3.71-2.07c.92-1.38,1.38-3,1.38-4.86s-.36-3.56-1.09-5.09l2.99-.92Z"/>
    <path class="st0" d="M353.07,449.06l1.32.98c-.54,1.15-1.52,2.24-2.96,3.28-1.44,1.04-2.75,1.55-3.94,1.55-2.26,0-3.39-1.19-3.39-3.57,0-1.11.29-2.43.86-3.97l-2.13,2.19c-2.07,2.11-3.86,3.53-5.38,4.26-1.52.73-3,1.09-4.46,1.09s-2.56-.41-3.31-1.24c-.75-.82-1.12-1.96-1.12-3.42,0-2.68,1.04-5.34,3.11-7.97,2.07-2.63,4.72-4.76,7.94-6.41,3.22-1.65,6.44-2.49,9.66-2.53l.12,1.9-2.42.52c-3.49.77-6.57,2.3-9.23,4.6-2.67,2.3-4,4.59-4,6.87s.92,3.42,2.76,3.42c1.73,0,3.85-1.21,6.38-3.62,2.53-2.42,4.64-5.25,6.33-8.51l2.42,1.44c-2.38,4.79-3.57,7.84-3.57,9.15,0,.54.18.99.55,1.35.36.37.73.55,1.09.55s.6-.02.72-.06c.12-.04.23-.09.35-.14.12-.06.26-.14.43-.26.17-.11.33-.23.46-.34.13-.12.35-.29.66-.52.31-.23.56-.42.75-.58Z"/>
    <path class="st0" d="M387.18,412.36l2.93,1.04-.8,1.5c-4.22,7.86-7.8,15.47-10.76,22.84-1.96,4.83-2.93,8.46-2.93,10.87,0,.61.15,1.1.46,1.47.31.36.79.55,1.47.55s1.45-.44,2.33-1.32l1.04.98c-.5,1.11-1.36,2.14-2.59,3.08-1.23.94-2.42,1.41-3.57,1.41-2.22,0-3.34-1.3-3.34-3.91,0-1.53.42-3.89,1.27-7.08-4.53,7.9-8.95,11.85-13.29,11.85-1.5,0-2.68-.46-3.57-1.38-.88-.92-1.32-2.17-1.32-3.74,0-2.49,1-5.08,2.99-7.76,1.99-2.68,4.45-4.88,7.36-6.59,2.91-1.71,5.64-2.56,8.17-2.56l.17,2.01c-3.3.42-6.38,1.85-9.23,4.29-2.86,2.44-4.28,4.92-4.28,7.45,0,1.07.29,1.93.86,2.56s1.32.95,2.24.95c1.88,0,4.33-2.01,7.36-6.04,1.11-1.46,2.39-3.58,3.83-6.38,1.44-2.8,2.59-5.05,3.45-6.76.86-1.71,1.71-3.37,2.53-5,.82-1.63,1.91-3.78,3.25-6.44,1.34-2.67,2.67-5.28,3.97-7.85Z"/>
    <path class="st0" d="M386.34,451.22c.52-.48,1.15-.72,1.9-.72s1.33.22,1.75.66c.42.44.63,1.03.63,1.75,0,1.69-1.46,3.59-4.37,5.69l-1.27-1.84c1.53-1.23,2.32-1.88,2.36-1.96-1.19-.38-1.78-1-1.78-1.84,0-.69.26-1.27.78-1.75Z"/>
    <path class="st0" d="M447.17,444.46l-.06,2.24-3.16.12c-.46,2.68-1.2,4.85-2.21,6.5-1.02,1.65-2.71,3.43-5.09,5.35-2.38,1.92-5.23,3.52-8.54,4.8-3.32,1.28-6.09,1.93-8.31,1.93s-3.91-.45-5.06-1.35c-1.15-.9-1.73-2.08-1.73-3.54,0-2.22,1.31-4.46,3.94-6.7,2.63-2.24,5.81-4.12,9.55-5.64,3.74-1.51,7.45-2.54,11.13-3.08-.58-.96-1.45-1.75-2.62-2.36-1.17-.61-3.15-1.3-5.95-2.07-1.53-.42-2.3-1.11-2.3-2.07,0-.58.24-1.1.72-1.58.48-.48,1.28-1.05,2.42-1.73,1.13-.67,2.2-1.36,3.22-2.07,1.02-.71,2.15-1.56,3.39-2.56s2.29-2.03,3.13-3.11c.84-1.07,1.27-2.01,1.27-2.82,0-1.34-.67-2.01-2.01-2.01-1.04,0-2.45.49-4.23,1.47-1.78.98-3.54,2.23-5.26,3.77l-2.47,7.82c-1.73,5.48-3.63,9.74-5.72,12.77-2.09,3.03-4.08,4.54-5.95,4.54-1.99,0-2.99-1.23-2.99-3.68s1.19-5.59,3.57-9.4c2.38-3.82,5.67-7.74,9.89-11.76,0-.04.1-.39.32-1.06s.41-1.35.6-2.04c.65-2.07,1.15-3.39,1.5-3.97l2.82.46c0,.73-.15,1.59-.46,2.59,2.15-1.61,4.42-3.02,6.82-4.23,2.4-1.21,4.16-1.81,5.29-1.81s2.04.35,2.73,1.06c.69.71,1.04,1.75,1.04,3.11s-.64,2.92-1.93,4.69c-1.29,1.76-2.89,3.36-4.8,4.77-3.49,2.61-6.46,4.49-8.92,5.64,3.99.61,6.9,1.43,8.74,2.44,1.84,1.02,3.18,2.54,4.03,4.57h3.68ZM419.22,445.78c2.68-4.33,4.47-8.78,5.35-13.34-2.07,2.26-3.95,4.85-5.64,7.76-1.69,2.92-2.53,5.02-2.53,6.33,0,.81.28,1.21.83,1.21s1.22-.65,1.98-1.96ZM432.56,458.09c1.88-1.26,3.37-2.68,4.49-4.26,1.11-1.57,1.67-3.05,1.67-4.43,0-.65-.1-1.3-.29-1.96-5.75.69-10.49,2.2-14.21,4.51-3.72,2.32-5.58,4.54-5.58,6.64,0,.92.36,1.66,1.09,2.21.73.56,1.73.83,2.99.83,3.11,0,6.38-1.19,9.84-3.57Z"/>
    <path class="st0" d="M473.51,449.06l1.32.98c-.54,1.15-1.52,2.24-2.96,3.28-1.44,1.04-2.75,1.55-3.94,1.55-2.26,0-3.39-1.19-3.39-3.57,0-1.11.29-2.43.86-3.97l-2.13,2.19c-2.07,2.11-3.86,3.53-5.38,4.26-1.52.73-3,1.09-4.46,1.09s-2.56-.41-3.31-1.24c-.75-.82-1.12-1.96-1.12-3.42,0-2.68,1.04-5.34,3.11-7.97,2.07-2.63,4.72-4.76,7.94-6.41,3.22-1.65,6.44-2.49,9.66-2.53l.11,1.9-2.42.52c-3.49.77-6.57,2.3-9.23,4.6s-4,4.59-4,6.87.92,3.42,2.76,3.42c1.73,0,3.85-1.21,6.38-3.62,2.53-2.42,4.64-5.25,6.33-8.51l2.42,1.44c-2.38,4.79-3.57,7.84-3.57,9.15,0,.54.18.99.55,1.35.36.37.73.55,1.09.55s.6-.02.72-.06c.11-.04.23-.09.34-.14.12-.06.26-.14.43-.26.17-.11.33-.23.46-.34.13-.12.35-.29.66-.52.31-.23.56-.42.75-.58Z"/>
    <path class="st0" d="M499.28,447.91l1.21.92c-.84,1.69-2,3.11-3.48,4.26s-2.81,1.73-4,1.73-2.13-.35-2.82-1.04c-.69-.69-1.04-1.55-1.04-2.59s.66-2.85,1.98-5.44c1.32-2.59,1.98-4.5,1.98-5.72,0-.54-.22-1.03-.66-1.47-.44-.44-.97-.66-1.58-.66-1.96,0-3.93,1.49-5.92,4.46-1.99,2.97-4.22,7.26-6.67,12.86l-3.45-1.21c.73-4.45,1.77-8.79,3.13-13.03,1.36-4.24,2.62-7.28,3.77-9.12l2.36.75c-1.07,2.72-2.44,7.42-4.08,14.09,5.29-9.05,10.16-13.57,14.61-13.57.96,0,1.75.33,2.39.98.63.65.95,1.42.95,2.3s-.11,1.68-.34,2.39c-.23.71-.95,2.36-2.16,4.95-1.21,2.59-1.81,4.21-1.81,4.86s.19,1.16.58,1.52c.38.36.75.55,1.09.55s.63-.06.86-.17c.23-.11.49-.29.78-.52.29-.23.55-.44.78-.63.23-.19.51-.45.83-.78s.57-.55.72-.66Z"/>
    <path class="st0" d="M526.03,452.8l.06,1.38c-.38.23-2.13.92-5.23,2.07-1.23,7.32-3.03,12.62-5.41,15.88-2.38,3.26-5.29,4.89-8.74,4.89-1.61,0-2.9-.52-3.85-1.55-.96-1.04-1.44-2.38-1.44-4.03,0-3.3,1.51-6.38,4.54-9.23,3.03-2.86,7.07-5.11,12.14-6.76.58-2.57,1.61-6.19,3.11-10.87-2.57,3.91-4.9,6.56-6.99,7.94-2.09,1.38-3.98,2.07-5.67,2.07s-2.96-.46-3.83-1.38c-.86-.92-1.29-2.15-1.29-3.68,0-2.53,1.05-5.11,3.16-7.74,2.11-2.63,4.76-4.77,7.97-6.44,3.2-1.67,6.3-2.5,9.29-2.5l.46,2.01c-4.26.46-7.91,1.96-10.96,4.49-3.05,2.53-4.57,4.97-4.57,7.3,0,1,.31,1.82.92,2.47.61.65,1.36.98,2.24.98,1.3,0,3.28-1.38,5.92-4.14s4.51-5.12,5.58-7.07l2.13,1.21c-2.11,5.64-3.57,10.39-4.37,14.26l4.83-1.55ZM517.75,457.17c-3.34,1.53-6.1,3.37-8.28,5.52-2.19,2.15-3.28,4.1-3.28,5.87,0,.92.27,1.67.81,2.24.54.58,1.21.86,2.01.86,1.61,0,3.2-1.13,4.77-3.39,1.57-2.26,2.89-5.96,3.97-11.1Z"/>
    <path class="st0" d="M551.11,449.06l1.32.98c-.54,1.15-1.52,2.24-2.96,3.28-1.44,1.04-2.75,1.55-3.94,1.55-2.26,0-3.39-1.19-3.39-3.57,0-1.11.29-2.43.86-3.97l-2.13,2.19c-2.07,2.11-3.86,3.53-5.38,4.26-1.52.73-3,1.09-4.46,1.09s-2.56-.41-3.31-1.24c-.75-.82-1.12-1.96-1.12-3.42,0-2.68,1.04-5.34,3.11-7.97,2.07-2.63,4.72-4.76,7.94-6.41,3.22-1.65,6.44-2.49,9.66-2.53l.11,1.9-2.42.52c-3.49.77-6.57,2.3-9.23,4.6s-4,4.59-4,6.87.92,3.42,2.76,3.42c1.73,0,3.85-1.21,6.38-3.62,2.53-2.42,4.64-5.25,6.33-8.51l2.42,1.44c-2.38,4.79-3.57,7.84-3.57,9.15,0,.54.18.99.55,1.35.36.37.73.55,1.09.55s.6-.02.72-.06c.11-.04.23-.09.34-.14.12-.06.26-.14.43-.26.17-.11.33-.23.46-.34.13-.12.35-.29.66-.52.31-.23.56-.42.75-.58Z"/>
    <path class="st0" d="M561.75,449.35l1.21.98c-1.3,2.03-2.43,3.5-3.36,4.4-.94.9-1.98,1.35-3.13,1.35s-2.09-.46-2.82-1.38c-.73-.92-1.09-2.07-1.09-3.45,0-2.68,1.76-8.46,5.29-17.34,3.53-8.88,7.15-16.69,10.87-23.44l2.53,1.38c-3.76,7.29-7.15,14.52-10.18,21.71-3.03,7.19-4.54,12.36-4.54,15.5,0,1.8.67,2.7,2.01,2.7,1.07,0,2.15-.8,3.22-2.42Z"/>
    <path class="st0" d="M584.12,437.79c1,1.65,1.5,3.47,1.5,5.46,0,3.11-1.07,5.88-3.22,8.31-2.15,2.44-4.68,3.65-7.59,3.65-2.22,0-3.96-.64-5.21-1.93-1.25-1.28-1.87-3.06-1.87-5.32,0-3.64,1.42-6.91,4.26-9.81,2.84-2.89,6.02-4.34,9.55-4.34.65,0,1.11.02,1.38.06l.17,1.9c-3.07,0-5.62.88-7.65,2.65-2.03,1.76-3.05,4.03-3.05,6.79,0,1.65.4,2.98,1.21,4,.8,1.02,1.98,1.52,3.54,1.52s2.79-.69,3.71-2.07c.92-1.38,1.38-3,1.38-4.86s-.37-3.56-1.09-5.09l2.99-.92Z"/>
    <path class="st0" d="M602.24,434.51c.96,0,1.74.33,2.36.98.61.65.92,1.5.92,2.53,0,2.07-1.19,4.26-3.57,6.56l-1.38-1.09c.54-1.19.8-2.05.8-2.59,0-1.04-.58-1.55-1.73-1.55s-2.24.73-3.28,2.19c-1.04,1.46-2.25,3.71-3.65,6.76-1.4,3.05-2.46,5.21-3.19,6.47l-3.28-1.44c2.11-4.79,3.32-7.61,3.62-8.46,1.04-2.99,1.55-6.79,1.55-11.39l3.22-.86c-.12,2.49-.29,4.42-.52,5.78-.23,1.36-.79,3.58-1.67,6.64,3.87-7.02,7.13-10.53,9.78-10.53Z"/>
    <path class="st0" d="M622.03,448.08l1.32,1.04c-1.19,1.65-2.82,3.02-4.89,4.11-2.07,1.09-4.08,1.64-6.04,1.64s-3.53-.58-4.72-1.73c-1.19-1.15-1.78-2.67-1.78-4.54,0-3.53,1.87-7,5.61-10.41,3.74-3.41,7.52-5.12,11.36-5.12,2.53,0,3.8,1,3.8,2.99s-1.33,4.16-4,6.27c-2.67,2.11-6.41,4.03-11.25,5.75.35.88.88,1.57,1.61,2.07.73.5,1.48.75,2.24.75,1.65,0,3.89-.94,6.73-2.82ZM611.16,446.36c3.11-1.07,5.77-2.42,8-4.03,2.22-1.61,3.34-3.09,3.34-4.43,0-.5-.19-.94-.58-1.32-.38-.38-.83-.58-1.32-.58-1.8,0-3.75,1.12-5.84,3.36-2.09,2.24-3.29,4.57-3.59,6.99Z"/>
  </g>
</svg>