<?xml version="1.0" encoding="UTF-8"?>
<svg id="Layer_1" xmlns="http://www.w3.org/2000/svg" version="1.1" viewBox="0 0 1728 864">
  <!-- Generator: Adobe Illustrator 29.0.1, SVG Export Plug-In . SVG Version: 2.1.0 Build 192)  -->
  <defs>
    <style>
      .st0 {
        fill: none;
      }

      .st1 {
        fill: #181616;
      }
    </style>
  </defs>
  <g>
    <path class="st1" d="M1435.41,346.42c-.76,0-1.61-.44-2.05-1.14-.74-1.16-.4-2.63.77-3.33l15.28-9.02-24.88-46.53c-.61-1.16-.15-2.64,1.02-3.23,1.22-.62,2.77-.17,3.36,1.01l25.92,48.54c.6,1.12.23,2.46-.85,3.16l-17.2,10.16c-.44.26-.84.39-1.37.39"/>
    <path class="st1" d="M319.08,347.11c-65.99,0-119.6,49.71-119.6,110.81s53.61,110.87,119.6,110.87,119.56-49.75,119.56-110.87-53.61-110.81-119.56-110.81M319.08,540.87c-50.16,0-90.97-37.16-90.97-82.96s40.81-82.96,90.97-82.96,90.98,37.25,90.98,82.96-40.81,82.96-90.98,82.96"/>
    <path class="st1" d="M262.57,512.42c-.52,0-1.14-.19-1.61-.59-16.18-14.36-25.12-33.47-25.12-53.9,0-41.6,37.34-75.39,83.26-75.39,26.01,0,50.15,10.83,66.05,29.77.88,1,.69,2.53-.35,3.38-1.01.81-2.61.64-3.46-.34-14.99-17.84-37.67-28.01-62.24-28.01-43.19,0-78.27,31.67-78.27,70.59,0,19.07,8.29,36.87,23.44,50.31,1,.9,1.06,2.42.13,3.4-.47.53-1.14.78-1.83.78"/>
    <path class="st1" d="M319.08,581.11c-35.75,0-69.27-13.13-94.35-36.98-.99-.9-.99-2.4-.07-3.38.94-.97,2.55-.97,3.51-.02,24.15,22.93,56.43,35.55,90.92,35.55,70.22,0,127.34-53.07,127.34-118.36,0-27.19-10.23-53.85-28.9-74.94-.85-1-.73-2.54.31-3.38.95-.9,2.54-.8,3.45.26,19.42,21.96,30.02,49.67,30.02,78.06,0,67.91-59.34,123.19-132.23,123.19"/>
    <path class="st1" d="M679.15,560.52h0l-33.39-.05c-1.34,0-2.45-1.08-2.45-2.42s1.11-2.37,2.45-2.37h30.87l.06-180.25c0-1.32,1.17-2.45,2.51-2.45s2.51,1.13,2.51,2.45l-.14,182.62c0,.7-.24,1.29-.75,1.71-.43.45-1.03.75-1.67.75"/>
    <path class="st1" d="M558.01,409.57c-.6,0-1.27-.26-1.75-.69-13.07-12.61-20.42-23.57-22.41-33.45-.23-1.32.62-2.62,1.99-2.85,1.32-.29,2.56.63,2.91,1.9,1.75,8.95,8.63,19.08,20.97,30.99.98.9,1.01,2.45.06,3.4-.51.45-1.17.71-1.75.71"/>
    <path class="st1" d="M535.62,560.36h-33.32c-1.31,0-2.5-1.06-2.5-2.42,0-1.29,1.18-2.39,2.5-2.39h30.84v-102.73c0-.95.6-1.8,1.47-2.21.89-.39,1.95-.21,2.65.41,9.38,7.93,20.22,16.09,33.02,24.95,26.39,18.22,43.67,32.21,52.76,42.8.88,1.03.7,2.5-.34,3.38-1.04.82-2.62.67-3.45-.31-8.81-10.29-25.73-23.99-51.85-41.96-11.1-7.68-20.78-14.88-29.27-21.87v99.93c0,1.36-1.16,2.42-2.52,2.42"/>
    <path class="st1" d="M1246.31,560.62h-32.54c-1.38,0-2.48-1.12-2.48-2.44s1.09-2.4,2.48-2.4h30.02v-152.99c0-1.34,1.1-2.4,2.52-2.4h56.46v-26.05c0-1.32,1.14-2.38,2.46-2.38s2.48,1.06,2.48,2.38v28.45c0,1.3-1.13,2.38-2.48,2.38h-56.48v153c0,1.32-1.12,2.44-2.44,2.44"/>
    <path class="st1" d="M1197.23,405.18h-39.28c-1.33,0-2.48-1.08-2.48-2.4s1.15-2.4,2.48-2.4h39.28c1.31,0,2.48,1.06,2.48,2.4s-1.17,2.4-2.48,2.4"/>
    <path class="st1" d="M1498.54,561.52c-.92,0-1.75-.49-2.18-1.28-.59-1.19-.19-2.62,1.01-3.24l25.38-12.63-87.88-168.5c-.68-1.16-.21-2.61,1.05-3.22,1.22-.64,2.73-.14,3.34,1.03l89.02,170.69c.56,1.17.12,2.62-1.09,3.23l-27.56,13.65c-.38.19-.72.27-1.09.27"/>
    <path class="st1" d="M1387.33,471.47c-.39,0-.72-.07-1.11-.23-1.21-.6-1.71-2.08-1.13-3.24l21.87-42.29c.59-1.19,2.11-1.66,3.33-1.09,1.16.6,1.65,2.04,1.12,3.25l-21.84,42.24c-.44.85-1.37,1.35-2.25,1.35"/>
    <path class="st1" d="M1335.92,569.59c-.43,0-.76-.09-1.16-.25l-25.2-12.56c-1.25-.64-1.66-2.08-1.13-3.24.67-1.21,2.16-1.67,3.35-1.05l23.05,11.45,27.93-53.13c.3-.58.82-1.01,1.51-1.22.64-.19,1.4-.06,1.95.28,14.4,8.69,33.32,15.29,57.75,20.37,11.14,2.22,20.81,4.88,28.78,7.81,1.26.52,1.87,1.88,1.38,3.09-.47,1.25-1.85,1.86-3.16,1.4-7.75-2.82-17.15-5.43-28.03-7.63-23.71-4.83-42.43-11.26-57.01-19.63l-27.81,52.99c-.33.58-.85,1.01-1.47,1.19-.21.08-.47.12-.73.12"/>
    <path class="st1" d="M780.5,502.13c-.56,0-1.14-.18-1.63-.56-5.59-4.81-10.18-10.34-13.53-16.52-.42-.71-.42-1.61,0-2.29.45-.75,1.22-1.22,2.08-1.26,11.8-.44,25.04-3.22,40.52-8.32,12.99-4.29,23.53-6.2,31.42-6.29,9.18.13,18.85,3.91,23.89,6.29l.11-27.29c0-1.34,1.06-2.4,2.45-2.4s2.43,1.06,2.43,2.4l-.06,31.22c0,.84-.49,1.69-1.22,2.04-.79.43-1.7.43-2.5,0-.14-.08-13.38-7.33-25.17-7.47-7.02-.18-17.46,1.96-29.79,6.05-14.18,4.72-26.55,7.46-37.86,8.32,2.85,4.4,6.33,8.35,10.47,11.91,1.06.85,1.16,2.38.25,3.38-.46.53-1.16.81-1.88.81"/>
    <path class="st1" d="M764.75,442.55c-.31,0-.59-.05-.86-.12-1.34-.48-1.92-1.91-1.46-3.16,9.12-23.17,33.69-38.73,61.05-38.73,16.49,0,32.29,5.67,44.39,15.95l5.48,4.65,18.05-17.58c.97-.97,2.55-.91,3.47,0,.99.93.99,2.45,0,3.38l-19.72,19.17c-.89.9-2.35.93-3.31.1l-7.27-6.05c-11.15-9.59-25.78-14.83-41.1-14.83-25.34,0-48.03,14.3-56.39,35.67-.39.97-1.38,1.54-2.33,1.54"/>
    <path class="st1" d="M823.5,565.43c-30.35,0-58.91-11.04-80.43-31.06-1.01-.92-1.04-2.45-.14-3.38.98-.97,2.54-1,3.53-.11,20.61,19.19,47.97,29.72,77.04,29.72,25.23,0,49.92-8.27,69.56-23.36,1.02-.82,2.6-.64,3.48.42.81,1.01.68,2.5-.44,3.39-20.41,15.73-46.23,24.39-72.61,24.39"/>
    <path class="st1" d="M1064.61,496.18c-1.12,0-2.01-.65-2.37-1.66-3.17-8.78-24.61-13.97-41.91-18.18-1.57-.35-3.23-.76-4.98-1.13l-2.56-.59c-16.27-3.65-40.79-9.1-57.63-23.14-1.01-.93-1.14-2.44-.24-3.44.86-1.01,2.46-1.08,3.46-.24,15.87,13.32,39.71,18.66,55.51,22.14l2.62.61c1.75.39,3.44.81,5.04,1.16,20.31,4.89,41.33,9.95,45.38,21.27.39,1.24-.26,2.64-1.59,3.04-.23.11-.49.17-.72.17"/>
    <path class="st1" d="M1023.26,563.28c-30.66,0-57.7-9.14-76.2-25.71-1.03-.87-1.08-2.4-.17-3.33.95-1.03,2.5-1.1,3.53-.19,17.54,15.78,43.47,24.41,72.84,24.41,33.2,0,60.11-8.71,75.98-24.54,10.62-10.59,16.03-24.12,15.58-39.04-.3-11.54-3.64-21.22-10.28-29.59-.77-1-.59-2.53.48-3.36,1.12-.77,2.65-.61,3.48.47,7.12,9.08,10.94,19.98,11.27,32.37.47,16.28-5.44,30.96-16.96,42.47-16.81,16.79-45.01,26.05-79.55,26.05"/>
    <path class="st1" d="M1079.07,429.95h-.19c-.72-.05-1.38-.39-1.83-.89-1.22-1.56-1.99-2.69-2.66-3.7-1.39-1.99-2.56-3.58-6.56-7.5-9.02-8.75-26.51-15.05-44.79-15.99-11.56-.56-23.38,2.3-27.53,6.63-.97.97-2.57,1.01-3.51.11-.97-.9-1.04-2.42-.14-3.4,5.24-5.43,18.14-8.85,31.52-8.11,19.33,1.01,38.11,7.81,47.9,17.33,4.39,4.25,5.64,6.1,7.19,8.21.23.4.53.81.93,1.3l18.07-17.03c.99-.92,2.5-.89,3.45.05.98.97.93,2.5,0,3.4l-20.18,18.94c-.47.39-1.09.64-1.68.64"/>
    <path class="st1" d="M640.34,484.41c-11.43-10.75-27.32-23.13-49.39-38.39-65.46-45.14-65.46-66.67-65.46-78.26h-28.74v180.24h28.65v-118.42c11.55,11.99,27.55,25.21,49.38,40.22,66.03,45.53,65.8,58.61,65.47,73.66,0,1.56-.06,3.06-.06,4.65h28.72v-.11h.04v-180.24h-28.62v116.64Z"/>
    <polygon class="st1" points="1148.51 392.82 1207.45 392.82 1207.45 548.26 1236.1 548.26 1236.1 392.82 1295.02 392.82 1295.02 367.76 1148.51 367.76 1148.51 392.82"/>
    <path class="st1" d="M1486.84,553.8l25.44-12.72-90.44-173.4h-25.44l-90.43,173.4,25.52,12.72,29.72-56.62c14.1,11.28,35.46,19.75,64.34,25.64,33.1,6.72,53.94,16.9,60.4,29.45l.89,1.53ZM1431.41,495.6c-20.53-4.22-45.5-11.7-56.62-24.29l34.37-66.7,51.05,98.46c-8.62-2.8-18.18-5.34-28.8-7.48"/>
    <path class="st1" d="M823.5,525.24c-34.81,0-63.92-22.41-71-52.23,3.5.63,7.16,1.01,11.09,1.01,11.8,0,25.74-2.69,41.84-7.99,16.59-5.56,38.73-10.46,49.83-2.82l.31-.4v-25.44c-14.78-4.01-33.96-2-58.05,6.05-20.52,6.8-36.12,8.4-45.66,4.85,5.68-31.29,35.55-55.27,71.62-55.27,19.09,0,36.48,6.81,49.5,17.82l20.3-19.77c-18.19-16.05-42.81-25.94-69.81-25.94-55.81,0-101.31,42.15-101.31,93.97s45.5,94,101.31,94c29.37,0,55.84-11.71,74.38-30.23l-20.3-19.75c-13.35,13.52-32.61,22.14-54.08,22.14"/>
    <path class="st1" d="M1034.99,440.08c-44.52-11.03-52.52-17.61-53.33-27.88-1.14-16.36,21.57-23.69,42.11-22.64,23.52,1.22,46.36,9.72,56.02,23.18l19.85-18.37c-13.67-18.07-43.39-29.29-74.89-29.29-44.07,0-74.82,19.88-74.82,48.34,0,38.18,48.84,45,73.47,50.93,24.98,6.05,50.78,12.23,51.9,31.22,1.14,18.22-21.92,31.58-52.71,30.43-30.06-1.11-48.54-12.12-58.26-26.1l-18.75,17.43c15.82,22.45,44.88,33.6,77.68,33.6,51.91,0,84.74-21.91,83.85-55.8-.97-36.03-36.9-46.36-72.12-55.04"/>
    <polygon class="st1" points="1439.06 330.15 1413.61 284.31 1390.08 298.22 1389.98 298.36 1422.78 339.83 1439.06 330.15"/>
  </g>
  <rect class="st0" width="1728" height="864"/>
</svg>