<?xml version="1.0" encoding="UTF-8"?>
<svg id="Layer_1" xmlns="http://www.w3.org/2000/svg" version="1.1" viewBox="0 0 2000 1116.67">
  <!-- Generator: Adobe Illustrator 29.0.1, SVG Export Plug-In . SVG Version: 2.1.0 Build 192)  -->
  <defs>
    <style>
      .st0 {
        fill: #e09271;
      }
    </style>
  </defs>
  <path class="st0" d="M479.7,823.57l163.65-553.9c6.82-24.21,21.24-36.18,43.39-36.18h17.77v-16.22h-138.41v16.22h41.85c9.79.26,15.45,2.19,17.38,5.54,1.8,3.48,2.57,6.44,2.96,8.37.39,1.8.39,3.35.39,5.28,0,4.12-52.4,184.25-157.59,540.77-108.67-359.48-163-541.54-163-546.43,0-2.7.39-5.28,1.54-8.63,1.03-3.48,7.47-4.89,18.8-4.89h29.1v-16.22h-161.84v16.22c24.85,0,40.3,2.19,46.35,6.69,6.05,5.28,10.94,14.29,14.81,27.17l190.81,632.05h55.11l-23.05-75.84Z"/>
  <path class="st0" d="M853.28,883.19h-43.78c-11.33,0-18.54-1.42-21.5-4.89-2.7-3.35-4.12-11.59-4.12-24.85V264.01c0-14.03,1.42-22.28,4.12-25.62,2.96-3.48,19.57-4.89,50.21-4.89h15.06v-16.22h-154.76v16.22h6.82c10.94,0,18.15,1.42,20.73,4.89,3.09,3.35,4.51,11.59,4.51,25.24v589.82c0,13.26-1.03,21.12-3.73,24.46-2.58,3.09-3.73,4.89-3.73,5.28l-24.21,3.86v12.36h154.38v-16.22Z"/>
  <path class="st0" d="M1009.23,899.41c60,0,112.14-9.53,157.08-28.58,44.94-19.31,82.27-45.32,112.02-77.38,29.87-32.06,52.4-68.75,67.08-109.44,14.94-40.81,22.53-82.27,22.53-124.12,0-18.93-1.55-37.72-4.51-57.04-10.94-69.01-39.01-128.63-85.36-178.84-60.51-64.89-151.42-106.74-271.16-106.74l-133.13.39-.39,15.84c20.34,0,31.67,1.03,33.48,3.35,1.93,2.32,3.48,4.89,3.86,8.24.77,5.02,1.03,207.55,1.42,608.36h53.3V266.33c.39-15.58,1.42-24.59,4.12-27.55,2.57-3.48,9.4-5.02,19.96-5.28h34.76c59.23,3.73,109.83,21.5,151.41,52.79,41.85,31.29,73.26,69.01,94.38,113.17,25.24,52.4,38.5,93.99,40.04,124.12,1.55,29.87,2.19,48.67,2.19,56.65,0,45.71-8.63,89.48-25.62,131.33-19.7,48.28-51.37,88.33-95.15,119.61-43.39,31.29-100.04,48.67-169.18,52.02l-185.92.39v15.84h172.79Z"/>
  <path class="st0" d="M1520.3,293.09l-163.65,553.9c-6.82,24.21-21.24,36.18-43.39,36.18h-17.77v16.22h138.41v-16.22h-41.85c-9.79-.26-15.45-2.19-17.38-5.54-1.8-3.48-2.57-6.44-2.96-8.37-.39-1.8-.39-3.35-.39-5.28,0-4.12,52.4-184.25,157.59-540.77,108.67,359.48,163,541.54,163,546.43,0,2.7-.39,5.28-1.55,8.63-1.03,3.48-7.47,4.89-18.8,4.89h-29.1v16.22h161.84v-16.22c-24.85,0-40.3-2.19-46.35-6.69-6.05-5.28-10.94-14.29-14.81-27.17l-190.81-632.05h-55.11l23.05,75.84Z"/>
</svg>